<svg xmlns="http://www.w3.org/2000/svg" viewBox="0 0 1018.59 470.1"><defs><style>.cls-1{fill:none;stroke:#000;stroke-linecap:round;stroke-linejoin:round;stroke-width:0.71px;}</style></defs><g id="Layer_2" data-name="Layer 2"><g id="Top_1" data-name="Top 1"><g id="SPLINE"><circle class="cls-1" cx="269.92" cy="420.24" r="3.83"/></g><g id="SPLINE-2" data-name="SPLINE"><circle class="cls-1" cx="638.43" cy="420.24" r="3.83"/></g><g id="SPLINE-3" data-name="SPLINE"><circle class="cls-1" cx="1004.07" cy="14.53" r="3.83"/></g><g id="SPLINE-4" data-name="SPLINE"><circle class="cls-1" cx="1004.07" cy="407.37" r="3.83"/></g><g id="SPLINE-5" data-name="SPLINE"><circle class="cls-1" cx="14.53" cy="407.37" r="3.83"/></g><g id="SPLINE-6" data-name="SPLINE"><path class="cls-1" d="M447.23,159.67l-10.34,48.66a3.54,3.54,0,0,1-4.2,2.73l-22.26-4.73a.7.7,0,0,0-.83.54l-10.35,48.68a.7.7,0,0,0,.54.83l9,1.92a3.54,3.54,0,0,1,2.73,4.21l-10.34,48.64a.73.73,0,0,0,.56.86L424,316.74a3.54,3.54,0,0,1,2.73,4.2L416.41,369.6a.71.71,0,0,0,.55.84l22.25,4.73a3.55,3.55,0,0,1,2.73,4.2L431.6,428a3.54,3.54,0,0,1-4.21,2.73L193.86,381.12a3.55,3.55,0,0,1-2.73-4.2L201.54,328a.72.72,0,0,0-.7-.86h-89a.71.71,0,0,0-.71.71v49.74a3.55,3.55,0,0,1-3.55,3.55h-76a4.26,4.26,0,0,1-4.25-4.25l0-102.34a4.26,4.26,0,0,1,4.26-4.25h6.88a.7.7,0,0,0,.7-.7V219.83a3.54,3.54,0,0,1,3.54-3.55h7.26a.72.72,0,0,0,.72-.72V165.83a3.55,3.55,0,0,1,3.55-3.55h7.55a.7.7,0,0,0,.7-.7V111.83A3.55,3.55,0,0,1,66,108.28H170.44a4.25,4.25,0,0,1,4.25-4.25H223a4.25,4.25,0,0,1,4.25,4.25v1L444.5,155.47A3.54,3.54,0,0,1,447.23,159.67Z"/></g><g id="SPLINE-7" data-name="SPLINE"><circle class="cls-1" cx="262.66" cy="14.53" r="3.83"/></g><g id="SPLINE-8" data-name="SPLINE"><circle class="cls-1" cx="14.53" cy="14.53" r="3.83"/></g><g id="LINE"><path class="cls-1" d="M991.31,390.37a4.25,4.25,0,0,1-4.25,4.25H830.73a4.25,4.25,0,0,1-4.25-4.25V342a4.25,4.25,0,0,1,4.25-4.26h49a.7.7,0,0,0,.71-.7V288a4.25,4.25,0,0,1,4.25-4.26h48.33a4.25,4.25,0,0,1,4.25,4.26v49a.69.69,0,0,0,.7.69h49a4.25,4.25,0,0,1,4.25,4.26Z"/></g><g id="SPLINE-9" data-name="SPLINE"><circle class="cls-1" cx="638.43" cy="14.53" r="3.83"/></g><g id="LINE-2" data-name="LINE"><path class="cls-1" d="M1018.24,6V415.88a5.67,5.67,0,0,1-5.67,5.67H716.27L482.52,469.74H425.83L192.08,421.55H6a5.67,5.67,0,0,1-5.67-5.67V6A5.67,5.67,0,0,1,6,.35H1012.57A5.67,5.67,0,0,1,1018.24,6Z"/></g><g id="SPLINE-10" data-name="SPLINE"><path class="cls-1" d="M903,97.62a4.26,4.26,0,0,1-4.26-4.25V45A4.26,4.26,0,0,1,903,40.78h48.33A4.25,4.25,0,0,1,955.56,45v49a.71.71,0,0,0,.71.71h6.86A4.25,4.25,0,0,1,967.38,99v49a.71.71,0,0,0,.71.71H975a4.26,4.26,0,0,1,4.25,4.26v49.05a.69.69,0,0,0,.69.69h7.16a4.25,4.25,0,0,1,4.25,4.26v48.33a4.25,4.25,0,0,1-4.25,4.25H938.73a4.25,4.25,0,0,1-4.25-4.25V206.32a.7.7,0,0,0-.71-.7h-7.15a4.25,4.25,0,0,1-4.25-4.25V152.31a.69.69,0,0,0-.69-.69H914.8a4.25,4.25,0,0,1-4.25-4.25V98.31a.69.69,0,0,0-.69-.69Z"/></g><g id="LINE-3" data-name="LINE"><path class="cls-1" d="M34.2,93.49V45a4.25,4.25,0,0,1,4.25-4.25H86.78A4.25,4.25,0,0,1,91,45V93.35a4.24,4.24,0,0,1-4.25,4.25l-48.33.15A4.25,4.25,0,0,1,34.2,93.49Z"/></g><g id="LINE-4" data-name="LINE"><path class="cls-1" d="M432.81,142.07,332.34,120.86a4.25,4.25,0,0,1-3.28-5l10.52-47.31a4.26,4.26,0,0,1,5.05-3.28L445.07,86.58a4.25,4.25,0,0,1,3.28,5l-10.5,47.18A4.24,4.24,0,0,1,432.81,142.07Z"/></g><g id="SPLINE-11" data-name="SPLINE"><path class="cls-1" d="M575.61,120.94a4.24,4.24,0,0,0,3.28-5L568.81,68.48a4.25,4.25,0,0,0-5-3.27L463.67,86.48a4.25,4.25,0,0,0-3.27,5l10.05,47.27a4.24,4.24,0,0,0,5,3.28Z"/></g><g id="ARC"><path class="cls-1" d="M704.66,93.46l97.28-.07a4.25,4.25,0,0,0,4.25-4.25V40.8a4.25,4.25,0,0,0-4.25-4.25l-103.33-.38a2.54,2.54,0,0,0-.61.07L582.55,61.37a4.25,4.25,0,0,0-3.28,5l10.05,47.27a4.26,4.26,0,0,0,5,3.28l109.7-23.44A3,3,0,0,1,704.66,93.46Z"/></g><g id="SPLINE-12" data-name="SPLINE"><path class="cls-1" d="M319,113.68a4.24,4.24,0,0,1-5,3.28L205,93.54a2.32,2.32,0,0,0-.59-.07l-98-.11a4.26,4.26,0,0,1-4.26-4.25V40.8a4.25,4.25,0,0,1,4.26-4.25l104.48-.13a2.46,2.46,0,0,1,.6.07L325.8,61.37a4.26,4.26,0,0,1,3.27,5.05Z"/></g><path class="cls-1" d="M479.47,375.87l-22.26,4.73a4.25,4.25,0,0,1-5-3.28l-10.05-47.27a4.26,4.26,0,0,1,3.28-5l35.45-7.54-10.49-49.36a.7.7,0,0,0-.83-.54l-8.36,1.78a4.26,4.26,0,0,1-5-3.28L446.08,218.8a4.26,4.26,0,0,1,3.27-5.05l21.57-4.58a.7.7,0,0,0,.54-.83l-10.2-48a4.25,4.25,0,0,1,3.28-5l216.5-46v-1A4.25,4.25,0,0,1,685.3,104h48.33a4.25,4.25,0,0,1,4.25,4.25H895.63a4.25,4.25,0,0,1,4.25,4.26v49a.71.71,0,0,0,.71.71h6.87a4.26,4.26,0,0,1,4.25,4.26v49.05a.69.69,0,0,0,.69.69h7.16a4.25,4.25,0,0,1,4.25,4.25v48.34a4.25,4.25,0,0,1-4.25,4.25h-49a.7.7,0,0,0-.71.7v49.05a4.25,4.25,0,0,1-4.25,4.25h-158a.72.72,0,0,0-.7.86l10.26,48.25a4.26,4.26,0,0,1-3.28,5L494.85,427.81a4.26,4.26,0,0,1-5-3.28Z"/><circle class="cls-1" cx="853.22" cy="69.27" r="28.42"/></g></g></svg>