<svg xmlns="http://www.w3.org/2000/svg" viewBox="0 0 1029.93 481.43"><defs><style>.cls-1{fill:none;stroke:#000;stroke-linecap:round;stroke-linejoin:round;stroke-width:0.71px;}</style></defs><g id="Layer_2" data-name="Layer 2"><g id="Top_2" data-name="Top 2"><g id="SPLINE"><circle class="cls-1" cx="275.59" cy="425.91" r="3.83"/></g><g id="SPLINE-2" data-name="SPLINE"><circle class="cls-1" cx="644.09" cy="425.91" r="3.83"/></g><g id="SPLINE-3" data-name="SPLINE"><circle class="cls-1" cx="1009.74" cy="20.2" r="3.83"/></g><g id="SPLINE-4" data-name="SPLINE"><circle class="cls-1" cx="1009.74" cy="413.04" r="3.83"/></g><g id="SPLINE-5" data-name="SPLINE"><circle class="cls-1" cx="20.2" cy="413.04" r="3.83"/></g><g id="SPLINE-6" data-name="SPLINE"><path class="cls-1" d="M452.9,165.34,442.56,214a3.54,3.54,0,0,1-4.2,2.73L416.1,212a.7.7,0,0,0-.83.54l-10.35,48.68a.7.7,0,0,0,.53.83l9.06,1.92a3.54,3.54,0,0,1,2.73,4.21L406.9,316.82a.73.73,0,0,0,.56.86l22.24,4.73a3.54,3.54,0,0,1,2.73,4.2l-10.35,48.66a.71.71,0,0,0,.55.84l22.25,4.73a3.55,3.55,0,0,1,2.73,4.2L437.27,433.7a3.54,3.54,0,0,1-4.21,2.73L199.53,386.79a3.55,3.55,0,0,1-2.73-4.2l10.41-48.94a.72.72,0,0,0-.7-.86h-89a.71.71,0,0,0-.71.71v49.74a3.55,3.55,0,0,1-3.55,3.55h-76A4.25,4.25,0,0,1,33,382.54L33,280.2A4.26,4.26,0,0,1,37.21,276h6.88a.7.7,0,0,0,.7-.7V225.5A3.54,3.54,0,0,1,48.33,222h7.26a.72.72,0,0,0,.72-.72V171.5A3.55,3.55,0,0,1,59.85,168h7.56a.7.7,0,0,0,.7-.7V117.5A3.55,3.55,0,0,1,71.65,114H176.11a4.25,4.25,0,0,1,4.25-4.25h48.33a4.25,4.25,0,0,1,4.25,4.25v1l217.23,46.17A3.54,3.54,0,0,1,452.9,165.34Z"/></g><g id="SPLINE-7" data-name="SPLINE"><circle class="cls-1" cx="268.33" cy="20.2" r="3.83"/></g><g id="SPLINE-8" data-name="SPLINE"><circle class="cls-1" cx="20.2" cy="20.2" r="3.83"/></g><g id="LINE"><path class="cls-1" d="M997,396a4.25,4.25,0,0,1-4.25,4.25H836.4a4.25,4.25,0,0,1-4.25-4.25V347.7a4.25,4.25,0,0,1,4.25-4.25h49a.7.7,0,0,0,.71-.7V293.7a4.25,4.25,0,0,1,4.25-4.25h48.33A4.25,4.25,0,0,1,943,293.7v49.06a.69.69,0,0,0,.7.69h49.05A4.25,4.25,0,0,1,997,347.7Z"/></g><g id="SPLINE-9" data-name="SPLINE"><circle class="cls-1" cx="644.09" cy="20.2" r="3.83"/></g><path class="cls-1" d="M430.92,481.08,197.17,432.89H11.69A11.36,11.36,0,0,1,.35,421.55V11.69A11.36,11.36,0,0,1,11.69.35H1018.24a11.36,11.36,0,0,1,11.34,11.34V421.55a11.36,11.36,0,0,1-11.34,11.34H722.52L488.77,481.08Z"/><g id="SPLINE-10" data-name="SPLINE"><path class="cls-1" d="M908.65,103.29A4.26,4.26,0,0,1,904.39,99V50.7a4.26,4.26,0,0,1,4.26-4.25H957a4.26,4.26,0,0,1,4.25,4.25v49a.71.71,0,0,0,.71.71h6.86a4.25,4.25,0,0,1,4.25,4.25v49a.71.71,0,0,0,.71.71h6.86a4.26,4.26,0,0,1,4.26,4.25v49.05a.69.69,0,0,0,.69.7h7.16A4.25,4.25,0,0,1,997,212.7V261a4.25,4.25,0,0,1-4.25,4.25H944.4a4.25,4.25,0,0,1-4.25-4.25V212a.7.7,0,0,0-.71-.7h-7.15A4.26,4.26,0,0,1,928,207V158a.69.69,0,0,0-.7-.69h-6.87a4.26,4.26,0,0,1-4.26-4.25V104a.69.69,0,0,0-.7-.69Z"/></g><g id="LINE-2" data-name="LINE"><path class="cls-1" d="M39.87,99.16V50.68a4.25,4.25,0,0,1,4.25-4.26H92.45a4.25,4.25,0,0,1,4.25,4.26V99a4.25,4.25,0,0,1-4.25,4.25l-48.33.14A4.24,4.24,0,0,1,39.87,99.16Z"/></g><g id="LINE-3" data-name="LINE"><path class="cls-1" d="M438.48,147.74,338,126.53a4.25,4.25,0,0,1-3.27-5l10.52-47.32a4.26,4.26,0,0,1,5.05-3.27L450.74,92.25a4.25,4.25,0,0,1,3.28,5l-10.5,47.17A4.24,4.24,0,0,1,438.48,147.74Z"/></g><g id="SPLINE-11" data-name="SPLINE"><path class="cls-1" d="M581.28,126.61a4.25,4.25,0,0,0,3.28-5L574.48,74.15a4.25,4.25,0,0,0-5-3.27L469.34,92.15a4.25,4.25,0,0,0-3.27,5l10,47.27a4.26,4.26,0,0,0,5.05,3.28Z"/></g><g id="ARC"><path class="cls-1" d="M710.33,99.13l97.28-.07a4.25,4.25,0,0,0,4.25-4.25V46.47a4.25,4.25,0,0,0-4.25-4.26l-103.33-.37a2.54,2.54,0,0,0-.61.07L588.22,67a4.24,4.24,0,0,0-3.28,5l10,47.27a4.25,4.25,0,0,0,5,3.28L709.74,99.19A3,3,0,0,1,710.33,99.13Z"/></g><g id="SPLINE-12" data-name="SPLINE"><path class="cls-1" d="M324.69,119.35a4.24,4.24,0,0,1-5,3.28l-109-23.43a2.88,2.88,0,0,0-.59-.06l-98-.11a4.26,4.26,0,0,1-4.26-4.26V46.47a4.26,4.26,0,0,1,4.26-4.26l104.48-.12a2.46,2.46,0,0,1,.6.07L331.47,67a4.26,4.26,0,0,1,3.27,5Z"/></g><path class="cls-1" d="M485.14,381.54l-22.26,4.73a4.25,4.25,0,0,1-5-3.28l-10-47.27a4.24,4.24,0,0,1,3.28-5l35.45-7.54L476,273.78a.7.7,0,0,0-.83-.54L466.84,275a4.26,4.26,0,0,1-5-3.28l-10.05-47.27a4.26,4.26,0,0,1,3.27-5.05l21.57-4.58a.7.7,0,0,0,.54-.83l-10.2-48a4.25,4.25,0,0,1,3.28-5l216.5-46v-1A4.25,4.25,0,0,1,691,109.7H739.3a4.25,4.25,0,0,1,4.25,4.25H901.3a4.25,4.25,0,0,1,4.25,4.25v49a.71.71,0,0,0,.71.71h6.86a4.26,4.26,0,0,1,4.26,4.26v49a.69.69,0,0,0,.69.69h7.16a4.25,4.25,0,0,1,4.25,4.25v48.33a4.25,4.25,0,0,1-4.25,4.26h-49a.71.71,0,0,0-.71.71v49.05a4.25,4.25,0,0,1-4.25,4.25H713.18a.72.72,0,0,0-.7.86l10.26,48.25a4.26,4.26,0,0,1-3.28,5L500.52,433.48a4.26,4.26,0,0,1-5-3.28Z"/><circle class="cls-1" cx="858.88" cy="74.94" r="28.42"/></g></g></svg>