<svg xmlns="http://www.w3.org/2000/svg" viewBox="0 0 1041.27 492.77"><defs><style>.cls-1{fill:none;stroke:#000;stroke-linecap:round;stroke-linejoin:round;stroke-width:0.71px;}</style></defs><g id="Layer_2" data-name="Layer 2"><g id="Top_3" data-name="Top 3"><g id="SPLINE"><circle class="cls-1" cx="281.26" cy="431.58" r="3.83"/></g><g id="SPLINE-2" data-name="SPLINE"><circle class="cls-1" cx="649.76" cy="431.58" r="3.83"/></g><g id="SPLINE-3" data-name="SPLINE"><circle class="cls-1" cx="1015.41" cy="25.87" r="3.83"/></g><g id="SPLINE-4" data-name="SPLINE"><circle class="cls-1" cx="1015.41" cy="418.71" r="3.83"/></g><g id="SPLINE-5" data-name="SPLINE"><circle class="cls-1" cx="25.87" cy="418.71" r="3.83"/></g><g id="SPLINE-6" data-name="SPLINE"><path class="cls-1" d="M458.57,171l-10.34,48.66A3.55,3.55,0,0,1,444,222.4l-22.25-4.73a.7.7,0,0,0-.83.54l-10.35,48.68a.7.7,0,0,0,.53.83l9.06,1.92a3.54,3.54,0,0,1,2.73,4.2l-10.34,48.65a.73.73,0,0,0,.56.86l22.23,4.72a3.54,3.54,0,0,1,2.73,4.21l-10.34,48.66a.71.71,0,0,0,.55.84l22.25,4.73a3.55,3.55,0,0,1,2.73,4.2l-10.35,48.66a3.54,3.54,0,0,1-4.2,2.73L205.2,392.46a3.54,3.54,0,0,1-2.73-4.2l10.4-48.94a.7.7,0,0,0-.69-.86h-89a.71.71,0,0,0-.72.71v49.74a3.54,3.54,0,0,1-3.54,3.55h-76a4.25,4.25,0,0,1-4.25-4.26l0-102.33a4.25,4.25,0,0,1,4.25-4.25h6.89a.7.7,0,0,0,.7-.7V231.17A3.54,3.54,0,0,1,54,227.62h7.26a.72.72,0,0,0,.72-.72V177.17a3.55,3.55,0,0,1,3.54-3.55h7.55a.71.71,0,0,0,.71-.7V123.17a3.55,3.55,0,0,1,3.54-3.55H181.78a4.25,4.25,0,0,1,4.25-4.25h48.33a4.25,4.25,0,0,1,4.25,4.25v1l217.23,46.18A3.53,3.53,0,0,1,458.57,171Z"/></g><g id="SPLINE-7" data-name="SPLINE"><circle class="cls-1" cx="274" cy="25.87" r="3.83"/></g><g id="SPLINE-8" data-name="SPLINE"><circle class="cls-1" cx="25.87" cy="25.87" r="3.83"/></g><g id="LINE"><path class="cls-1" d="M1002.65,401.7A4.25,4.25,0,0,1,998.4,406H842.07a4.26,4.26,0,0,1-4.26-4.26V353.37a4.26,4.26,0,0,1,4.26-4.25h49a.7.7,0,0,0,.7-.7V299.37a4.26,4.26,0,0,1,4.26-4.25H944.4a4.25,4.25,0,0,1,4.25,4.25v49.06a.69.69,0,0,0,.69.69H998.4a4.25,4.25,0,0,1,4.25,4.25Z"/></g><g id="SPLINE-9" data-name="SPLINE"><circle class="cls-1" cx="649.76" cy="25.87" r="3.83"/></g><path class="cls-1" d="M436,492.42l-233.75-48.2H17.36a17,17,0,0,1-17-17V17.36a17,17,0,0,1,17-17H1023.91a17,17,0,0,1,17,17V427.22a17,17,0,0,1-17,17H728.76L495,492.42Z"/><g id="SPLINE-10" data-name="SPLINE"><path class="cls-1" d="M914.32,109a4.26,4.26,0,0,1-4.26-4.26V56.37a4.26,4.26,0,0,1,4.25-4.25h48.34a4.26,4.26,0,0,1,4.25,4.25v49a.71.71,0,0,0,.71.71h6.86a4.26,4.26,0,0,1,4.25,4.25v49a.71.71,0,0,0,.71.71h6.86a4.26,4.26,0,0,1,4.26,4.25v49a.69.69,0,0,0,.69.7h7.16a4.25,4.25,0,0,1,4.25,4.25V266.7A4.25,4.25,0,0,1,998.4,271H950.07a4.26,4.26,0,0,1-4.26-4.26v-49a.7.7,0,0,0-.7-.7H938a4.25,4.25,0,0,1-4.25-4.25V163.65a.7.7,0,0,0-.7-.7h-6.87a4.26,4.26,0,0,1-4.26-4.26v-49a.7.7,0,0,0-.7-.7Z"/></g><g id="LINE-2" data-name="LINE"><path class="cls-1" d="M45.54,104.83V56.35a4.25,4.25,0,0,1,4.25-4.26H98.12a4.25,4.25,0,0,1,4.25,4.26v48.34a4.25,4.25,0,0,1-4.25,4.25l-48.33.14A4.25,4.25,0,0,1,45.54,104.83Z"/></g><g id="LINE-3" data-name="LINE"><path class="cls-1" d="M444.15,153.41,343.67,132.2a4.25,4.25,0,0,1-3.27-5l10.52-47.32A4.26,4.26,0,0,1,356,76.57L456.41,97.92a4.25,4.25,0,0,1,3.28,5l-10.5,47.17A4.25,4.25,0,0,1,444.15,153.41Z"/></g><g id="SPLINE-11" data-name="SPLINE"><path class="cls-1" d="M587,132.28a4.26,4.26,0,0,0,3.28-5L580.15,79.82a4.26,4.26,0,0,0-5-3.27L475,97.82a4.25,4.25,0,0,0-3.27,5.05l10,47.27a4.27,4.27,0,0,0,5.05,3.28Z"/></g><g id="ARC"><path class="cls-1" d="M716,104.8l97.28-.07a4.25,4.25,0,0,0,4.25-4.25V52.14a4.25,4.25,0,0,0-4.25-4.26L710,47.51a3.15,3.15,0,0,0-.61.06L593.89,72.7a4.26,4.26,0,0,0-3.28,5l10,47.27a4.26,4.26,0,0,0,5,3.28l109.71-23.44A3,3,0,0,1,716,104.8Z"/></g><g id="SPLINE-12" data-name="SPLINE"><path class="cls-1" d="M330.36,125a4.25,4.25,0,0,1-5,3.28l-109-23.43a2.88,2.88,0,0,0-.59-.06l-98-.11a4.26,4.26,0,0,1-4.25-4.26V52.14a4.26,4.26,0,0,1,4.25-4.26l104.49-.12a2.46,2.46,0,0,1,.6.07L337.13,72.71a4.26,4.26,0,0,1,3.28,5.05Z"/></g><path class="cls-1" d="M490.8,387.21l-22.25,4.73a4.25,4.25,0,0,1-5-3.28l-10.05-47.27a4.24,4.24,0,0,1,3.28-5l35.45-7.54L481.7,279.44a.7.7,0,0,0-.83-.53l-8.36,1.77a4.24,4.24,0,0,1-5-3.27l-10.05-47.28a4.25,4.25,0,0,1,3.27-5l21.57-4.58a.7.7,0,0,0,.54-.83l-10.2-48a4.25,4.25,0,0,1,3.28-5l216.5-46v-1a4.25,4.25,0,0,1,4.26-4.25H745a4.25,4.25,0,0,1,4.25,4.25H907a4.26,4.26,0,0,1,4.25,4.25v49a.71.71,0,0,0,.71.71h6.86a4.26,4.26,0,0,1,4.26,4.25v49a.69.69,0,0,0,.69.7h7.16a4.25,4.25,0,0,1,4.25,4.25V280.2a4.26,4.26,0,0,1-4.25,4.26h-49a.71.71,0,0,0-.71.71v49a4.25,4.25,0,0,1-4.25,4.26h-158a.72.72,0,0,0-.7.86l10.25,48.24a4.25,4.25,0,0,1-3.27,5.05L506.19,439.14a4.24,4.24,0,0,1-5-3.27Z"/><circle class="cls-1" cx="864.55" cy="80.61" r="28.42"/></g></g></svg>