<svg xmlns="http://www.w3.org/2000/svg" viewBox="0 0 1052.61 504.11"><defs><style>.cls-1{fill:none;stroke:#000;stroke-linecap:round;stroke-linejoin:round;stroke-width:0.71px;}</style></defs><g id="Layer_2" data-name="Layer 2"><g id="Switch_plate" data-name="Switch plate"><g id="SPLINE"><circle class="cls-1" cx="286.93" cy="437.25" r="3.83"/></g><g id="SPLINE-2" data-name="SPLINE"><circle class="cls-1" cx="655.43" cy="31.54" r="3.83"/></g><g id="SPLINE-3" data-name="SPLINE"><circle class="cls-1" cx="279.67" cy="31.54" r="3.83"/></g><g id="SPLINE-4" data-name="SPLINE"><circle class="cls-1" cx="31.54" cy="424.38" r="3.83"/></g><g id="SPLINE-5" data-name="SPLINE"><circle class="cls-1" cx="1021.07" cy="424.38" r="3.83"/></g><g id="SPLINE-6" data-name="SPLINE"><circle class="cls-1" cx="655.43" cy="437.25" r="3.83"/></g><g id="SPLINE-7" data-name="SPLINE"><circle class="cls-1" cx="31.54" cy="31.54" r="3.83"/></g><g id="SPLINE-8" data-name="SPLINE"><circle class="cls-1" cx="1021.07" cy="31.54" r="3.83"/></g><path class="cls-1" d="M441.1,503.76l-233.75-48.2H23A22.7,22.7,0,0,1,.35,432.89V23A22.71,22.71,0,0,1,23,.35H1029.58A22.71,22.71,0,0,1,1052.26,23V432.89a22.7,22.7,0,0,1-22.68,22.67H735l-233.75,48.2Z"/><path class="cls-1" d="M496.46,218.33a.71.71,0,0,1-.69-.56l-7.9-37.15a.71.71,0,0,1,.55-.84l37.15-7.9h.15a.71.71,0,0,1,.69.56l7.9,37.15a.71.71,0,0,1-.55.84l-37.15,7.9Z"/><path class="cls-1" d="M549.28,207.11a.72.72,0,0,1-.69-.56l-7.9-37.16a.71.71,0,0,1,.1-.53.69.69,0,0,1,.45-.31l37.15-7.9h.15a.71.71,0,0,1,.69.56l7.9,37.15a.73.73,0,0,1-.1.54.65.65,0,0,1-.45.3l-37.15,7.9Z"/><path class="cls-1" d="M548.42,138.28a.71.71,0,0,1-.69-.56l-7.9-37.15a.69.69,0,0,1,.1-.54.7.7,0,0,1,.44-.31l37.16-7.89.15,0a.72.72,0,0,1,.69.56l7.9,37.16a.76.76,0,0,1-.1.53.74.74,0,0,1-.45.31l-37.15,7.9Z"/><path class="cls-1" d="M495.6,149.51a.71.71,0,0,1-.69-.56L487,111.79a.67.67,0,0,1,.1-.53.7.7,0,0,1,.44-.31l37.16-7.9h.15a.72.72,0,0,1,.69.56l7.9,37.15a.78.78,0,0,1-.1.54.69.69,0,0,1-.45.3l-37.15,7.9Z"/><path class="cls-1" d="M394,138.28h-.15l-37.15-7.9a.69.69,0,0,1-.45-.31.67.67,0,0,1-.1-.53L364,92.38a.71.71,0,0,1,.69-.57l.15,0L402,99.73a.77.77,0,0,1,.45.3.73.73,0,0,1,.1.54l-7.9,37.15A.71.71,0,0,1,394,138.28Z"/><path class="cls-1" d="M667.26,113a.72.72,0,0,1-.69-.56l-7.9-37.16a.71.71,0,0,1,.1-.53.74.74,0,0,1,.45-.31l37.15-7.89.15,0a.72.72,0,0,1,.69.56l7.9,37.16a.67.67,0,0,1-.1.53.7.7,0,0,1-.44.31L667.41,113Z"/><rect class="cls-1" x="706.77" y="129.75" width="39.4" height="39.4" rx="0.71"/><path class="cls-1" d="M602.1,195.88a.72.72,0,0,1-.69-.56l-7.9-37.16a.71.71,0,0,1,.1-.53.69.69,0,0,1,.45-.31l37.15-7.89.15,0a.72.72,0,0,1,.69.56l7.9,37.16a.71.71,0,0,1-.1.53.69.69,0,0,1-.45.31l-37.15,7.89A.39.39,0,0,1,602.1,195.88Z"/><path class="cls-1" d="M614.44,124.25a.72.72,0,0,1-.69-.56l-7.9-37.16a.71.71,0,0,1,.55-.84l37.15-7.9h.15a.7.7,0,0,1,.69.56l7.9,37.15a.7.7,0,0,1-.54.84l-37.16,7.9Z"/><path class="cls-1" d="M287.44,184.65h-.15l-37.15-7.9a.74.74,0,0,1-.45-.31.75.75,0,0,1-.1-.53l7.9-37.15a.71.71,0,0,1,.69-.56h.15l37.16,7.9a.71.71,0,0,1,.54.84l-7.9,37.15A.7.7,0,0,1,287.44,184.65Z"/><path class="cls-1" d="M340.26,195.88h-.15L303,188a.74.74,0,0,1-.45-.31.76.76,0,0,1-.1-.53l7.9-37.16a.72.72,0,0,1,.69-.56l.15,0,37.16,7.9a.7.7,0,0,1,.54.84L341,195.32A.71.71,0,0,1,340.26,195.88Z"/><path class="cls-1" d="M393.08,207.11l-.14,0-37.16-7.89a.74.74,0,0,1-.45-.31.71.71,0,0,1-.1-.53l7.9-37.16a.72.72,0,0,1,.69-.56H364l37.16,7.9a.7.7,0,0,1,.44.31.67.67,0,0,1,.1.53l-7.9,37.16A.71.71,0,0,1,393.08,207.11Z"/><path class="cls-1" d="M408.27,265.54h-.15L371,257.63a.7.7,0,0,1-.44-.31.67.67,0,0,1-.1-.53l7.89-37.15a.72.72,0,0,1,.7-.57l.14,0,37.16,7.9a.68.68,0,0,1,.54.84L409,265A.71.71,0,0,1,408.27,265.54Z"/><path class="cls-1" d="M249.81,231.86h-.15L212.5,224a.71.71,0,0,1-.54-.84L219.85,186a.72.72,0,0,1,.7-.56l.14,0,37.16,7.89a.74.74,0,0,1,.45.31.78.78,0,0,1,.1.54l-7.9,37.15A.71.71,0,0,1,249.81,231.86Z"/><rect class="cls-1" x="721.08" y="62.25" width="39.4" height="39.4" rx="0.71"/><path class="cls-1" d="M357.42,309.94h-.14L320.12,302a.71.71,0,0,1-.55-.84l7.9-37.15a.71.71,0,0,1,.69-.57l.15,0,37.16,7.9a.7.7,0,0,1,.54.84l-7.89,37.15A.72.72,0,0,1,357.42,309.94Z"/><path class="cls-1" d="M425.43,379.6h-.15l-37.16-7.9a.71.71,0,0,1-.54-.84l7.89-37.15a.72.72,0,0,1,.7-.57l.14,0,37.16,7.9a.7.7,0,0,1,.55.84L426.12,379A.71.71,0,0,1,425.43,379.6Z"/><path class="cls-1" d="M372.61,368.38l-.15,0-37.16-7.9a.72.72,0,0,1-.44-.3.69.69,0,0,1-.1-.54l7.89-37.15a.71.71,0,0,1,.7-.56h.15l37.15,7.9a.74.74,0,0,1,.45.31.76.76,0,0,1,.1.53l-7.9,37.15A.71.71,0,0,1,372.61,368.38Z"/><path class="cls-1" d="M410.24,321.17l-.14,0-37.16-7.89a.74.74,0,0,1-.45-.31.71.71,0,0,1-.1-.53l7.9-37.16a.72.72,0,0,1,.69-.56l.15,0,37.16,7.89a.7.7,0,0,1,.44.31.67.67,0,0,1,.1.53l-7.89,37.16A.73.73,0,0,1,410.24,321.17Z"/><path class="cls-1" d="M355.45,254.32l-.15,0-37.16-7.9a.71.71,0,0,1-.54-.84l7.89-37.15a.71.71,0,0,1,.7-.56h.15l37.15,7.9a.74.74,0,0,1,.45.31.71.71,0,0,1,.09.53l-7.89,37.15A.71.71,0,0,1,355.45,254.32Z"/><path class="cls-1" d="M639.74,243.09a.72.72,0,0,1-.69-.56l-7.9-37.16a.71.71,0,0,1,.54-.84l37.16-7.9H669a.71.71,0,0,1,.69.56l7.9,37.15a.73.73,0,0,1-.1.54.72.72,0,0,1-.45.3l-37.15,7.9Z"/><path class="cls-1" d="M558.53,315.55a.71.71,0,0,1-.69-.56l-7.9-37.15a.71.71,0,0,1,.55-.84l37.15-7.9h.15a.71.71,0,0,1,.69.56l7.9,37.15a.71.71,0,0,1-.1.53.69.69,0,0,1-.45.31l-37.15,7.9Z"/><rect class="cls-1" x="799.58" y="188.01" width="39.4" height="39.4" rx="0.71"/><rect class="cls-1" x="760.77" y="134.01" width="39.4" height="39.4" rx="0.71"/><rect class="cls-1" x="775.08" y="62.25" width="39.4" height="39.4" rx="0.71"/><rect class="cls-1" x="850.52" y="66.51" width="39.4" height="39.4" rx="0.71"/><rect class="cls-1" x="936.27" y="120.51" width="39.4" height="39.4" rx="0.71"/><rect class="cls-1" x="924.36" y="66.51" width="39.4" height="39.4" rx="0.71"/><rect class="cls-1" x="867.1" y="188.01" width="39.4" height="39.4" rx="0.71"/><path class="cls-1" d="M654.92,184.65a.71.71,0,0,1-.69-.56l-7.9-37.15a.73.73,0,0,1,.1-.54.65.65,0,0,1,.45-.3L684,138.2l.15,0a.72.72,0,0,1,.69.56l7.9,37.16a.71.71,0,0,1-.55.84l-37.15,7.9Z"/><path class="cls-1" d="M534.1,265.54a.72.72,0,0,1-.69-.56l-7.9-37.15a.69.69,0,0,1,.1-.54.7.7,0,0,1,.44-.31l37.16-7.89.15,0a.72.72,0,0,1,.69.56l7.9,37.16a.71.71,0,0,1-.1.53.69.69,0,0,1-.45.31l-37.15,7.9Z"/><path class="cls-1" d="M664.17,293.1a.72.72,0,0,1-.69-.56l-7.9-37.16a.71.71,0,0,1,.1-.53.69.69,0,0,1,.45-.31l37.15-7.89.15,0a.72.72,0,0,1,.69.56l7.9,37.16a.71.71,0,0,1-.1.53.69.69,0,0,1-.45.31l-37.15,7.89Z"/><rect class="cls-1" x="717.2" y="242.01" width="39.4" height="39.4" rx="0.71"/><rect class="cls-1" x="745.58" y="188.01" width="39.4" height="39.4" rx="0.71"/><path class="cls-1" d="M692.56,231.86a.72.72,0,0,1-.69-.56L684,194.14a.67.67,0,0,1,.1-.53.7.7,0,0,1,.44-.31l37.16-7.89a.39.39,0,0,1,.15,0,.72.72,0,0,1,.69.56l7.9,37.16a.71.71,0,0,1-.55.84l-37.15,7.89Z"/><path class="cls-1" d="M586.92,254.31a.71.71,0,0,1-.69-.56l-7.9-37.15a.73.73,0,0,1,.1-.54.68.68,0,0,1,.45-.3l37.15-7.9.15,0a.71.71,0,0,1,.69.57l7.9,37.15a.7.7,0,0,1-.1.53.72.72,0,0,1-.45.31l-37.15,7.9Z"/><path class="cls-1" d="M583,365.57a.72.72,0,0,1-.69-.56l-7.9-37.16a.71.71,0,0,1,.55-.84l37.15-7.9h.15a.71.71,0,0,1,.69.56l7.9,37.15a.69.69,0,0,1-.1.54.65.65,0,0,1-.44.3l-37.16,7.9Z"/><path class="cls-1" d="M302.63,243.09l-.15,0-37.16-7.89a.7.7,0,0,1-.44-.31.69.69,0,0,1-.1-.54l7.89-37.15a.72.72,0,0,1,.7-.56h.14l37.16,7.9a.74.74,0,0,1,.45.31.71.71,0,0,1,.09.53l-7.89,37.16A.72.72,0,0,1,302.63,243.09Z"/><path class="cls-1" d="M611.35,304.33a.72.72,0,0,1-.69-.56l-7.9-37.16a.71.71,0,0,1,.1-.53.69.69,0,0,1,.45-.31l37.15-7.9h.15a.71.71,0,0,1,.69.56l7.9,37.15a.73.73,0,0,1-.1.54.65.65,0,0,1-.45.3l-37.15,7.9Z"/><path class="cls-1" d="M319.79,357.15l-.15,0-37.16-7.89a.7.7,0,0,1-.44-.31.67.67,0,0,1-.1-.53l7.89-37.16a.72.72,0,0,1,.7-.56.39.39,0,0,1,.15,0l37.15,7.89a.74.74,0,0,1,.45.31.76.76,0,0,1,.1.53l-7.9,37.16A.72.72,0,0,1,319.79,357.15Z"/><path class="cls-1" d="M530.14,376.79a.71.71,0,0,1-.69-.56l-7.9-37.15a.71.71,0,0,1,.55-.84l37.15-7.9h.15a.71.71,0,0,1,.69.56L568,368a.67.67,0,0,1-.1.53.7.7,0,0,1-.44.31l-37.16,7.9Z"/><rect class="cls-1" x="744.2" y="296.01" width="39.4" height="39.4" rx="0.71"/><path class="cls-1" d="M673.42,401.55a.71.71,0,0,1-.69-.57l-7.9-37.15a.71.71,0,0,1,.55-.84l37.15-7.9h.15a.71.71,0,0,1,.69.56l7.9,37.15a.73.73,0,0,1-.1.54.7.7,0,0,1-.45.3l-37.15,7.9Z"/><path class="cls-1" d="M688.6,343.11a.71.71,0,0,1-.69-.56L680,305.4a.73.73,0,0,1,.1-.54.74.74,0,0,1,.45-.3l37.15-7.9.15,0a.72.72,0,0,1,.69.56l7.9,37.16a.67.67,0,0,1-.1.53.7.7,0,0,1-.44.31l-37.16,7.9Z"/><path class="cls-1" d="M635.78,354.34a.72.72,0,0,1-.69-.56l-7.9-37.16a.71.71,0,0,1,.1-.53.74.74,0,0,1,.45-.31l37.15-7.89.15,0a.72.72,0,0,1,.69.56l7.9,37.16a.71.71,0,0,1-.1.53.7.7,0,0,1-.44.31l-37.16,7.89Z"/><path class="cls-1" d="M304.6,298.72l-.15,0-37.15-7.9a.7.7,0,0,1-.55-.84l7.9-37.15a.71.71,0,0,1,.69-.56h.15l37.16,7.9a.7.7,0,0,1,.44.31.66.66,0,0,1,.1.53l-7.9,37.15A.7.7,0,0,1,304.6,298.72Z"/><path class="cls-1" d="M446.77,149.51h-.15l-37.16-7.9a.71.71,0,0,1-.54-.84l7.9-37.16a.71.71,0,0,1,.69-.56l.15,0L454.81,111a.71.71,0,0,1,.55.84L447.46,149A.72.72,0,0,1,446.77,149.51Z"/><path class="cls-1" d="M440.61,438l-.15,0-37.15-7.9a.65.65,0,0,1-.45-.3.73.73,0,0,1-.1-.54l7.9-37.15a.71.71,0,0,1,.69-.56h.15l37.15,7.9a.69.69,0,0,1,.45.31.71.71,0,0,1,.1.53l-7.9,37.15A.71.71,0,0,1,440.61,438Z"/><path class="cls-1" d="M481.28,276.77a.71.71,0,0,1-.69-.56l-7.9-37.16a.67.67,0,0,1,.1-.53.7.7,0,0,1,.44-.31l37.16-7.9h.15a.71.71,0,0,1,.69.56l7.9,37.15a.73.73,0,0,1-.1.54.72.72,0,0,1-.45.31l-37.15,7.89Z"/><path class="cls-1" d="M505.71,326.78a.72.72,0,0,1-.69-.56l-7.9-37.15a.73.73,0,0,1,.1-.54.65.65,0,0,1,.45-.3l37.15-7.9.15,0a.72.72,0,0,1,.69.56l7.9,37.16a.71.71,0,0,1-.1.53.69.69,0,0,1-.45.31l-37.15,7.9Z"/><rect class="cls-1" x="948.1" y="174.51" width="39.4" height="39.4" rx="0.71"/><rect class="cls-1" x="771.2" y="242.01" width="39.4" height="39.4" rx="0.71"/><rect class="cls-1" x="960.2" y="228.51" width="39.4" height="39.4" rx="0.71"/><rect class="cls-1" x="906.2" y="309.51" width="39.4" height="39.4" rx="0.71"/><rect class="cls-1" x="960.2" y="363.51" width="39.4" height="39.4" rx="0.71"/><rect class="cls-1" x="818.45" y="296.01" width="39.4" height="39.4" rx="0.71"/><rect class="cls-1" x="852.2" y="363.51" width="39.4" height="39.4" rx="0.71"/><rect class="cls-1" x="906.2" y="363.51" width="39.4" height="39.4" rx="0.71"/><path class="cls-1" d="M445.9,218.34l-.14,0-37.16-7.9a.73.73,0,0,1-.45-.3.78.78,0,0,1-.1-.54l7.9-37.15a.71.71,0,0,1,.69-.56h.15l37.16,7.9a.7.7,0,0,1,.44.31.67.67,0,0,1,.1.53l-7.9,37.15A.71.71,0,0,1,445.9,218.34Z"/><rect class="cls-1" x="127.85" y="62.25" width="39.4" height="39.4" rx="0.71"/><rect class="cls-1" x="89.87" y="188.01" width="39.4" height="39.4" rx="0.71"/><rect class="cls-1" x="71.59" y="242.01" width="52.9" height="39.4" rx="0.71"/><rect class="cls-1" x="142.16" y="134.01" width="39.4" height="39.4" rx="0.71"/><rect class="cls-1" x="181.85" y="62.25" width="39.4" height="39.4" rx="0.71"/><path class="cls-1" d="M327.92,124.25l-.15,0-37.15-7.89a.69.69,0,0,1-.45-.31.71.71,0,0,1-.1-.53L298,78.34a.72.72,0,0,1,.69-.56l.15,0L336,85.69a.71.71,0,0,1,.55.84l-7.9,37.16A.72.72,0,0,1,327.92,124.25Z"/><path class="cls-1" d="M275.1,113H275l-37.15-7.9a.71.71,0,0,1-.55-.84l7.9-37.16a.72.72,0,0,1,.69-.56l.15,0,37.15,7.9a.65.65,0,0,1,.45.3.73.73,0,0,1,.1.54l-7.9,37.15A.71.71,0,0,1,275.1,113Z"/><rect class="cls-1" x="196.16" y="129.75" width="39.4" height="39.4" rx="0.71"/><rect class="cls-1" x="88.16" y="134.01" width="39.4" height="39.4" rx="0.71"/><path class="cls-1" d="M267,345.92h-.15L229.66,338a.7.7,0,0,1-.44-.31.67.67,0,0,1-.1-.53L237,300a.73.73,0,0,1,.7-.56l.14,0,37.16,7.9a.71.71,0,0,1,.55.84l-7.9,37.15A.71.71,0,0,1,267,345.92Z"/><path class="cls-1" d="M251.78,287.49l-.14,0-37.16-7.89a.74.74,0,0,1-.45-.31.78.78,0,0,1-.1-.54l7.9-37.15a.72.72,0,0,1,.69-.56h.15l37.16,7.9a.7.7,0,0,1,.44.31.67.67,0,0,1,.1.53l-7.89,37.16A.73.73,0,0,1,251.78,287.49Z"/><path class="cls-1" d="M268.94,401.55l-.15,0-37.15-7.9a.69.69,0,0,1-.45-.3.73.73,0,0,1-.09-.54L239,355.64a.71.71,0,0,1,.69-.56.39.39,0,0,1,.15,0L277,363a.71.71,0,0,1,.54.84L269.64,401A.72.72,0,0,1,268.94,401.55Z"/><rect class="cls-1" x="174.51" y="296.01" width="39.4" height="39.4" rx="0.71"/><rect class="cls-1" x="159.34" y="242.01" width="39.4" height="39.4" rx="0.71"/><rect class="cls-1" x="59.92" y="66.51" width="39.4" height="39.4" rx="0.71"/><path class="cls-1" d="M63.55,344.92a.71.71,0,0,1-.71-.71V288a.71.71,0,0,1,.71-.71H81.69a.71.71,0,0,1,.71.71v47.3a.42.42,0,0,0,.42.42h3.51a.42.42,0,0,0,.43-.42V296.72a.71.71,0,0,1,.71-.71h38a.71.71,0,0,1,.71.71v38.55a.42.42,0,0,0,.42.42h3.51a.42.42,0,0,0,.43-.42V288a.71.71,0,0,1,.71-.71h18.14a.71.71,0,0,1,.71.71v56.24a.71.71,0,0,1-.71.71Z"/><rect class="cls-1" x="66.54" y="350.01" width="39.4" height="39.4" rx="0.71"/><rect class="cls-1" x="157.36" y="188.01" width="39.4" height="39.4" rx="0.71"/><path class="cls-1" d="M477.32,388a.71.71,0,0,1-.69-.56l-7.9-37.15a.73.73,0,0,1,.1-.54.65.65,0,0,1,.45-.3l37.15-7.9.15,0a.72.72,0,0,1,.69.56l7.9,37.16a.71.71,0,0,1-.1.53.7.7,0,0,1-.44.31L477.47,388Z"/><path class="cls-1" d="M818.56,182.92a.71.71,0,0,1-.71-.71V126a.71.71,0,0,1,.71-.71H836.7a.71.71,0,0,1,.71.71v47.3a.42.42,0,0,0,.43.42h3.5a.42.42,0,0,0,.43-.42V134.72a.71.71,0,0,1,.71-.71h38a.71.71,0,0,1,.71.71v38.55a.42.42,0,0,0,.43.42h3.51a.42.42,0,0,0,.42-.42V126a.71.71,0,0,1,.71-.71h18.14a.71.71,0,0,1,.71.71v56.24a.71.71,0,0,1-.71.71Z"/><path class="cls-1" d="M903.42,290.15a.7.7,0,0,1-.71-.7v-47.3a.42.42,0,0,0-.42-.42h-3.51a.42.42,0,0,0-.43.42V280.7a.71.71,0,0,1-.71.71h-38a.71.71,0,0,1-.71-.71V242.15a.42.42,0,0,0-.42-.42H855a.42.42,0,0,0-.43.42v47.3a.7.7,0,0,1-.71.7H835.74a.7.7,0,0,1-.71-.7V233.21a.71.71,0,0,1,.71-.71h85.82a.71.71,0,0,1,.71.71v56.24a.7.7,0,0,1-.71.7Z"/><path class="cls-1" d="M539.6,438.93a.71.71,0,0,1-.69-.56l-11.7-55a.71.71,0,0,1,.55-.84l84-17.84.14,0a.72.72,0,0,1,.7.56l11.69,55a.71.71,0,0,1-.55.84L606,424.84l-.15,0a.72.72,0,0,1-.69-.56L595.27,378a.42.42,0,0,0-.41-.34l-3.52.74a.42.42,0,0,0-.33.5l8,37.71a.71.71,0,0,1-.55.84l-37.15,7.9-.15,0a.71.71,0,0,1-.69-.57l-8-37.7a.43.43,0,0,0-.42-.34l-3.52.74a.45.45,0,0,0-.27.18.4.4,0,0,0,0,.32L558,434.3a.73.73,0,0,1-.1.54.68.68,0,0,1-.45.3l-17.74,3.78Z"/><path class="cls-1" d="M383,434.72h-.15l-17.75-3.78a.7.7,0,0,1-.54-.84l9.83-46.26a.42.42,0,0,0-.33-.5l-3.43-.73h0a.43.43,0,0,0-.47.33l-8,37.7a.71.71,0,0,1-.69.57l-.15,0-37.15-7.9a.7.7,0,0,1-.55-.84l8-37.71a.42.42,0,0,0-.33-.5l-3.43-.73h0a.44.44,0,0,0-.48.33l-9.83,46.26a.72.72,0,0,1-.69.56h-.15l-17.75-3.78a.7.7,0,0,1-.54-.84L310,361a.72.72,0,0,1,.69-.56l.15,0,83.95,17.84a.71.71,0,0,1,.54.84l-11.69,55A.71.71,0,0,1,383,434.72Z"/></g></g></svg>