<svg xmlns="http://www.w3.org/2000/svg" viewBox="0 0 1041.27 492.77"><defs><style>.cls-1{fill:none;stroke:#000;stroke-linecap:round;stroke-linejoin:round;stroke-width:0.71px;}</style></defs><g id="Layer_2" data-name="Layer 2"><g id="Bottom_3" data-name="Bottom 3"><g id="LINE"><path class="cls-1" d="M34.05,418a.71.71,0,0,1,0,1.42.68.68,0,0,1-.35-.1l-3.39,5.88a.69.69,0,0,1,.36.6.71.71,0,0,1-1.42,0H22.48a.71.71,0,1,1-1.41,0,.67.67,0,0,1,.36-.6L18,419.32a.68.68,0,0,1-.35.1.71.71,0,1,1,0-1.42.69.69,0,0,1,.35.11l3.4-5.88a.67.67,0,0,1-.36-.6.71.71,0,1,1,1.41,0h6.77a.71.71,0,0,1,1.42,0,.69.69,0,0,1-.36.6l3.39,5.88A.69.69,0,0,1,34.05,418Z"/></g><g id="SPLINE"><path class="cls-1" d="M289.37,432.87a.63.63,0,0,0-.36,0l-1.87-6.53a.69.69,0,0,0,.49-.5.7.7,0,0,0-.51-.86.71.71,0,0,0-.86.52l-6.57-1.64a.7.7,0,0,0-.51-.86.71.71,0,0,0-.86.52.67.67,0,0,0,.2.67l-4.72,4.89a.58.58,0,0,0-.31-.19.71.71,0,1,0-.34,1.38.73.73,0,0,0,.36,0l1.87,6.52a.71.71,0,0,0-.49.5.71.71,0,1,0,1.37.35l6.57,1.63a.71.71,0,1,0,1.37.35.68.68,0,0,0-.2-.68l4.72-4.88a.74.74,0,0,0,.31.19.71.71,0,0,0,.34-1.38Z"/></g><g id="SPLINE-2" data-name="SPLINE"><path class="cls-1" d="M644.77,425.52l6.56-1.64a.71.71,0,0,1,1.38-.34.7.7,0,0,1-.21.67l4.72,4.89a.67.67,0,0,1,.31-.19.71.71,0,0,1,.35,1.38.77.77,0,0,1-.37,0l-1.87,6.52a.7.7,0,0,1,0,1.36.7.7,0,0,1-.86-.51l-6.56,1.63a.71.71,0,0,1-.52.86.7.7,0,0,1-.86-.51.73.73,0,0,1,.2-.68l-4.71-4.88a.89.89,0,0,1-.31.19.71.71,0,0,1-.86-.52.7.7,0,0,1,.51-.86.66.66,0,0,1,.37,0l1.87-6.53a.7.7,0,0,1-.5-.5.71.71,0,0,1,1.38-.34Z"/></g><g id="SPLINE-3" data-name="SPLINE"><path class="cls-1" d="M1018.79,425.8H1012a.71.71,0,0,1-1.42,0,.68.68,0,0,1,.37-.6l-3.4-5.88a.68.68,0,0,1-.35.1.71.71,0,1,1,0-1.42.69.69,0,0,1,.35.11l3.4-5.88a.68.68,0,0,1-.37-.6.71.71,0,0,1,1.42,0h6.77a.71.71,0,0,1,1.42,0,.69.69,0,0,1-.36.6l3.39,5.88a.69.69,0,0,1,.35-.11.71.71,0,0,1,0,1.42.68.68,0,0,1-.35-.1l-3.39,5.88a.69.69,0,0,1,.36.6.71.71,0,1,1-1.42,0Z"/></g><g id="SPLINE-4" data-name="SPLINE"><path class="cls-1" d="M270.61,33h6.77a.71.71,0,0,0,1.42,0,.69.69,0,0,0-.36-.6l3.39-5.88a.71.71,0,1,0,0-1.21l-3.39-5.88a.69.69,0,0,0,.36-.6.71.71,0,1,0-1.42,0h-6.77a.71.71,0,1,0-1.41,0,.69.69,0,0,0,.36.6l-3.4,5.88a.68.68,0,0,0-.35-.1.71.71,0,0,0,0,1.41.68.68,0,0,0,.35-.1l3.4,5.88a.69.69,0,0,0-.36.6.71.71,0,1,0,1.41,0Z"/></g><g id="LINE-2" data-name="LINE"><path class="cls-1" d="M30.31,32.35a.69.69,0,0,1,.36.6.71.71,0,1,1-1.42,0H22.48a.71.71,0,1,1-1.41,0,.67.67,0,0,1,.36-.6L18,26.47a.68.68,0,0,1-.35.1.71.71,0,1,1,0-1.41.68.68,0,0,1,.35.1l3.4-5.88a.67.67,0,0,1-.36-.6.71.71,0,1,1,1.41,0h6.77a.71.71,0,0,1,1.42,0,.69.69,0,0,1-.36.6l3.39,5.88a.68.68,0,0,1,.35-.1.71.71,0,1,1,0,1.41.68.68,0,0,1-.35-.1Z"/></g><g id="LINE-3" data-name="LINE"><path class="cls-1" d="M654.2,19.38l3.4,5.88a.68.68,0,0,1,.35-.1.71.71,0,1,1,0,1.41.68.68,0,0,1-.35-.1l-3.4,5.88a.67.67,0,0,1,.36.6.71.71,0,1,1-1.41,0h-6.77A.71.71,0,1,1,645,33a.69.69,0,0,1,.36-.6l-3.39-5.88a.68.68,0,0,1-.35.1.71.71,0,1,1,0-1.41.68.68,0,0,1,.35.1l3.39-5.88a.69.69,0,0,1-.36-.6.71.71,0,0,1,1.42,0h6.77a.71.71,0,1,1,1.41,0A.67.67,0,0,1,654.2,19.38Z"/></g><g id="SPLINE-5" data-name="SPLINE"><path class="cls-1" d="M1018.79,18.78H1012a.71.71,0,0,0-1.42,0,.68.68,0,0,0,.37.6l-3.4,5.88a.68.68,0,0,0-.35-.1.71.71,0,1,0,0,1.41.68.68,0,0,0,.35-.1l3.4,5.88a.68.68,0,0,0-.37.6.71.71,0,0,0,1.42,0h6.77a.71.71,0,1,0,1.42,0,.69.69,0,0,0-.36-.6l3.39-5.88a.68.68,0,0,0,.35.1.71.71,0,1,0,0-1.41.68.68,0,0,0-.35.1l-3.39-5.88a.69.69,0,0,0,.36-.6.71.71,0,1,0-1.42,0Z"/></g><path class="cls-1" d="M448.5.35V38.62H44.28a5.67,5.67,0,0,0-5.67,5.67v356A5.67,5.67,0,0,0,44.28,406H226.09l211.08,41.16h56.69L704.93,406H997a5.67,5.67,0,0,0,5.67-5.67v-356A5.67,5.67,0,0,0,997,38.62H482.52V.35h541.39a17,17,0,0,1,17,17V427.22a17,17,0,0,1-17,17H728.76L495,492.42H436l-233.75-48.2H17.36a17,17,0,0,1-17-17V17.36a17,17,0,0,1,17-17Z"/></g></g></svg>