<svg xmlns="http://www.w3.org/2000/svg" viewBox="0 0 1029.93 481.44"><defs><style>.cls-1{fill:none;stroke:#000;stroke-linecap:round;stroke-linejoin:round;stroke-width:0.71px;}</style></defs><g id="Layer_2" data-name="Layer 2"><g id="Bottom_2" data-name="Bottom 2"><g id="LINE"><path class="cls-1" d="M28.38,412.33a.71.71,0,1,1-.35,1.32l-3.39,5.88a.69.69,0,0,1,.36.6.71.71,0,0,1-1.42,0H16.81a.71.71,0,1,1-1.41,0,.69.69,0,0,1,.36-.6l-3.4-5.88a.68.68,0,0,1-.35.1.71.71,0,0,1,0-1.42.69.69,0,0,1,.35.11l3.4-5.88a.69.69,0,0,1-.36-.6.71.71,0,1,1,1.41,0h6.77A.71.71,0,0,1,25,406a.69.69,0,0,1-.36.6L28,412.44A.72.72,0,0,1,28.38,412.33Z"/></g><g id="SPLINE"><path class="cls-1" d="M283.7,427.2a.73.73,0,0,0-.36,0l-1.87-6.53a.67.67,0,0,0,.49-.5.69.69,0,0,0-.51-.85.7.7,0,0,0-.86.51L274,418.21a.71.71,0,0,0-1.37-.34.69.69,0,0,0,.2.67l-4.71,4.89a.65.65,0,0,0-.32-.19.71.71,0,1,0,0,1.36l1.87,6.53a.68.68,0,0,0-.49.49.71.71,0,0,0,.52.86.69.69,0,0,0,.85-.51l6.57,1.63a.71.71,0,0,0,.52.86.69.69,0,0,0,.85-.51.68.68,0,0,0-.2-.68l4.72-4.88a.65.65,0,0,0,.31.19.71.71,0,0,0,.34-1.38Z"/></g><g id="SPLINE-2" data-name="SPLINE"><path class="cls-1" d="M639.1,419.85l6.56-1.64a.71.71,0,0,1,1.38-.34.69.69,0,0,1-.21.67l4.72,4.89a.67.67,0,0,1,.31-.19.71.71,0,0,1,.86.52.7.7,0,0,1-.51.86.77.77,0,0,1-.37,0L650,431.13a.69.69,0,0,1,.5.49.71.71,0,0,1-.52.86.7.7,0,0,1-.86-.51l-6.56,1.63a.71.71,0,0,1-.52.86.7.7,0,0,1-.65-1.19l-4.72-4.88a.77.77,0,0,1-.31.19.71.71,0,0,1-.86-.52.7.7,0,0,1,.51-.86.77.77,0,0,1,.37,0l1.87-6.53a.69.69,0,0,1-.5-.5.71.71,0,0,1,1.38-.34Z"/></g><g id="SPLINE-3" data-name="SPLINE"><path class="cls-1" d="M1013.12,420.13h-6.77a.71.71,0,1,1-1.41,0,.67.67,0,0,1,.36-.6l-3.4-5.88a.68.68,0,0,1-.35.1.71.71,0,1,1,0-1.42.69.69,0,0,1,.35.11l3.4-5.88a.67.67,0,0,1-.36-.6.71.71,0,1,1,1.41,0h6.77a.71.71,0,1,1,1.42,0,.69.69,0,0,1-.36.6l3.39,5.88a.69.69,0,0,1,.35-.11.71.71,0,0,1,0,1.42.68.68,0,0,1-.35-.1l-3.39,5.88a.69.69,0,0,1,.36.6.71.71,0,1,1-1.42,0Z"/></g><g id="SPLINE-4" data-name="SPLINE"><path class="cls-1" d="M264.94,27.28h6.77a.71.71,0,0,0,1.42,0,.69.69,0,0,0-.36-.6l3.39-5.88a.72.72,0,0,0,.35.11.71.71,0,1,0-.35-1.32l-3.39-5.88a.69.69,0,0,0,.36-.6.71.71,0,1,0-1.42,0h-6.77a.71.71,0,1,0-1.41,0,.69.69,0,0,0,.36.6l-3.4,5.88a.68.68,0,0,0-.35-.1.71.71,0,0,0,0,1.42.69.69,0,0,0,.35-.11l3.4,5.88a.7.7,0,1,0,1.05.6Z"/></g><g id="LINE-2" data-name="LINE"><path class="cls-1" d="M24.64,26.68a.69.69,0,0,1,.36.6.71.71,0,0,1-1.42,0H16.81a.71.71,0,1,1-1-.6l-3.4-5.88a.69.69,0,0,1-.35.11.71.71,0,0,1,0-1.42.68.68,0,0,1,.35.1l3.4-5.88a.69.69,0,0,1-.36-.6.71.71,0,1,1,1.41,0h6.77a.71.71,0,0,1,1.42,0,.69.69,0,0,1-.36.6L28,19.59a.71.71,0,1,1,.35,1.32A.72.72,0,0,1,28,20.8Z"/></g><g id="LINE-3" data-name="LINE"><path class="cls-1" d="M648.54,13.71l3.39,5.88a.68.68,0,0,1,.35-.1.71.71,0,1,1,0,1.42.69.69,0,0,1-.35-.11l-3.39,5.88a.69.69,0,0,1,.36.6.71.71,0,1,1-1.42,0h-6.77a.71.71,0,0,1-1.42,0,.69.69,0,0,1,.36-.6l-3.39-5.88a.69.69,0,0,1-.35.11.71.71,0,0,1,0-1.42.68.68,0,0,1,.35.1l3.39-5.88a.69.69,0,0,1-.36-.6.71.71,0,0,1,1.42,0h6.77a.71.71,0,1,1,1.42,0A.69.69,0,0,1,648.54,13.71Z"/></g><path class="cls-1" d="M476.85.35V33H991.32A5.67,5.67,0,0,1,997,38.62v356a5.68,5.68,0,0,1-5.67,5.67H699.26L488.19,441.44H431.5L220.42,400.28H38.62A5.67,5.67,0,0,1,33,394.61v-356A5.66,5.66,0,0,1,38.61,33H442.84V.35H11.69A11.36,11.36,0,0,0,.35,11.69V421.55a11.35,11.35,0,0,0,11.34,11.34H197.17l233.75,48.19h57.85l233.75-48.19h295.72a11.36,11.36,0,0,0,11.34-11.34V11.69A11.36,11.36,0,0,0,1018.24.35H476.85Z"/><g id="SPLINE-5" data-name="SPLINE"><path class="cls-1" d="M1013.12,13.11h-6.77a.71.71,0,1,0-1.41,0,.67.67,0,0,0,.36.6l-3.4,5.88a.68.68,0,0,0-.35-.1.71.71,0,0,0,0,1.42.69.69,0,0,0,.35-.11l3.4,5.88a.67.67,0,0,0-.36.6.71.71,0,1,0,1.41,0h6.77a.71.71,0,1,0,1.42,0,.69.69,0,0,0-.36-.6l3.39-5.88a.69.69,0,0,0,.35.11.71.71,0,1,0,0-1.42.68.68,0,0,0-.35.1l-3.39-5.88a.69.69,0,0,0,.36-.6.71.71,0,1,0-1.42,0Z"/></g></g></g></svg>