<svg xmlns="http://www.w3.org/2000/svg" viewBox="0 0 1018.59 470.1"><defs><style>.cls-1{fill:none;stroke:#000;stroke-linecap:round;stroke-linejoin:round;stroke-width:0.71px;}</style></defs><g id="Layer_2" data-name="Layer 2"><g id="Bottom_1" data-name="Bottom 1"><g id="SPLINE"><circle class="cls-1" cx="638.43" cy="420.24" r="3.83"/></g><g id="SPLINE-2" data-name="SPLINE"><circle class="cls-1" cx="14.53" cy="14.53" r="3.83"/></g><g id="SPLINE-3" data-name="SPLINE"><circle class="cls-1" cx="1004.07" cy="14.53" r="3.83"/></g><g id="SPLINE-4" data-name="SPLINE"><circle class="cls-1" cx="638.43" cy="14.53" r="3.83"/></g><g id="SPLINE-5" data-name="SPLINE"><circle class="cls-1" cx="14.53" cy="407.37" r="3.83"/></g><g id="SPLINE-6" data-name="SPLINE"><circle class="cls-1" cx="262.66" cy="14.53" r="3.83"/></g><g id="SPLINE-7" data-name="SPLINE"><circle class="cls-1" cx="1004.07" cy="407.37" r="3.83"/></g><g id="SPLINE-8" data-name="SPLINE"><path class="cls-1" d="M716.27,421.55h296.3a5.67,5.67,0,0,0,5.67-5.67V6a5.67,5.67,0,0,0-5.67-5.67H471.18V48.54h-34V.35H6A5.67,5.67,0,0,0,.35,6V415.88A5.67,5.67,0,0,0,6,421.55H192.08l233.75,48.19h56.69Z"/></g><g id="SPLINE-9" data-name="SPLINE"><circle class="cls-1" cx="269.92" cy="420.24" r="3.83"/></g></g></g></svg>