  0
SECTION
  2
HEADER
  9
$ACADVER
  1
AC1032
  9
$ACADMAINTVER
 90
      141
  9
$DWGCODEPAGE
  3
ANSI_1252
  9
$REQUIREDVERSIONS
160
                 0
  9
$INSBASE
 10
0.0
 20
0.0
 30
0.0
  9
$EXTMIN
 10
1.000000000000000E+20
 20
1.000000000000000E+20
 30
1.000000000000000E+20
  9
$EXTMAX
 10
-1.000000000000000E+20
 20
-1.000000000000000E+20
 30
-1.000000000000000E+20
  9
$LIMMIN
 10
0.0
 20
0.0
  9
$LIMMAX
 10
12.0
 20
9.0
  9
$ORTHOMODE
 70
     0
  9
$REGENMODE
 70
     1
  9
$FILLMODE
 70
     1
  9
$QTEXTMODE
 70
     0
  9
$MIRRTEXT
 70
     0
  9
$LTSCALE
 40
1.0
  9
$ATTMODE
 70
     1
  9
$TEXTSIZE
 40
0.2
  9
$TRACEWID
 40
0.05
  9
$TEXTSTYLE
  7
Standard
  9
$CLAYER
  8
0
  9
$CELTYPE
  6
ByLayer
  9
$CECOLOR
 62
   256
  9
$CELTSCALE
 40
1.0
  9
$DISPSILH
 70
     0
  9
$DIMSCALE
 40
1.0
  9
$DIMASZ
 40
0.18
  9
$DIMEXO
 40
0.0625
  9
$DIMDLI
 40
0.38
  9
$DIMRND
 40
0.0
  9
$DIMDLE
 40
0.0
  9
$DIMEXE
 40
0.18
  9
$DIMTP
 40
0.0
  9
$DIMTM
 40
0.0
  9
$DIMTXT
 40
0.18
  9
$DIMCEN
 40
0.09
  9
$DIMTSZ
 40
0.0
  9
$DIMTOL
 70
     0
  9
$DIMLIM
 70
     0
  9
$DIMTIH
 70
     1
  9
$DIMTOH
 70
     1
  9
$DIMSE1
 70
     0
  9
$DIMSE2
 70
     0
  9
$DIMTAD
 70
     0
  9
$DIMZIN
 70
     0
  9
$DIMBLK
  1

  9
$DIMASO
 70
     1
  9
$DIMSHO
 70
     1
  9
$DIMPOST
  1

  9
$DIMAPOST
  1

  9
$DIMALT
 70
     0
  9
$DIMALTD
 70
     2
  9
$DIMALTF
 40
25.4
  9
$DIMLFAC
 40
1.0
  9
$DIMTOFL
 70
     0
  9
$DIMTVP
 40
0.0
  9
$DIMTIX
 70
     0
  9
$DIMSOXD
 70
     0
  9
$DIMSAH
 70
     0
  9
$DIMBLK1
  1

  9
$DIMBLK2
  1

  9
$DIMSTYLE
  2
Standard
  9
$DIMCLRD
 70
     0
  9
$DIMCLRE
 70
     0
  9
$DIMCLRT
 70
     0
  9
$DIMTFAC
 40
1.0
  9
$DIMGAP
 40
0.09
  9
$DIMJUST
 70
     0
  9
$DIMSD1
 70
     0
  9
$DIMSD2
 70
     0
  9
$DIMTOLJ
 70
     1
  9
$DIMTZIN
 70
     0
  9
$DIMALTZ
 70
     0
  9
$DIMALTTZ
 70
     0
  9
$DIMUPT
 70
     0
  9
$DIMDEC
 70
     4
  9
$DIMTDEC
 70
     4
  9
$DIMALTU
 70
     2
  9
$DIMALTTD
 70
     2
  9
$DIMTXSTY
  7
Standard
  9
$DIMAUNIT
 70
     0
  9
$DIMADEC
 70
     0
  9
$DIMALTRND
 40
0.0
  9
$DIMAZIN
 70
     0
  9
$DIMDSEP
 70
    46
  9
$DIMATFIT
 70
     3
  9
$DIMFRAC
 70
     0
  9
$DIMLDRBLK
  1

  9
$DIMLUNIT
 70
     2
  9
$DIMLWD
 70
    -2
  9
$DIMLWE
 70
    -2
  9
$DIMTMOVE
 70
     0
  9
$DIMFXL
 40
1.0
  9
$DIMFXLON
 70
     0
  9
$DIMJOGANG
 40
0.7853981633974483
  9
$DIMTFILL
 70
     0
  9
$DIMTFILLCLR
 70
     0
  9
$DIMARCSYM
 70
     0
  9
$DIMLTYPE
  6

  9
$DIMLTEX1
  6

  9
$DIMLTEX2
  6

  9
$DIMTXTDIRECTION
 70
     0
  9
$LUNITS
 70
     2
  9
$LUPREC
 70
     4
  9
$SKETCHINC
 40
0.1
  9
$FILLETRAD
 40
0.0
  9
$AUNITS
 70
     0
  9
$AUPREC
 70
     0
  9
$MENU
  1
.
  9
$ELEVATION
 40
0.0
  9
$PELEVATION
 40
0.0
  9
$THICKNESS
 40
0.0
  9
$LIMCHECK
 70
     0
  9
$CHAMFERA
 40
0.0
  9
$CHAMFERB
 40
0.0
  9
$CHAMFERC
 40
0.0
  9
$CHAMFERD
 40
0.0
  9
$SKPOLY
 70
     0
  9
$TDCREATE
 40
2459606.843136574
  9
$TDUCREATE
 40
2459607.176469908
  9
$TDUPDATE
 40
2459606.843136574
  9
$TDUUPDATE
 40
2459607.176469908
  9
$TDINDWG
 40
0.0000000000
  9
$TDUSRTIMER
 40
0.0000000000
  9
$USRTIMER
 70
     1
  9
$ANGBASE
 50
0.0
  9
$ANGDIR
 70
     0
  9
$PDMODE
 70
     0
  9
$PDSIZE
 40
0.0
  9
$PLINEWID
 40
0.0
  9
$SPLFRAME
 70
     0
  9
$SPLINETYPE
 70
     6
  9
$SPLINESEGS
 70
     8
  9
$HANDSEED
  5
B5
  9
$SURFTAB1
 70
     6
  9
$SURFTAB2
 70
     6
  9
$SURFTYPE
 70
     6
  9
$SURFU
 70
     6
  9
$SURFV
 70
     6
  9
$UCSBASE
  2

  9
$UCSNAME
  2

  9
$UCSORG
 10
0.0
 20
0.0
 30
0.0
  9
$UCSXDIR
 10
1.0
 20
0.0
 30
0.0
  9
$UCSYDIR
 10
0.0
 20
1.0
 30
0.0
  9
$UCSORTHOREF
  2

  9
$UCSORTHOVIEW
 70
     0
  9
$UCSORGTOP
 10
0.0
 20
0.0
 30
0.0
  9
$UCSORGBOTTOM
 10
0.0
 20
0.0
 30
0.0
  9
$UCSORGLEFT
 10
0.0
 20
0.0
 30
0.0
  9
$UCSORGRIGHT
 10
0.0
 20
0.0
 30
0.0
  9
$UCSORGFRONT
 10
0.0
 20
0.0
 30
0.0
  9
$UCSORGBACK
 10
0.0
 20
0.0
 30
0.0
  9
$PUCSBASE
  2

  9
$PUCSNAME
  2

  9
$PUCSORG
 10
0.0
 20
0.0
 30
0.0
  9
$PUCSXDIR
 10
1.0
 20
0.0
 30
0.0
  9
$PUCSYDIR
 10
0.0
 20
1.0
 30
0.0
  9
$PUCSORTHOREF
  2

  9
$PUCSORTHOVIEW
 70
     0
  9
$PUCSORGTOP
 10
0.0
 20
0.0
 30
0.0
  9
$PUCSORGBOTTOM
 10
0.0
 20
0.0
 30
0.0
  9
$PUCSORGLEFT
 10
0.0
 20
0.0
 30
0.0
  9
$PUCSORGRIGHT
 10
0.0
 20
0.0
 30
0.0
  9
$PUCSORGFRONT
 10
0.0
 20
0.0
 30
0.0
  9
$PUCSORGBACK
 10
0.0
 20
0.0
 30
0.0
  9
$USERI1
 70
     0
  9
$USERI2
 70
     0
  9
$USERI3
 70
     0
  9
$USERI4
 70
     0
  9
$USERI5
 70
     0
  9
$USERR1
 40
0.0
  9
$USERR2
 40
0.0
  9
$USERR3
 40
0.0
  9
$USERR4
 40
0.0
  9
$USERR5
 40
0.0
  9
$WORLDVIEW
 70
     1
  9
$SHADEDGE
 70
     3
  9
$SHADEDIF
 70
    70
  9
$TILEMODE
 70
     1
  9
$MAXACTVP
 70
    64
  9
$PINSBASE
 10
0.0
 20
0.0
 30
0.0
  9
$PLIMCHECK
 70
     0
  9
$PEXTMIN
 10
1.000000000000000E+20
 20
1.000000000000000E+20
 30
1.000000000000000E+20
  9
$PEXTMAX
 10
-1.000000000000000E+20
 20
-1.000000000000000E+20
 30
-1.000000000000000E+20
  9
$PLIMMIN
 10
0.0
 20
0.0
  9
$PLIMMAX
 10
12.0
 20
9.0
  9
$UNITMODE
 70
     0
  9
$VISRETAIN
 70
     1
  9
$PLINEGEN
 70
     0
  9
$PSLTSCALE
 70
     1
  9
$TREEDEPTH
 70
  3020
  9
$CMLSTYLE
  2
Standard
  9
$CMLJUST
 70
     0
  9
$CMLSCALE
 40
1.0
  9
$PROXYGRAPHICS
 70
     1
  9
$MEASUREMENT
 70
     0
  9
$CELWEIGHT
370
    -1
  9
$ENDCAPS
280
     0
  9
$JOINSTYLE
280
     0
  9
$LWDISPLAY
290
     1
  9
$INSUNITS
 70
     4
  9
$HYPERLINKBASE
  1

  9
$STYLESHEET
  1

  9
$XEDIT
290
     1
  9
$CEPSNTYPE
380
     0
  9
$PSTYLEMODE
290
     1
  9
$FINGERPRINTGUID
  2
{94D8B87F-22A0-BE4C-A7D9-B5B7E64A6E00}
  9
$VERSIONGUID
  2
{96CACC3D-27A9-0542-81D9-52B1B7AB8970}
  9
$EXTNAMES
290
     1
  9
$PSVPSCALE
 40
0.0
  9
$OLESTARTUP
290
     0
  9
$SORTENTS
280
   127
  9
$INDEXCTL
280
     0
  9
$HIDETEXT
280
     1
  9
$XCLIPFRAME
280
     2
  9
$HALOGAP
280
     0
  9
$OBSCOLOR
 70
   257
  9
$OBSLTYPE
280
     0
  9
$INTERSECTIONDISPLAY
280
     0
  9
$INTERSECTIONCOLOR
 70
   257
  9
$DIMASSOC
280
     2
  9
$PROJECTNAME
  1

  9
$CAMERADISPLAY
290
     0
  9
$LENSLENGTH
 40
50.0
  9
$CAMERAHEIGHT
 40
0.0
  9
$STEPSPERSEC
 40
2.0
  9
$STEPSIZE
 40
6.0
  9
$3DDWFPREC
 40
2.0
  9
$PSOLWIDTH
 40
0.25
  9
$PSOLHEIGHT
 40
4.0
  9
$LOFTANG1
 40
1.570796326794896
  9
$LOFTANG2
 40
1.570796326794896
  9
$LOFTMAG1
 40
0.0
  9
$LOFTMAG2
 40
0.0
  9
$LOFTPARAM
 70
     7
  9
$LOFTNORMALS
280
     1
  9
$LATITUDE
 40
37.795
  9
$LONGITUDE
 40
-122.394
  9
$NORTHDIRECTION
 40
0.0
  9
$TIMEZONE
 70
 -8000
  9
$LIGHTGLYPHDISPLAY
280
     1
  9
$TILEMODELIGHTSYNCH
280
     1
  9
$CMATERIAL
347
11
  9
$SOLIDHIST
280
     0
  9
$SHOWHIST
280
     1
  9
$DWFFRAME
280
     2
  9
$DGNFRAME
280
     0
  9
$REALWORLDSCALE
290
     1
  9
$INTERFERECOLOR
 62
     1
  9
$INTERFEREOBJVS
345
33
  9
$INTERFEREVPVS
346
30
  9
$CSHADOW
280
     0
  9
$SHADOWPLANELOCATION
 40
0.0
  0
ENDSEC
  0
SECTION
  2
CLASSES
  0
CLASS
  1
ACDBDICTIONARYWDFLT
  2
AcDbDictionaryWithDefault
  3
ObjectDBX Classes
 90
        0
 91
        1
280
     0
281
     0
  0
CLASS
  1
MATERIAL
  2
AcDbMaterial
  3
ObjectDBX Classes
 90
     1153
 91
        3
280
     0
281
     0
  0
CLASS
  1
VISUALSTYLE
  2
AcDbVisualStyle
  3
ObjectDBX Classes
 90
     4095
 91
       24
280
     0
281
     0
  0
CLASS
  1
SCALE
  2
AcDbScale
  3
ObjectDBX Classes
 90
     1153
 91
       17
280
     0
281
     0
  0
CLASS
  1
TABLESTYLE
  2
AcDbTableStyle
  3
ObjectDBX Classes
 90
     4095
 91
        1
280
     0
281
     0
  0
CLASS
  1
MLEADERSTYLE
  2
AcDbMLeaderStyle
  3
ACDB_MLEADERSTYLE_CLASS
 90
     4095
 91
        1
280
     0
281
     0
  0
CLASS
  1
ACDBSECTIONVIEWSTYLE
  2
AcDbSectionViewStyle
  3
ObjectDBX Classes
 90
     1025
 91
        1
280
     0
281
     0
  0
CLASS
  1
ACDBDETAILVIEWSTYLE
  2
AcDbDetailViewStyle
  3
ObjectDBX Classes
 90
     1025
 91
        1
280
     0
281
     0
  0
CLASS
  1
DICTIONARYVAR
  2
AcDbDictionaryVar
  3
ObjectDBX Classes
 90
        0
 91
        5
280
     0
281
     0
  0
CLASS
  1
CELLSTYLEMAP
  2
AcDbCellStyleMap
  3
ObjectDBX Classes
 90
     1152
 91
        1
280
     0
281
     0
  0
ENDSEC
  0
SECTION
  2
TABLES
  0
TABLE
  2
VPORT
  5
8
330
0
100
AcDbSymbolTable
 70
     1
  0
VPORT
  5
57
330
8
100
AcDbSymbolTableRecord
100
AcDbViewportTableRecord
  2
*Active
 70
     0
 10
0.0
 20
0.0
 11
1.0
 21
1.0
 12
0.0
 22
0.0
 13
0.0
 23
0.0
 14
1.0
 24
1.0
 15
0.0
 25
0.0
 16
0.0
 26
0.0
 36
1.0
 17
317.499999920625
 27
-317.499999920625
 37
0.0
 40
647.6999998380749
 41
1.0
 42
50.0
 43
0.0
 44
0.0
 50
0.0
 51
0.0
 71
     0
 72
   100
 73
     1
 74
     1
 75
     0
 76
     0
 77
     0
 78
     0
281
     0
 65
     1
110
0.0
120
0.0
130
0.0
111
1.0
121
0.0
131
0.0
112
0.0
122
1.0
132
0.0
 79
     0
146
0.0
 60
     3
 61
     5
292
     1
282
     1
141
0.0
142
0.0
 63
   250
421
  3355443
  0
ENDTAB
  0
TABLE
  2
LTYPE
  5
5
330
0
100
AcDbSymbolTable
 70
     1
  0
LTYPE
  5
5B
330
5
100
AcDbSymbolTableRecord
100
AcDbLinetypeTableRecord
  2
ByBlock
 70
     0
  3

 72
    65
 73
     0
 40
0.0
  0
LTYPE
  5
5C
330
5
100
AcDbSymbolTableRecord
100
AcDbLinetypeTableRecord
  2
ByLayer
 70
     0
  3

 72
    65
 73
     0
 40
0.0
  0
LTYPE
  5
5D
330
5
100
AcDbSymbolTableRecord
100
AcDbLinetypeTableRecord
  2
Continuous
 70
     0
  3
Solid line
 72
    65
 73
     0
 40
0.0
  0
ENDTAB
  0
TABLE
  2
LAYER
  5
2
330
0
100
AcDbSymbolTable
 70
     7
  0
LAYER
  5
54
330
2
100
AcDbSymbolTableRecord
100
AcDbLayerTableRecord
  2
0
 70
     0
 62
     7
  6
Continuous
370
    -3
390
F
347
21
348
0
  0
LAYER
  5
78
330
2
100
AcDbSymbolTableRecord
100
AcDbLayerTableRecord
  2
Feet 2
 70
     0
 62
     7
  6
Continuous
370
     0
390
F
347
21
348
0
  0
LAYER
  5
7E
330
2
100
AcDbSymbolTableRecord
100
AcDbLayerTableRecord
  2
Feet 1
 70
     0
 62
     7
  6
Continuous
370
     0
390
F
347
21
348
0
  0
LAYER
  5
84
330
2
100
AcDbSymbolTableRecord
100
AcDbLayerTableRecord
  2
Middle
 70
     0
 62
     7
  6
Continuous
370
     0
390
F
347
21
348
0
  0
LAYER
  5
8E
330
2
100
AcDbSymbolTableRecord
100
AcDbLayerTableRecord
  2
Top 3
 70
     0
 62
     7
  6
Continuous
370
     0
390
F
347
21
348
0
  0
LAYER
  5
98
330
2
100
AcDbSymbolTableRecord
100
AcDbLayerTableRecord
  2
Top 2
 70
     0
 62
     7
  6
Continuous
370
     0
390
F
347
21
348
0
  0
LAYER
  5
A2
330
2
100
AcDbSymbolTableRecord
100
AcDbLayerTableRecord
  2
Top 1
 70
     0
 62
     7
  6
Continuous
370
     0
390
F
347
21
348
0
  0
ENDTAB
  0
TABLE
  2
STYLE
  5
3
330
0
100
AcDbSymbolTable
 70
     2
  0
STYLE
  5
55
330
3
100
AcDbSymbolTableRecord
100
AcDbTextStyleTableRecord
  2
Standard
 70
     0
 40
0.0
 41
1.0
 50
0.0
 71
     0
 42
0.2
  3
txt
  4

  0
STYLE
  5
5A
330
3
100
AcDbSymbolTableRecord
100
AcDbTextStyleTableRecord
  2
Annotative
 70
     0
 40
0.0
 41
1.0
 50
0.0
 71
     0
 42
0.2
  3
txt
  4

1001
AcadAnnotative
1000
AnnotativeData
1002
{
1070
     1
1070
     1
1002
}
  0
ENDTAB
  0
TABLE
  2
VIEW
  5
6
330
0
100
AcDbSymbolTable
 70
     0
  0
ENDTAB
  0
TABLE
  2
UCS
  5
7
330
0
100
AcDbSymbolTable
 70
     0
  0
ENDTAB
  0
TABLE
  2
APPID
  5
9
330
0
100
AcDbSymbolTable
 70
     2
  0
APPID
  5
56
330
9
100
AcDbSymbolTableRecord
100
AcDbRegAppTableRecord
  2
ACAD
 70
     0
  0
APPID
  5
5E
330
9
100
AcDbSymbolTableRecord
100
AcDbRegAppTableRecord
  2
AcadAnnotative
 70
     0
  0
ENDTAB
  0
TABLE
  2
DIMSTYLE
  5
A
330
0
100
AcDbSymbolTable
 70
     2
100
AcDbDimStyleTable
 71
     0
  0
DIMSTYLE
105
58
330
A
100
AcDbSymbolTableRecord
100
AcDbDimStyleTableRecord
  2
Standard
 70
     0
340
55
  0
DIMSTYLE
105
59
330
A
100
AcDbSymbolTableRecord
100
AcDbDimStyleTableRecord
  2
Annotative
 70
     0
340
55
1001
AcadAnnotative
1000
AnnotativeData
1002
{
1070
     1
1070
     1
1002
}
  0
ENDTAB
  0
TABLE
  2
BLOCK_RECORD
  5
1
330
0
100
AcDbSymbolTable
 70
     1
  0
BLOCK_RECORD
  5
70
330
1
100
AcDbSymbolTableRecord
100
AcDbBlockTableRecord
  2
*Model_Space
340
73
 70
     0
280
     1
281
     0
  0
BLOCK_RECORD
  5
6C
330
1
100
AcDbSymbolTableRecord
100
AcDbBlockTableRecord
  2
*Paper_Space
340
6F
 70
     0
280
     1
281
     0
  0
BLOCK_RECORD
  5
74
330
1
100
AcDbSymbolTableRecord
100
AcDbBlockTableRecord
  2
*Paper_Space0
340
77
 70
     0
280
     1
281
     0
  0
ENDTAB
  0
ENDSEC
  0
SECTION
  2
BLOCKS
  0
BLOCK
  5
71
330
70
100
AcDbEntity
  8
0
100
AcDbBlockBegin
  2
*Model_Space
 70
     0
 10
0.0
 20
0.0
 30
0.0
  3
*Model_Space
  1

  0
ENDBLK
  5
72
330
70
100
AcDbEntity
  8
0
100
AcDbBlockEnd
  0
BLOCK
  5
6D
330
6C
100
AcDbEntity
 67
     1
  8
0
100
AcDbBlockBegin
  2
*Paper_Space
 70
     0
 10
0.0
 20
0.0
 30
0.0
  3
*Paper_Space
  1

  0
ENDBLK
  5
6E
330
6C
100
AcDbEntity
 67
     1
  8
0
100
AcDbBlockEnd
  0
BLOCK
  5
75
330
74
100
AcDbEntity
 67
     1
  8
0
100
AcDbBlockBegin
  2
*Paper_Space0
 70
     0
 10
0.0
 20
0.0
 30
0.0
  3
*Paper_Space0
  1

  0
ENDBLK
  5
76
330
74
100
AcDbEntity
 67
     1
  8
0
100
AcDbBlockEnd
  0
ENDSEC
  0
SECTION
  2
ENTITIES
  0
SPLINE
  5
79
330
70
100
AcDbEntity
  8
Feet 2
 62
    18
420
        0
370
    25
100
AcDbSpline
210
0.0
220
0.0
230
1.0
 70
     9
 71
     3
 72
    41
 73
    37
 74
     0
 42
0.0000000001
 43
0.0000000001
 40
0.0
 40
0.0
 40
0.0
 40
0.0
 40
1.0
 40
1.0
 40
1.0
 40
2.0
 40
2.0
 40
2.0
 40
3.0
 40
3.0
 40
3.0
 40
4.0
 40
4.0
 40
4.0
 40
5.0
 40
5.0
 40
5.0
 40
6.0
 40
6.0
 40
6.0
 40
7.0
 40
7.0
 40
7.0
 40
8.0
 40
8.0
 40
8.0
 40
9.0
 40
9.0
 40
9.0
 40
10.0
 40
10.0
 40
10.0
 40
11.0
 40
11.0
 40
11.0
 40
12.0
 40
12.0
 40
12.0
 40
12.0
 10
499.521855534794
 20
-275.7975436308661
 30
0.0
 10
499.521855534794
 20
-275.7975436308661
 30
0.0
 10
393.6058878210727
 20
-275.7975436308661
 30
0.0
 10
393.6058878210727
 20
-275.7975436308661
 30
0.0
 10
393.6058878210727
 20
-275.7975436308661
 30
0.0
 10
311.1440822861332
 20
-292.7997788696672
 30
0.0
 10
311.1440822861332
 20
-292.7997788696672
 30
0.0
 10
311.1440822861332
 20
-292.7997788696672
 30
0.0
 10
289.9197102753803
 20
-292.7997788696711
 30
0.0
 10
289.9197102753803
 20
-292.7997788696711
 30
0.0
 10
289.9197102753803
 20
-292.7997788696711
 30
0.0
 10
207.4580769952157
 20
-275.7975436308661
 30
0.0
 10
207.4580769952157
 20
-275.7975436308661
 30
0.0
 10
207.4580769952157
 20
-275.7975436308661
 30
0.0
 10
140.4344288667532
 20
-275.7975436308661
 30
0.0
 10
140.4344288667532
 20
-275.7975436308661
 30
0.0
 10
139.3298593673679
 20
-275.7975436308661
 30
0.0
 10
138.4344288672533
 20
-276.6929741309807
 30
0.0
 10
138.4344288672533
 20
-277.7975436303659
 30
0.0
 10
138.4344288672533
 20
-277.7975436303659
 30
0.0
 10
138.4344288672549
 20
-303.4644951199791
 30
0.0
 10
138.4344288672549
 20
-303.4644951199791
 30
0.0
 10
138.4344288672549
 20
-304.569064619365
 30
0.0
 10
139.3298593673691
 20
-305.4644951194792
 30
0.0
 10
140.4344288667551
 20
-305.4644951194792
 30
0.0
 10
140.4344288667551
 20
-305.4644951194792
 30
0.0
 10
499.521855534794
 20
-305.4644951194779
 30
0.0
 10
499.521855534794
 20
-305.4644951194779
 30
0.0
 10
500.6264250341774
 20
-305.4644951194779
 30
0.0
 10
501.5218555342936
 20
-304.5690646193631
 30
0.0
 10
501.5218555342936
 20
-303.4644951199778
 30
0.0
 10
501.5218555342936
 20
-303.4644951199778
 30
0.0
 10
501.5218555342936
 20
-277.7975436303656
 30
0.0
 10
501.5218555342936
 20
-277.7975436303656
 30
0.0
 10
501.5218555342936
 20
-276.6929741309803
 30
0.0
 10
500.6264250341774
 20
-275.7975436308661
 30
0.0
 10
499.521855534794
 20
-275.7975436308661
 30
0.0
  0
CIRCLE
  5
7A
330
70
100
AcDbEntity
  8
Feet 2
 62
    18
420
        0
370
    25
100
AcDbCircle
 10
235.5317971116409
 20
-287.7015455972974
 30
0.0
 40
1.350000001773197
  0
CIRCLE
  5
7B
330
70
100
AcDbEntity
  8
Feet 2
 62
    18
420
        0
370
    25
100
AcDbCircle
 10
365.5317970791415
 20
-287.7092748633508
 30
0.0
 40
1.350000001773197
  0
CIRCLE
  5
7C
330
70
100
AcDbEntity
  8
Feet 2
 62
    18
420
        0
370
    25
100
AcDbCircle
 10
494.5218920322033
 20
-280.7977803225161
 30
0.0
 40
1.35000000177079
  0
CIRCLE
  5
7D
330
70
100
AcDbEntity
  8
Feet 2
 62
    18
420
        0
370
    25
100
AcDbCircle
 10
145.434443386166
 20
-280.7977803225152
 30
0.0
 40
1.350000001772315
  0
SPLINE
  5
7F
330
70
100
AcDbEntity
  8
Feet 1
 62
    18
420
        0
370
    25
100
AcDbSpline
210
0.0
220
0.0
230
1.0
 70
     9
 71
     3
 72
    41
 73
    37
 74
     0
 42
0.0000000001
 43
0.0000000001
 40
0.0
 40
0.0
 40
0.0
 40
0.0
 40
1.0
 40
1.0
 40
1.0
 40
2.0
 40
2.0
 40
2.0
 40
3.0
 40
3.0
 40
3.0
 40
4.0
 40
4.0
 40
4.0
 40
5.0
 40
5.0
 40
5.0
 40
6.0
 40
6.0
 40
6.0
 40
7.0
 40
7.0
 40
7.0
 40
8.0
 40
8.0
 40
8.0
 40
9.0
 40
9.0
 40
9.0
 40
10.0
 40
10.0
 40
10.0
 40
11.0
 40
11.0
 40
11.0
 40
12.0
 40
12.0
 40
12.0
 40
12.0
 10
501.5218555342936
 20
-275.7975436308661
 30
0.0
 10
501.5218555342936
 20
-275.7975436308661
 30
0.0
 10
393.6058878210727
 20
-275.7975436308661
 30
0.0
 10
393.6058878210727
 20
-275.7975436308661
 30
0.0
 10
393.6058878210727
 20
-275.7975436308661
 30
0.0
 10
311.1440822861332
 20
-292.7997788696672
 30
0.0
 10
311.1440822861332
 20
-292.7997788696672
 30
0.0
 10
311.1440822861332
 20
-292.7997788696672
 30
0.0
 10
289.9197102753803
 20
-292.7997788696711
 30
0.0
 10
289.9197102753803
 20
-292.7997788696711
 30
0.0
 10
289.9197102753803
 20
-292.7997788696711
 30
0.0
 10
207.4580769952157
 20
-275.7975436308661
 30
0.0
 10
207.4580769952157
 20
-275.7975436308661
 30
0.0
 10
207.4580769952157
 20
-275.7975436308661
 30
0.0
 10
138.4344288672533
 20
-275.7975436308661
 30
0.0
 10
138.4344288672533
 20
-275.7975436308661
 30
0.0
 10
137.329859367868
 20
-275.7975436308661
 30
0.0
 10
136.4344288677535
 20
-276.6929741309807
 30
0.0
 10
136.4344288677535
 20
-277.7975436303659
 30
0.0
 10
136.4344288677535
 20
-277.7975436303659
 30
0.0
 10
136.4344288677551
 20
-333.1311617125623
 30
0.0
 10
136.4344288677551
 20
-333.1311617125623
 30
0.0
 10
136.4344288677551
 20
-334.2357312119483
 30
0.0
 10
137.3298593678693
 20
-335.1311617120625
 30
0.0
 10
138.4344288672549
 20
-335.1311617120625
 30
0.0
 10
138.4344288672549
 20
-335.1311617120625
 30
0.0
 10
501.5218555342936
 20
-335.1311617120612
 30
0.0
 10
501.5218555342936
 20
-335.1311617120612
 30
0.0
 10
502.6264250336795
 20
-335.1311617120612
 30
0.0
 10
503.5218555337924
 20
-334.2357312119464
 30
0.0
 10
503.5218555337924
 20
-333.131161712561
 30
0.0
 10
503.5218555337924
 20
-333.131161712561
 30
0.0
 10
503.5218555337924
 20
-277.7975436303656
 30
0.0
 10
503.5218555337924
 20
-277.7975436303656
 30
0.0
 10
503.5218555337924
 20
-276.6929741309803
 30
0.0
 10
502.6264250336795
 20
-275.7975436308661
 30
0.0
 10
501.5218555342936
 20
-275.7975436308661
 30
0.0
  0
CIRCLE
  5
80
330
70
100
AcDbEntity
  8
Feet 1
 62
    18
420
        0
370
    25
100
AcDbCircle
 10
235.5317971116409
 20
-287.7015455972974
 30
0.0
 40
1.350000001773197
  0
CIRCLE
  5
81
330
70
100
AcDbEntity
  8
Feet 1
 62
    18
420
        0
370
    25
100
AcDbCircle
 10
365.5317970791415
 20
-287.7092748633508
 30
0.0
 40
1.350000001773197
  0
CIRCLE
  5
82
330
70
100
AcDbEntity
  8
Feet 1
 62
    18
420
        0
370
    25
100
AcDbCircle
 10
494.5218920322033
 20
-280.7977803225161
 30
0.0
 40
1.35000000177079
  0
CIRCLE
  5
83
330
70
100
AcDbEntity
  8
Feet 1
 62
    18
420
        0
370
    25
100
AcDbCircle
 10
145.434443386166
 20
-280.7977803225152
 30
0.0
 40
1.350000001772315
  0
SPLINE
  5
85
330
70
100
AcDbEntity
  8
Middle
 62
    18
420
        0
370
    25
100
AcDbSpline
210
0.0
220
0.0
230
1.0
 70
     9
 71
     3
 72
    41
 73
    37
 74
     0
 42
0.0000000001
 43
0.0000000001
 40
0.0
 40
0.0
 40
0.0
 40
0.0
 40
1.0
 40
1.0
 40
1.0
 40
2.0
 40
2.0
 40
2.0
 40
3.0
 40
3.0
 40
3.0
 40
4.0
 40
4.0
 40
4.0
 40
5.0
 40
5.0
 40
5.0
 40
6.0
 40
6.0
 40
6.0
 40
7.0
 40
7.0
 40
7.0
 40
8.0
 40
8.0
 40
8.0
 40
9.0
 40
9.0
 40
9.0
 40
10.0
 40
10.0
 40
10.0
 40
11.0
 40
11.0
 40
11.0
 40
12.0
 40
12.0
 40
12.0
 40
12.0
 10
503.5218555337924
 20
-275.7975436308661
 30
0.0
 10
503.5218555337924
 20
-275.7975436308661
 30
0.0
 10
393.6058878210727
 20
-275.7975436308661
 30
0.0
 10
393.6058878210727
 20
-275.7975436308661
 30
0.0
 10
393.6058878210727
 20
-275.7975436308661
 30
0.0
 10
311.1440822861332
 20
-292.7997788696672
 30
0.0
 10
311.1440822861332
 20
-292.7997788696672
 30
0.0
 10
311.1440822861332
 20
-292.7997788696672
 30
0.0
 10
289.9197102753803
 20
-292.7997788696711
 30
0.0
 10
289.9197102753803
 20
-292.7997788696711
 30
0.0
 10
289.9197102753803
 20
-292.7997788696711
 30
0.0
 10
207.4580769952157
 20
-275.7975436308661
 30
0.0
 10
207.4580769952157
 20
-275.7975436308661
 30
0.0
 10
207.4580769952157
 20
-275.7975436308661
 30
0.0
 10
136.4344288677535
 20
-275.7975436308661
 30
0.0
 10
136.4344288677535
 20
-275.7975436308661
 30
0.0
 10
135.3298593683681
 20
-275.7975436308661
 30
0.0
 10
134.4344288682536
 20
-276.6929741309807
 30
0.0
 10
134.4344288682536
 20
-277.7975436303659
 30
0.0
 10
134.4344288682536
 20
-277.7975436303659
 30
0.0
 10
134.4344288682549
 20
-356.7977992235729
 30
0.0
 10
134.4344288682549
 20
-356.7977992235729
 30
0.0
 10
134.4344288682549
 20
-361.2160929518818
 30
0.0
 10
138.0161636210193
 20
-364.7978277046459
 30
0.0
 10
142.4344573493278
 20
-364.7978277046459
 30
0.0
 10
142.4344573493278
 20
-364.7978277046459
 30
0.0
 10
497.5219993069959
 20
-364.7978277046459
 30
0.0
 10
497.5219993069959
 20
-364.7978277046459
 30
0.0
 10
501.9401979016196
 20
-364.7978277046459
 30
0.0
 10
505.5218555332946
 20
-361.216170072971
 30
0.0
 10
505.5218555332946
 20
-356.7979714783472
 30
0.0
 10
505.5218555332946
 20
-356.7979714783472
 30
0.0
 10
505.5218555332946
 20
-277.7975436303659
 30
0.0
 10
505.5218555332946
 20
-277.7975436303659
 30
0.0
 10
505.5218555332946
 20
-276.6929741309807
 30
0.0
 10
504.626425033179
 20
-275.7975436308661
 30
0.0
 10
503.5218555337924
 20
-275.7975436308661
 30
0.0
  0
CIRCLE
  5
86
330
70
100
AcDbEntity
  8
Middle
 62
    18
420
        0
370
    25
100
AcDbCircle
 10
365.5317977623752
 20
-353.7979450772728
 30
0.0
 40
1.350000335156397
  0
CIRCLE
  5
87
330
70
100
AcDbEntity
  8
Middle
 62
    18
420
        0
370
    25
100
AcDbCircle
 10
235.5317971116408
 20
-353.7979450772726
 30
0.0
 40
1.350000001773157
  0
CIRCLE
  5
88
330
70
100
AcDbEntity
  8
Middle
 62
    18
420
        0
370
    25
100
AcDbCircle
 10
145.4344558422285
 20
-353.7979450772738
 30
0.0
 40
1.349999998449
  0
CIRCLE
  5
89
330
70
100
AcDbEntity
  8
Middle
 62
    18
420
        0
370
    25
100
AcDbCircle
 10
494.5219044882671
 20
-353.7979437174567
 30
0.0
 40
1.349999993538684
  0
CIRCLE
  5
8A
330
70
100
AcDbEntity
  8
Middle
 62
    18
420
        0
370
    25
100
AcDbCircle
 10
235.5317971116409
 20
-287.7015455972974
 30
0.0
 40
1.350000001773197
  0
CIRCLE
  5
8B
330
70
100
AcDbEntity
  8
Middle
 62
    18
420
        0
370
    25
100
AcDbCircle
 10
365.5317970791415
 20
-287.7092748633508
 30
0.0
 40
1.350000001773197
  0
CIRCLE
  5
8C
330
70
100
AcDbEntity
  8
Middle
 62
    18
420
        0
370
    25
100
AcDbCircle
 10
494.5218920322033
 20
-280.7977803225161
 30
0.0
 40
1.35000000177079
  0
CIRCLE
  5
8D
330
70
100
AcDbEntity
  8
Middle
 62
    18
420
        0
370
    25
100
AcDbCircle
 10
145.434443386166
 20
-280.7977803225152
 30
0.0
 40
1.350000001772315
  0
SPLINE
  5
8F
330
70
100
AcDbEntity
  8
Top 3
 62
    18
420
        0
370
    25
100
AcDbSpline
210
0.0
220
0.0
230
1.0
 70
     9
 71
     3
 72
    41
 73
    37
 74
     0
 42
0.0000000001
 43
0.0000000001
 40
0.0
 40
0.0
 40
0.0
 40
0.0
 40
1.0
 40
1.0
 40
1.0
 40
2.0
 40
2.0
 40
2.0
 40
3.0
 40
3.0
 40
3.0
 40
4.0
 40
4.0
 40
4.0
 40
5.0
 40
5.0
 40
5.0
 40
6.0
 40
6.0
 40
6.0
 40
7.0
 40
7.0
 40
7.0
 40
8.0
 40
8.0
 40
8.0
 40
9.0
 40
9.0
 40
9.0
 40
10.0
 40
10.0
 40
10.0
 40
11.0
 40
11.0
 40
11.0
 40
12.0
 40
12.0
 40
12.0
 40
12.0
 10
501.52203754858
 20
-273.7979486993766
 30
0.0
 10
501.52203754858
 20
-273.7979486993766
 30
0.0
 10
393.4013090932245
 20
-273.7979486993766
 30
0.0
 10
393.4013090932245
 20
-273.7979486993766
 30
0.0
 10
393.4013090932245
 20
-273.7979486993766
 30
0.0
 10
310.9398480678342
 20
-290.7998394286331
 30
0.0
 10
310.9398480678342
 20
-290.7998394286331
 30
0.0
 10
310.9398480678342
 20
-290.7998394286331
 30
0.0
 10
290.1237198720833
 20
-290.7998394286331
 30
0.0
 10
290.1237198720833
 20
-290.7998394286331
 30
0.0
 10
290.1237198720833
 20
-290.7998394286331
 30
0.0
 10
207.6620865919175
 20
-273.7979486993766
 30
0.0
 10
207.6620865919175
 20
-273.7979486993766
 30
0.0
 10
207.6620865919175
 20
-273.7979486993766
 30
0.0
 10
138.4345389956916
 20
-273.7979486993766
 30
0.0
 10
138.4345389956916
 20
-273.7979486993766
 30
0.0
 10
137.3299694963062
 20
-273.7979486993766
 30
0.0
 10
136.4345389961917
 20
-274.6933791994915
 30
0.0
 10
136.4345389961917
 20
-275.7979486988765
 30
0.0
 10
136.4345389961917
 20
-275.7979486988765
 30
0.0
 10
136.4345389961917
 20
-356.7978607354228
 30
0.0
 10
136.4345389961917
 20
-356.7978607354228
 30
0.0
 10
136.4345389961917
 20
-360.111462114547
 30
0.0
 10
139.1207436594033
 20
-362.7976667777597
 30
0.0
 10
142.4343450385285
 20
-362.7976667777597
 30
0.0
 10
142.4343450385285
 20
-362.7976667777597
 30
0.0
 10
497.5222315057458
 20
-362.7976667777597
 30
0.0
 10
497.5222315057458
 20
-362.7976667777597
 30
0.0
 10
500.8358328848701
 20
-362.7976667777597
 30
0.0
 10
503.5220375480827
 20
-360.111462114547
 30
0.0
 10
503.5220375480827
 20
-356.7978607354228
 30
0.0
 10
503.5220375480827
 20
-356.7978607354228
 30
0.0
 10
503.5220375480827
 20
-275.7979486988765
 30
0.0
 10
503.5220375480827
 20
-275.7979486988765
 30
0.0
 10
503.5220375480827
 20
-274.6933791994915
 30
0.0
 10
502.6266070479666
 20
-273.7979486993766
 30
0.0
 10
501.52203754858
 20
-273.7979486993766
 30
0.0
  0
SPLINE
  5
90
330
70
100
AcDbEntity
  8
Top 3
 62
    18
420
        0
370
    25
100
AcDbSpline
210
0.0
220
0.0
230
1.0
 70
     9
 71
     3
 72
    83
 73
    79
 74
     0
 42
0.0000000001
 43
0.0000000001
 40
0.0
 40
0.0
 40
0.0
 40
0.0
 40
1.0
 40
1.0
 40
1.0
 40
2.0
 40
2.0
 40
2.0
 40
3.0
 40
3.0
 40
3.0
 40
4.0
 40
4.0
 40
4.0
 40
5.0
 40
5.0
 40
5.0
 40
6.0
 40
6.0
 40
6.0
 40
7.0
 40
7.0
 40
7.0
 40
8.0
 40
8.0
 40
8.0
 40
9.0
 40
9.0
 40
9.0
 40
10.0
 40
10.0
 40
10.0
 40
11.0
 40
11.0
 40
11.0
 40
12.0
 40
12.0
 40
12.0
 40
13.0
 40
13.0
 40
13.0
 40
14.0
 40
14.0
 40
14.0
 40
15.0
 40
15.0
 40
15.0
 40
16.0
 40
16.0
 40
16.0
 40
17.0
 40
17.0
 40
17.0
 40
18.0
 40
18.0
 40
18.0
 40
19.0
 40
19.0
 40
19.0
 40
20.0
 40
20.0
 40
20.0
 40
21.0
 40
21.0
 40
21.0
 40
22.0
 40
22.0
 40
22.0
 40
23.0
 40
23.0
 40
23.0
 40
24.0
 40
24.0
 40
24.0
 40
25.0
 40
25.0
 40
25.0
 40
26.0
 40
26.0
 40
26.0
 40
26.0
 10
148.3211975578137
 20
-353.5479381210457
 30
0.0
 10
148.2755285107873
 20
-353.5479381210457
 30
0.0
 10
148.2350486388356
 20
-353.5635056462703
 30
0.0
 10
148.1982076489903
 20
-353.5849083019712
 30
0.0
 10
148.1982076489903
 20
-353.5849083019712
 30
0.0
 10
147.0008216493981
 20
-351.5109823516981
 30
0.0
 10
147.0008216493981
 20
-351.5109823516981
 30
0.0
 10
147.0753649029602
 20
-351.4677033396653
 30
0.0
 10
147.1278380135699
 20
-351.3903394141734
 30
0.0
 10
147.1278380135699
 20
-351.2979462596277
 30
0.0
 10
147.1278380135699
 20
-351.1598625262102
 30
0.0
 10
147.0158939421461
 20
-351.0479399866325
 30
0.0
 10
146.8778317405747
 20
-351.0479399866325
 30
0.0
 10
146.7397480071565
 20
-351.0479399866325
 30
0.0
 10
146.6278254675795
 20
-351.1598625262102
 30
0.0
 10
146.6278254675795
 20
-351.2979462596277
 30
0.0
 10
146.6278254675795
 20
-351.2979462596277
 30
0.0
 10
144.2410848472452
 20
-351.2979462596277
 30
0.0
 10
144.2410848472452
 20
-351.2979462596277
 30
0.0
 10
144.2410848472452
 20
-351.1598625262102
 30
0.0
 10
144.1291407758213
 20
-351.0479399866325
 30
0.0
 10
143.9910785742499
 20
-351.0479399866325
 30
0.0
 10
143.8530163726785
 20
-351.0479399866325
 30
0.0
 10
143.7410723012547
 20
-351.1598625262102
 30
0.0
 10
143.7410723012547
 20
-351.2979462596277
 30
0.0
 10
143.7410723012547
 20
-351.3903394141734
 30
0.0
 10
143.7935454118644
 20
-351.4676818078172
 30
0.0
 10
143.8680886654265
 20
-351.5109608198501
 30
0.0
 10
143.8680886654265
 20
-351.5109608198501
 30
0.0
 10
142.6707026658344
 20
-353.5848867701269
 30
0.0
 10
142.6707026658344
 20
-353.5848867701269
 30
0.0
 10
142.6338401441422
 20
-353.5635056462703
 30
0.0
 10
142.5933602721905
 20
-353.5479381210457
 30
0.0
 10
142.5476912251642
 20
-353.5479381210457
 30
0.0
 10
142.4096290235928
 20
-353.5479381210457
 30
0.0
 10
142.2977064840157
 20
-353.6598606606234
 30
0.0
 10
142.2977064840157
 20
-353.7979443940415
 30
0.0
 10
142.2977064840157
 20
-353.9360065956142
 30
0.0
 10
142.4096290235928
 20
-354.0479291351887
 30
0.0
 10
142.5476912251642
 20
-354.0479291351887
 30
0.0
 10
142.5933602721905
 20
-354.0479291351887
 30
0.0
 10
142.6338401441422
 20
-354.0323616099647
 30
0.0
 10
142.6706811339876
 20
-354.0109804861113
 30
0.0
 10
142.6706811339876
 20
-354.0109804861113
 30
0.0
 10
143.8680886654265
 20
-356.0849064363837
 30
0.0
 10
143.8680886654265
 20
-356.0849064363837
 30
0.0
 10
143.7935454118644
 20
-356.1281854484164
 30
0.0
 10
143.7410723012547
 20
-356.2055493739084
 30
0.0
 10
143.7410723012547
 20
-356.2979425284535
 30
0.0
 10
143.7410723012547
 20
-356.4360047300236
 30
0.0
 10
143.8530163726785
 20
-356.5479488014493
 30
0.0
 10
143.9910785742499
 20
-356.5479488014493
 30
0.0
 10
144.1291407758213
 20
-356.5479488014493
 30
0.0
 10
144.2410848472452
 20
-356.4360047300236
 30
0.0
 10
144.2410848472452
 20
-356.2979425284535
 30
0.0
 10
144.2410848472452
 20
-356.2979425284535
 30
0.0
 10
146.6278254675795
 20
-356.2979425284535
 30
0.0
 10
146.6278254675795
 20
-356.2979425284535
 30
0.0
 10
146.6278254675795
 20
-356.4360047300236
 30
0.0
 10
146.7397480071565
 20
-356.5479488014493
 30
0.0
 10
146.8778317405747
 20
-356.5479488014493
 30
0.0
 10
147.0158939421461
 20
-356.5479488014493
 30
0.0
 10
147.1278380135699
 20
-356.4360047300236
 30
0.0
 10
147.1278380135699
 20
-356.2979425284535
 30
0.0
 10
147.1278380135699
 20
-356.2055493739084
 30
0.0
 10
147.0753649029602
 20
-356.1281854484164
 30
0.0
 10
147.0008216493981
 20
-356.0849064363837
 30
0.0
 10
147.0008216493981
 20
-356.0849064363837
 30
0.0
 10
148.1982076489903
 20
-354.0109804861113
 30
0.0
 10
148.1982076489903
 20
-354.0109804861113
 30
0.0
 10
148.2350701706824
 20
-354.0323616099647
 30
0.0
 10
148.2755285107873
 20
-354.0479291351887
 30
0.0
 10
148.3211975578137
 20
-354.0479291351887
 30
0.0
 10
148.459259759385
 20
-354.0479291351887
 30
0.0
 10
148.5712038308089
 20
-353.9360065956142
 30
0.0
 10
148.5712038308089
 20
-353.7979443940415
 30
0.0
 10
148.5712038308089
 20
-353.6598606606234
 30
0.0
 10
148.459259759385
 20
-353.5479381210457
 30
0.0
 10
148.3211975578137
 20
-353.5479381210457
 30
0.0
  0
SPLINE
  5
91
330
70
100
AcDbEntity
  8
Top 3
 62
    18
420
        0
370
    25
100
AcDbSpline
210
0.0
220
0.0
230
1.0
 70
     9
 71
     3
 72
    83
 73
    79
 74
     0
 42
0.0000000001
 43
0.0000000001
 40
0.0
 40
0.0
 40
0.0
 40
0.0
 40
1.0
 40
1.0
 40
1.0
 40
2.0
 40
2.0
 40
2.0
 40
3.0
 40
3.0
 40
3.0
 40
4.0
 40
4.0
 40
4.0
 40
5.0
 40
5.0
 40
5.0
 40
6.0
 40
6.0
 40
6.0
 40
7.0
 40
7.0
 40
7.0
 40
8.0
 40
8.0
 40
8.0
 40
9.0
 40
9.0
 40
9.0
 40
10.0
 40
10.0
 40
10.0
 40
11.0
 40
11.0
 40
11.0
 40
12.0
 40
12.0
 40
12.0
 40
13.0
 40
13.0
 40
13.0
 40
14.0
 40
14.0
 40
14.0
 40
15.0
 40
15.0
 40
15.0
 40
16.0
 40
16.0
 40
16.0
 40
17.0
 40
17.0
 40
17.0
 40
18.0
 40
18.0
 40
18.0
 40
19.0
 40
19.0
 40
19.0
 40
20.0
 40
20.0
 40
20.0
 40
21.0
 40
21.0
 40
21.0
 40
22.0
 40
22.0
 40
22.0
 40
23.0
 40
23.0
 40
23.0
 40
24.0
 40
24.0
 40
24.0
 40
25.0
 40
25.0
 40
25.0
 40
26.0
 40
26.0
 40
26.0
 40
26.0
 10
238.4185401870426
 20
-353.5479381210425
 30
0.0
 10
238.372871140016
 20
-353.5479381210425
 30
0.0
 10
238.3323912680643
 20
-353.5635056462664
 30
0.0
 10
238.2955502782192
 20
-353.5849083019712
 30
0.0
 10
238.2955502782192
 20
-353.5849083019712
 30
0.0
 10
237.0981642786267
 20
-351.5109823516975
 30
0.0
 10
237.0981642786267
 20
-351.5109823516975
 30
0.0
 10
237.1727075321892
 20
-351.4677033396641
 30
0.0
 10
237.2251806427986
 20
-351.3903394141721
 30
0.0
 10
237.2251806427986
 20
-351.2979462596271
 30
0.0
 10
237.2251806427986
 20
-351.1598625262089
 30
0.0
 10
237.1132365713747
 20
-351.0479399866319
 30
0.0
 10
236.9751743698033
 20
-351.0479399866319
 30
0.0
 10
236.8370906363852
 20
-351.0479399866319
 30
0.0
 10
236.7251680968081
 20
-351.1598625262089
 30
0.0
 10
236.7251680968081
 20
-351.2979462596271
 30
0.0
 10
236.7251680968081
 20
-351.2979462596271
 30
0.0
 10
234.3384274764741
 20
-351.2979462596271
 30
0.0
 10
234.3384274764741
 20
-351.2979462596271
 30
0.0
 10
234.3384274764741
 20
-351.1598625262089
 30
0.0
 10
234.22648340505
 20
-351.0479399866319
 30
0.0
 10
234.0884212034786
 20
-351.0479399866319
 30
0.0
 10
233.9503590019072
 20
-351.0479399866319
 30
0.0
 10
233.8384149304834
 20
-351.1598625262089
 30
0.0
 10
233.8384149304834
 20
-351.2979462596271
 30
0.0
 10
233.8384149304834
 20
-351.3903394141721
 30
0.0
 10
233.8908880410931
 20
-351.467681807816
 30
0.0
 10
233.9654312946552
 20
-351.5109608198494
 30
0.0
 10
233.9654312946552
 20
-351.5109608198494
 30
0.0
 10
232.768045295063
 20
-353.584886770123
 30
0.0
 10
232.768045295063
 20
-353.584886770123
 30
0.0
 10
232.7311827733709
 20
-353.5635056462664
 30
0.0
 10
232.6907029014191
 20
-353.5479381210425
 30
0.0
 10
232.6450338543928
 20
-353.5479381210425
 30
0.0
 10
232.5069716528214
 20
-353.5479381210425
 30
0.0
 10
232.3950491132447
 20
-353.6598606606234
 30
0.0
 10
232.3950491132447
 20
-353.7979443940377
 30
0.0
 10
232.3950491132447
 20
-353.9360065956142
 30
0.0
 10
232.5069716528214
 20
-354.0479291351887
 30
0.0
 10
232.6450338543928
 20
-354.0479291351887
 30
0.0
 10
232.6907029014191
 20
-354.0479291351887
 30
0.0
 10
232.7311827733709
 20
-354.0323616099609
 30
0.0
 10
232.7680237632162
 20
-354.0109804861081
 30
0.0
 10
232.7680237632162
 20
-354.0109804861081
 30
0.0
 10
233.9654312946552
 20
-356.0849064363804
 30
0.0
 10
233.9654312946552
 20
-356.0849064363804
 30
0.0
 10
233.8908880410931
 20
-356.1281854484126
 30
0.0
 10
233.8384149304834
 20
-356.2055493739046
 30
0.0
 10
233.8384149304834
 20
-356.2979425284535
 30
0.0
 10
233.8384149304834
 20
-356.4360047300197
 30
0.0
 10
233.9503590019072
 20
-356.5479488014461
 30
0.0
 10
234.0884212034786
 20
-356.5479488014461
 30
0.0
 10
234.22648340505
 20
-356.5479488014461
 30
0.0
 10
234.3384274764741
 20
-356.4360047300197
 30
0.0
 10
234.3384274764741
 20
-356.2979425284535
 30
0.0
 10
234.3384274764741
 20
-356.2979425284535
 30
0.0
 10
236.7251680968081
 20
-356.2979425284535
 30
0.0
 10
236.7251680968081
 20
-356.2979425284535
 30
0.0
 10
236.7251680968081
 20
-356.4360047300197
 30
0.0
 10
236.8370906363852
 20
-356.5479488014461
 30
0.0
 10
236.9751743698033
 20
-356.5479488014461
 30
0.0
 10
237.1132365713747
 20
-356.5479488014461
 30
0.0
 10
237.2251806427986
 20
-356.4360047300197
 30
0.0
 10
237.2251806427986
 20
-356.2979425284535
 30
0.0
 10
237.2251806427986
 20
-356.2055493739046
 30
0.0
 10
237.1727075321892
 20
-356.1281854484126
 30
0.0
 10
237.0981642786267
 20
-356.0849064363804
 30
0.0
 10
237.0981642786267
 20
-356.0849064363804
 30
0.0
 10
238.2955502782192
 20
-354.0109804861081
 30
0.0
 10
238.2955502782192
 20
-354.0109804861081
 30
0.0
 10
238.3324127999114
 20
-354.0323616099609
 30
0.0
 10
238.372871140016
 20
-354.0479291351887
 30
0.0
 10
238.4185401870426
 20
-354.0479291351887
 30
0.0
 10
238.556602388614
 20
-354.0479291351887
 30
0.0
 10
238.6685464600375
 20
-353.9360065956142
 30
0.0
 10
238.6685464600375
 20
-353.7979443940377
 30
0.0
 10
238.6685464600375
 20
-353.6598606606234
 30
0.0
 10
238.556602388614
 20
-353.5479381210425
 30
0.0
 10
238.4185401870426
 20
-353.5479381210425
 30
0.0
  0
SPLINE
  5
92
330
70
100
AcDbEntity
  8
Top 3
 62
    18
420
        0
370
    25
100
AcDbSpline
210
0.0
220
0.0
230
1.0
 70
     9
 71
     3
 72
    83
 73
    79
 74
     0
 42
0.0000000001
 43
0.0000000001
 40
0.0
 40
0.0
 40
0.0
 40
0.0
 40
1.0
 40
1.0
 40
1.0
 40
2.0
 40
2.0
 40
2.0
 40
3.0
 40
3.0
 40
3.0
 40
4.0
 40
4.0
 40
4.0
 40
5.0
 40
5.0
 40
5.0
 40
6.0
 40
6.0
 40
6.0
 40
7.0
 40
7.0
 40
7.0
 40
8.0
 40
8.0
 40
8.0
 40
9.0
 40
9.0
 40
9.0
 40
10.0
 40
10.0
 40
10.0
 40
11.0
 40
11.0
 40
11.0
 40
12.0
 40
12.0
 40
12.0
 40
13.0
 40
13.0
 40
13.0
 40
14.0
 40
14.0
 40
14.0
 40
15.0
 40
15.0
 40
15.0
 40
16.0
 40
16.0
 40
16.0
 40
17.0
 40
17.0
 40
17.0
 40
18.0
 40
18.0
 40
18.0
 40
19.0
 40
19.0
 40
19.0
 40
20.0
 40
20.0
 40
20.0
 40
21.0
 40
21.0
 40
21.0
 40
22.0
 40
22.0
 40
22.0
 40
23.0
 40
23.0
 40
23.0
 40
24.0
 40
24.0
 40
24.0
 40
25.0
 40
25.0
 40
25.0
 40
26.0
 40
26.0
 40
26.0
 40
26.0
 10
368.4185401545442
 20
-353.5479381210425
 30
0.0
 10
368.3728711075166
 20
-353.5479381210425
 30
0.0
 10
368.3323912355649
 20
-353.5635056462703
 30
0.0
 10
368.2955502457208
 20
-353.5849083019712
 30
0.0
 10
368.2955502457208
 20
-353.5849083019712
 30
0.0
 10
367.0981642461293
 20
-351.5109823516975
 30
0.0
 10
367.0981642461293
 20
-351.5109823516975
 30
0.0
 10
367.1727074996888
 20
-351.4677033396647
 30
0.0
 10
367.2251806102985
 20
-351.3903394141728
 30
0.0
 10
367.2251806102985
 20
-351.2979462596271
 30
0.0
 10
367.2251806102985
 20
-351.1598625262096
 30
0.0
 10
367.113236538876
 20
-351.0479399866319
 30
0.0
 10
366.9751743373059
 20
-351.0479399866319
 30
0.0
 10
366.8370906038851
 20
-351.0479399866319
 30
0.0
 10
366.7251680643107
 20
-351.1598625262096
 30
0.0
 10
366.7251680643107
 20
-351.2979462596271
 30
0.0
 10
366.7251680643107
 20
-351.2979462596271
 30
0.0
 10
364.3384274439738
 20
-351.2979462596271
 30
0.0
 10
364.3384274439738
 20
-351.2979462596271
 30
0.0
 10
364.3384274439738
 20
-351.1598625262096
 30
0.0
 10
364.2264833725513
 20
-351.0479399866319
 30
0.0
 10
364.0884211709785
 20
-351.0479399866319
 30
0.0
 10
363.9503589694085
 20
-351.0479399866319
 30
0.0
 10
363.8384148979859
 20
-351.1598625262096
 30
0.0
 10
363.8384148979859
 20
-351.2979462596271
 30
0.0
 10
363.8384148979859
 20
-351.3903394141728
 30
0.0
 10
363.8908880085956
 20
-351.4676818078166
 30
0.0
 10
363.9654312621551
 20
-351.5109608198494
 30
0.0
 10
363.9654312621551
 20
-351.5109608198494
 30
0.0
 10
362.7680452625636
 20
-353.5848867701269
 30
0.0
 10
362.7680452625636
 20
-353.5848867701269
 30
0.0
 10
362.7311827408714
 20
-353.5635056462703
 30
0.0
 10
362.6907028689197
 20
-353.5479381210425
 30
0.0
 10
362.6450338218954
 20
-353.5479381210425
 30
0.0
 10
362.5069716203226
 20
-353.5479381210425
 30
0.0
 10
362.3950490807443
 20
-353.6598606606234
 30
0.0
 10
362.3950490807443
 20
-353.7979443940415
 30
0.0
 10
362.3950490807443
 20
-353.9360065956142
 30
0.0
 10
362.5069716203226
 20
-354.0479291351887
 30
0.0
 10
362.6450338218954
 20
-354.0479291351887
 30
0.0
 10
362.6907028689197
 20
-354.0479291351887
 30
0.0
 10
362.7311827408714
 20
-354.0323616099647
 30
0.0
 10
362.7680237307188
 20
-354.0109804861081
 30
0.0
 10
362.7680237307188
 20
-354.0109804861081
 30
0.0
 10
363.9654312621551
 20
-356.0849064363804
 30
0.0
 10
363.9654312621551
 20
-356.0849064363804
 30
0.0
 10
363.8908880085956
 20
-356.1281854484164
 30
0.0
 10
363.8384148979859
 20
-356.2055493739084
 30
0.0
 10
363.8384148979859
 20
-356.2979425284535
 30
0.0
 10
363.8384148979859
 20
-356.4360047300236
 30
0.0
 10
363.9503589694085
 20
-356.5479488014461
 30
0.0
 10
364.0884211709785
 20
-356.5479488014461
 30
0.0
 10
364.2264833725513
 20
-356.5479488014461
 30
0.0
 10
364.3384274439738
 20
-356.4360047300236
 30
0.0
 10
364.3384274439738
 20
-356.2979425284535
 30
0.0
 10
364.3384274439738
 20
-356.2979425284535
 30
0.0
 10
366.7251680643107
 20
-356.2979425284535
 30
0.0
 10
366.7251680643107
 20
-356.2979425284535
 30
0.0
 10
366.7251680643107
 20
-356.4360047300236
 30
0.0
 10
366.8370906038851
 20
-356.5479488014461
 30
0.0
 10
366.9751743373059
 20
-356.5479488014461
 30
0.0
 10
367.113236538876
 20
-356.5479488014461
 30
0.0
 10
367.2251806102985
 20
-356.4360047300236
 30
0.0
 10
367.2251806102985
 20
-356.2979425284535
 30
0.0
 10
367.2251806102985
 20
-356.2055493739084
 30
0.0
 10
367.1727074996888
 20
-356.1281854484164
 30
0.0
 10
367.0981642461293
 20
-356.0849064363804
 30
0.0
 10
367.0981642461293
 20
-356.0849064363804
 30
0.0
 10
368.2955502457208
 20
-354.0109804861081
 30
0.0
 10
368.2955502457208
 20
-354.0109804861081
 30
0.0
 10
368.332412767413
 20
-354.0323616099647
 30
0.0
 10
368.3728711075166
 20
-354.0479291351887
 30
0.0
 10
368.4185401545442
 20
-354.0479291351887
 30
0.0
 10
368.5566023561137
 20
-354.0479291351887
 30
0.0
 10
368.6685464275401
 20
-353.9360065956142
 30
0.0
 10
368.6685464275401
 20
-353.7979443940415
 30
0.0
 10
368.6685464275401
 20
-353.6598606606234
 30
0.0
 10
368.5566023561137
 20
-353.5479381210425
 30
0.0
 10
368.4185401545442
 20
-353.5479381210425
 30
0.0
  0
SPLINE
  5
93
330
70
100
AcDbEntity
  8
Top 3
 62
    18
420
        0
370
    25
100
AcDbSpline
210
0.0
220
0.0
230
1.0
 70
     9
 71
     3
 72
    83
 73
    79
 74
     0
 42
0.0000000001
 43
0.0000000001
 40
0.0
 40
0.0
 40
0.0
 40
0.0
 40
1.0
 40
1.0
 40
1.0
 40
2.0
 40
2.0
 40
2.0
 40
3.0
 40
3.0
 40
3.0
 40
4.0
 40
4.0
 40
4.0
 40
5.0
 40
5.0
 40
5.0
 40
6.0
 40
6.0
 40
6.0
 40
7.0
 40
7.0
 40
7.0
 40
8.0
 40
8.0
 40
8.0
 40
9.0
 40
9.0
 40
9.0
 40
10.0
 40
10.0
 40
10.0
 40
11.0
 40
11.0
 40
11.0
 40
12.0
 40
12.0
 40
12.0
 40
13.0
 40
13.0
 40
13.0
 40
14.0
 40
14.0
 40
14.0
 40
15.0
 40
15.0
 40
15.0
 40
16.0
 40
16.0
 40
16.0
 40
17.0
 40
17.0
 40
17.0
 40
18.0
 40
18.0
 40
18.0
 40
19.0
 40
19.0
 40
19.0
 40
20.0
 40
20.0
 40
20.0
 40
21.0
 40
21.0
 40
21.0
 40
22.0
 40
22.0
 40
22.0
 40
23.0
 40
23.0
 40
23.0
 40
24.0
 40
24.0
 40
24.0
 40
25.0
 40
25.0
 40
25.0
 40
26.0
 40
26.0
 40
26.0
 40
26.0
 10
497.4086462038514
 20
-353.5479381210425
 30
0.0
 10
497.3629771568239
 20
-353.5479381210425
 30
0.0
 10
497.3224972848722
 20
-353.5635056462703
 30
0.0
 10
497.2856562950281
 20
-353.5849083019712
 30
0.0
 10
497.2856562950281
 20
-353.5849083019712
 30
0.0
 10
496.0882702954371
 20
-351.5109823516975
 30
0.0
 10
496.0882702954371
 20
-351.5109823516975
 30
0.0
 10
496.162813548996
 20
-351.4677033396653
 30
0.0
 10
496.215286659609
 20
-351.3903394141734
 30
0.0
 10
496.215286659609
 20
-351.2979462596271
 30
0.0
 10
496.215286659609
 20
-351.1598625262102
 30
0.0
 10
496.1033425881833
 20
-351.0479399866319
 30
0.0
 10
495.9652803866138
 20
-351.0479399866319
 30
0.0
 10
495.8271966531956
 20
-351.0479399866319
 30
0.0
 10
495.7152741136179
 20
-351.1598625262102
 30
0.0
 10
495.7152741136179
 20
-351.2979462596271
 30
0.0
 10
495.7152741136179
 20
-351.2979462596271
 30
0.0
 10
493.328533493281
 20
-351.2979462596271
 30
0.0
 10
493.328533493281
 20
-351.2979462596271
 30
0.0
 10
493.328533493281
 20
-351.1598625262102
 30
0.0
 10
493.2165894218585
 20
-351.0479399866319
 30
0.0
 10
493.078527220289
 20
-351.0479399866319
 30
0.0
 10
492.9404650187158
 20
-351.0479399866319
 30
0.0
 10
492.8285209472938
 20
-351.1598625262102
 30
0.0
 10
492.8285209472938
 20
-351.2979462596271
 30
0.0
 10
492.8285209472938
 20
-351.3903394141734
 30
0.0
 10
492.8809940579029
 20
-351.4676818078172
 30
0.0
 10
492.9555373114657
 20
-351.5109608198494
 30
0.0
 10
492.9555373114657
 20
-351.5109608198494
 30
0.0
 10
491.7581513118709
 20
-353.5848867701269
 30
0.0
 10
491.7581513118709
 20
-353.5848867701269
 30
0.0
 10
491.7212887901787
 20
-353.5635056462703
 30
0.0
 10
491.680808918227
 20
-353.5479381210425
 30
0.0
 10
491.6351398712032
 20
-353.5479381210425
 30
0.0
 10
491.4970776696299
 20
-353.5479381210425
 30
0.0
 10
491.3851551300516
 20
-353.6598606606234
 30
0.0
 10
491.3851551300516
 20
-353.7979443940415
 30
0.0
 10
491.3851551300516
 20
-353.9360065956142
 30
0.0
 10
491.4970776696299
 20
-354.0479291351887
 30
0.0
 10
491.6351398712032
 20
-354.0479291351887
 30
0.0
 10
491.680808918227
 20
-354.0479291351887
 30
0.0
 10
491.7212887901787
 20
-354.0323616099647
 30
0.0
 10
491.7581297800267
 20
-354.0109804861081
 30
0.0
 10
491.7581297800267
 20
-354.0109804861081
 30
0.0
 10
492.9555373114657
 20
-356.0849064363804
 30
0.0
 10
492.9555373114657
 20
-356.0849064363804
 30
0.0
 10
492.8809940579029
 20
-356.1281854484164
 30
0.0
 10
492.8285209472938
 20
-356.2055493739084
 30
0.0
 10
492.8285209472938
 20
-356.2979425284535
 30
0.0
 10
492.8285209472938
 20
-356.4360047300236
 30
0.0
 10
492.9404650187158
 20
-356.5479488014461
 30
0.0
 10
493.078527220289
 20
-356.5479488014461
 30
0.0
 10
493.2165894218585
 20
-356.5479488014461
 30
0.0
 10
493.328533493281
 20
-356.4360047300236
 30
0.0
 10
493.328533493281
 20
-356.2979425284535
 30
0.0
 10
493.328533493281
 20
-356.2979425284535
 30
0.0
 10
495.7152741136179
 20
-356.2979425284535
 30
0.0
 10
495.7152741136179
 20
-356.2979425284535
 30
0.0
 10
495.7152741136179
 20
-356.4360047300236
 30
0.0
 10
495.8271966531956
 20
-356.5479488014461
 30
0.0
 10
495.9652803866138
 20
-356.5479488014461
 30
0.0
 10
496.1033425881833
 20
-356.5479488014461
 30
0.0
 10
496.215286659609
 20
-356.4360047300236
 30
0.0
 10
496.215286659609
 20
-356.2979425284535
 30
0.0
 10
496.215286659609
 20
-356.2055493739084
 30
0.0
 10
496.162813548996
 20
-356.1281854484164
 30
0.0
 10
496.0882702954371
 20
-356.0849064363804
 30
0.0
 10
496.0882702954371
 20
-356.0849064363804
 30
0.0
 10
497.2856562950281
 20
-354.0109804861081
 30
0.0
 10
497.2856562950281
 20
-354.0109804861081
 30
0.0
 10
497.3225188167202
 20
-354.0323616099647
 30
0.0
 10
497.3629771568239
 20
-354.0479291351887
 30
0.0
 10
497.4086462038514
 20
-354.0479291351887
 30
0.0
 10
497.5467084054209
 20
-354.0479291351887
 30
0.0
 10
497.6586524768473
 20
-353.9360065956142
 30
0.0
 10
497.6586524768473
 20
-353.7979443940415
 30
0.0
 10
497.6586524768473
 20
-353.6598606606234
 30
0.0
 10
497.5467084054209
 20
-353.5479381210425
 30
0.0
 10
497.4086462038514
 20
-353.5479381210425
 30
0.0
  0
SPLINE
  5
94
330
70
100
AcDbEntity
  8
Top 3
 62
    18
420
        0
370
    25
100
AcDbSpline
210
0.0
220
0.0
230
1.0
 70
     9
 71
     3
 72
    83
 73
    79
 74
     0
 42
0.0000000001
 43
0.0000000001
 40
0.0
 40
0.0
 40
0.0
 40
0.0
 40
1.0
 40
1.0
 40
1.0
 40
2.0
 40
2.0
 40
2.0
 40
3.0
 40
3.0
 40
3.0
 40
4.0
 40
4.0
 40
4.0
 40
5.0
 40
5.0
 40
5.0
 40
6.0
 40
6.0
 40
6.0
 40
7.0
 40
7.0
 40
7.0
 40
8.0
 40
8.0
 40
8.0
 40
9.0
 40
9.0
 40
9.0
 40
10.0
 40
10.0
 40
10.0
 40
11.0
 40
11.0
 40
11.0
 40
12.0
 40
12.0
 40
12.0
 40
13.0
 40
13.0
 40
13.0
 40
14.0
 40
14.0
 40
14.0
 40
15.0
 40
15.0
 40
15.0
 40
16.0
 40
16.0
 40
16.0
 40
17.0
 40
17.0
 40
17.0
 40
18.0
 40
18.0
 40
18.0
 40
19.0
 40
19.0
 40
19.0
 40
20.0
 40
20.0
 40
20.0
 40
21.0
 40
21.0
 40
21.0
 40
22.0
 40
22.0
 40
22.0
 40
23.0
 40
23.0
 40
23.0
 40
24.0
 40
24.0
 40
24.0
 40
25.0
 40
25.0
 40
25.0
 40
26.0
 40
26.0
 40
26.0
 40
26.0
 10
148.3211864615674
 20
-280.5477747327515
 30
0.0
 10
148.275517414541
 20
-280.5477747327515
 30
0.0
 10
148.2350375425894
 20
-280.5633422579764
 30
0.0
 10
148.1981965527439
 20
-280.5847449136779
 30
0.0
 10
148.1981965527439
 20
-280.5847449136779
 30
0.0
 10
147.0008105531518
 20
-278.5108189634059
 30
0.0
 10
147.0008105531518
 20
-278.5108189634059
 30
0.0
 10
147.0753538067139
 20
-278.4675399513728
 30
0.0
 10
147.1278269173236
 20
-278.3901760258808
 30
0.0
 10
147.1278269173236
 20
-278.2977828713348
 30
0.0
 10
147.1278269173236
 20
-278.1596991379176
 30
0.0
 10
147.0158828458998
 20
-278.04777659834
 30
0.0
 10
146.8778206443284
 20
-278.04777659834
 30
0.0
 10
146.7397369109102
 20
-278.04777659834
 30
0.0
 10
146.6278143713332
 20
-278.1596991379176
 30
0.0
 10
146.6278143713332
 20
-278.2977828713348
 30
0.0
 10
146.6278143713332
 20
-278.2977828713348
 30
0.0
 10
144.2410737509989
 20
-278.2977828713348
 30
0.0
 10
144.2410737509989
 20
-278.2977828713348
 30
0.0
 10
144.2410737509989
 20
-278.1596991379176
 30
0.0
 10
144.129129679575
 20
-278.04777659834
 30
0.0
 10
143.9910674780036
 20
-278.04777659834
 30
0.0
 10
143.8530052764322
 20
-278.04777659834
 30
0.0
 10
143.7410612050084
 20
-278.1596991379176
 30
0.0
 10
143.7410612050084
 20
-278.2977828713348
 30
0.0
 10
143.7410612050084
 20
-278.3901760258808
 30
0.0
 10
143.7935343156181
 20
-278.4675184195247
 30
0.0
 10
143.8680775691802
 20
-278.5107974315575
 30
0.0
 10
143.8680775691802
 20
-278.5107974315575
 30
0.0
 10
142.6706915695881
 20
-280.5847233818331
 30
0.0
 10
142.6706915695881
 20
-280.5847233818331
 30
0.0
 10
142.6338290478959
 20
-280.5633422579764
 30
0.0
 10
142.5933491759442
 20
-280.5477747327515
 30
0.0
 10
142.5476801289178
 20
-280.5477747327515
 30
0.0
 10
142.4096179273465
 20
-280.5477747327515
 30
0.0
 10
142.2976953877694
 20
-280.6596972723305
 30
0.0
 10
142.2976953877694
 20
-280.7977810057477
 30
0.0
 10
142.2976953877694
 20
-280.9358432073207
 30
0.0
 10
142.4096179273465
 20
-281.0477657468955
 30
0.0
 10
142.5476801289178
 20
-281.0477657468955
 30
0.0
 10
142.5933491759442
 20
-281.0477657468955
 30
0.0
 10
142.6338290478959
 20
-281.0321982216709
 30
0.0
 10
142.6706700377413
 20
-281.0108170978175
 30
0.0
 10
142.6706700377413
 20
-281.0108170978175
 30
0.0
 10
143.8680775691802
 20
-283.0847430480895
 30
0.0
 10
143.8680775691802
 20
-283.0847430480895
 30
0.0
 10
143.7935343156181
 20
-283.1280220601227
 30
0.0
 10
143.7410612050084
 20
-283.2053859856145
 30
0.0
 10
143.7410612050084
 20
-283.2977791401606
 30
0.0
 10
143.7410612050084
 20
-283.4358413417297
 30
0.0
 10
143.8530052764322
 20
-283.5477854131554
 30
0.0
 10
143.9910674780036
 20
-283.5477854131554
 30
0.0
 10
144.129129679575
 20
-283.5477854131554
 30
0.0
 10
144.2410737509989
 20
-283.4358413417297
 30
0.0
 10
144.2410737509989
 20
-283.2977791401606
 30
0.0
 10
144.2410737509989
 20
-283.2977791401606
 30
0.0
 10
146.6278143713332
 20
-283.2977791401606
 30
0.0
 10
146.6278143713332
 20
-283.2977791401606
 30
0.0
 10
146.6278143713332
 20
-283.4358413417297
 30
0.0
 10
146.7397369109102
 20
-283.5477854131554
 30
0.0
 10
146.8778206443284
 20
-283.5477854131554
 30
0.0
 10
147.0158828458998
 20
-283.5477854131554
 30
0.0
 10
147.1278269173236
 20
-283.4358413417297
 30
0.0
 10
147.1278269173236
 20
-283.2977791401606
 30
0.0
 10
147.1278269173236
 20
-283.2053859856145
 30
0.0
 10
147.0753538067139
 20
-283.1280220601227
 30
0.0
 10
147.0008105531518
 20
-283.0847430480895
 30
0.0
 10
147.0008105531518
 20
-283.0847430480895
 30
0.0
 10
148.1981965527439
 20
-281.0108170978175
 30
0.0
 10
148.1981965527439
 20
-281.0108170978175
 30
0.0
 10
148.2350590744361
 20
-281.0321982216709
 30
0.0
 10
148.275517414541
 20
-281.0477657468955
 30
0.0
 10
148.3211864615674
 20
-281.0477657468955
 30
0.0
 10
148.4592486631387
 20
-281.0477657468955
 30
0.0
 10
148.5711927345626
 20
-280.9358432073207
 30
0.0
 10
148.5711927345626
 20
-280.7977810057477
 30
0.0
 10
148.5711927345626
 20
-280.6596972723305
 30
0.0
 10
148.4592486631387
 20
-280.5477747327515
 30
0.0
 10
148.3211864615674
 20
-280.5477747327515
 30
0.0
  0
SPLINE
  5
95
330
70
100
AcDbEntity
  8
Top 3
 62
    18
420
        0
370
    25
100
AcDbSpline
210
0.0
220
0.0
230
1.0
 70
     9
 71
     3
 72
    83
 73
    79
 74
     0
 42
0.0000000001
 43
0.0000000001
 40
0.0
 40
0.0
 40
0.0
 40
0.0
 40
1.0
 40
1.0
 40
1.0
 40
2.0
 40
2.0
 40
2.0
 40
3.0
 40
3.0
 40
3.0
 40
4.0
 40
4.0
 40
4.0
 40
5.0
 40
5.0
 40
5.0
 40
6.0
 40
6.0
 40
6.0
 40
7.0
 40
7.0
 40
7.0
 40
8.0
 40
8.0
 40
8.0
 40
9.0
 40
9.0
 40
9.0
 40
10.0
 40
10.0
 40
10.0
 40
11.0
 40
11.0
 40
11.0
 40
12.0
 40
12.0
 40
12.0
 40
13.0
 40
13.0
 40
13.0
 40
14.0
 40
14.0
 40
14.0
 40
15.0
 40
15.0
 40
15.0
 40
16.0
 40
16.0
 40
16.0
 40
17.0
 40
17.0
 40
17.0
 40
18.0
 40
18.0
 40
18.0
 40
19.0
 40
19.0
 40
19.0
 40
20.0
 40
20.0
 40
20.0
 40
21.0
 40
21.0
 40
21.0
 40
22.0
 40
22.0
 40
22.0
 40
23.0
 40
23.0
 40
23.0
 40
24.0
 40
24.0
 40
24.0
 40
25.0
 40
25.0
 40
25.0
 40
26.0
 40
26.0
 40
26.0
 40
26.0
 10
497.4086351076039
 20
-280.5477747327538
 30
0.0
 10
497.3629660605801
 20
-280.5477747327538
 30
0.0
 10
497.3224861886284
 20
-280.5633422579781
 30
0.0
 10
497.2856451987805
 20
-280.5847449136798
 30
0.0
 10
497.2856451987805
 20
-280.5847449136798
 30
0.0
 10
496.0882591991896
 20
-278.5108189634075
 30
0.0
 10
496.0882591991896
 20
-278.5108189634075
 30
0.0
 10
496.1628024527524
 20
-278.4675399513747
 30
0.0
 10
496.2152755633614
 20
-278.3901760258824
 30
0.0
 10
496.2152755633614
 20
-278.2977828713371
 30
0.0
 10
496.2152755633614
 20
-278.1596991379192
 30
0.0
 10
496.1033314919388
 20
-278.0477765983419
 30
0.0
 10
495.9652692903662
 20
-278.0477765983419
 30
0.0
 10
495.827185556948
 20
-278.0477765983419
 30
0.0
 10
495.7152630173704
 20
-278.1596991379192
 30
0.0
 10
495.7152630173704
 20
-278.2977828713371
 30
0.0
 10
495.7152630173704
 20
-278.2977828713371
 30
0.0
 10
493.3285223970373
 20
-278.2977828713371
 30
0.0
 10
493.3285223970373
 20
-278.2977828713371
 30
0.0
 10
493.3285223970373
 20
-278.1596991379192
 30
0.0
 10
493.2165783256116
 20
-278.0477765983419
 30
0.0
 10
493.0785161240414
 20
-278.0477765983419
 30
0.0
 10
492.9404539224687
 20
-278.0477765983419
 30
0.0
 10
492.8285098510462
 20
-278.1596991379192
 30
0.0
 10
492.8285098510462
 20
-278.2977828713371
 30
0.0
 10
492.8285098510462
 20
-278.3901760258824
 30
0.0
 10
492.8809829616553
 20
-278.4675184195263
 30
0.0
 10
492.955526215218
 20
-278.5107974315595
 30
0.0
 10
492.955526215218
 20
-278.5107974315595
 30
0.0
 10
491.7581402156272
 20
-280.584723381835
 30
0.0
 10
491.7581402156272
 20
-280.584723381835
 30
0.0
 10
491.721277693935
 20
-280.5633422579781
 30
0.0
 10
491.6807978219833
 20
-280.5477747327538
 30
0.0
 10
491.6351287749557
 20
-280.5477747327538
 30
0.0
 10
491.4970665733855
 20
-280.5477747327538
 30
0.0
 10
491.3851440338079
 20
-280.6596972723321
 30
0.0
 10
491.3851440338079
 20
-280.7977810057493
 30
0.0
 10
491.3851440338079
 20
-280.9358432073229
 30
0.0
 10
491.4970665733855
 20
-281.0477657468974
 30
0.0
 10
491.6351287749557
 20
-281.0477657468974
 30
0.0
 10
491.6807978219833
 20
-281.0477657468974
 30
0.0
 10
491.721277693935
 20
-281.0321982216731
 30
0.0
 10
491.7581186837791
 20
-281.0108170978194
 30
0.0
 10
491.7581186837791
 20
-281.0108170978194
 30
0.0
 10
492.955526215218
 20
-283.0847430480917
 30
0.0
 10
492.955526215218
 20
-283.0847430480917
 30
0.0
 10
492.8809829616553
 20
-283.1280220601249
 30
0.0
 10
492.8285098510462
 20
-283.2053859856161
 30
0.0
 10
492.8285098510462
 20
-283.2977791401622
 30
0.0
 10
492.8285098510462
 20
-283.4358413417319
 30
0.0
 10
492.9404539224687
 20
-283.5477854131574
 30
0.0
 10
493.0785161240414
 20
-283.5477854131574
 30
0.0
 10
493.2165783256116
 20
-283.5477854131574
 30
0.0
 10
493.3285223970373
 20
-283.4358413417319
 30
0.0
 10
493.3285223970373
 20
-283.2977791401622
 30
0.0
 10
493.3285223970373
 20
-283.2977791401622
 30
0.0
 10
495.7152630173704
 20
-283.2977791401622
 30
0.0
 10
495.7152630173704
 20
-283.2977791401622
 30
0.0
 10
495.7152630173704
 20
-283.4358413417319
 30
0.0
 10
495.827185556948
 20
-283.5477854131574
 30
0.0
 10
495.9652692903662
 20
-283.5477854131574
 30
0.0
 10
496.1033314919388
 20
-283.5477854131574
 30
0.0
 10
496.2152755633614
 20
-283.4358413417319
 30
0.0
 10
496.2152755633614
 20
-283.2977791401622
 30
0.0
 10
496.2152755633614
 20
-283.2053859856161
 30
0.0
 10
496.1628024527524
 20
-283.1280220601249
 30
0.0
 10
496.0882591991896
 20
-283.0847430480917
 30
0.0
 10
496.0882591991896
 20
-283.0847430480917
 30
0.0
 10
497.2856451987805
 20
-281.0108170978194
 30
0.0
 10
497.2856451987805
 20
-281.0108170978194
 30
0.0
 10
497.3225077204727
 20
-281.0321982216731
 30
0.0
 10
497.3629660605801
 20
-281.0477657468974
 30
0.0
 10
497.4086351076039
 20
-281.0477657468974
 30
0.0
 10
497.5466973091772
 20
-281.0477657468974
 30
0.0
 10
497.6586413805997
 20
-280.9358432073229
 30
0.0
 10
497.6586413805997
 20
-280.7977810057493
 30
0.0
 10
497.6586413805997
 20
-280.6596972723321
 30
0.0
 10
497.5466973091772
 20
-280.5477747327538
 30
0.0
 10
497.4086351076039
 20
-280.5477747327538
 30
0.0
  0
SPLINE
  5
96
330
70
100
AcDbEntity
  8
Top 3
 62
    18
420
        0
370
    25
100
AcDbSpline
210
0.0
220
0.0
230
1.0
 70
     9
 71
     3
 72
    83
 73
    79
 74
     0
 42
0.0000000001
 43
0.0000000001
 40
0.0
 40
0.0
 40
0.0
 40
0.0
 40
1.0
 40
1.0
 40
1.0
 40
2.0
 40
2.0
 40
2.0
 40
3.0
 40
3.0
 40
3.0
 40
4.0
 40
4.0
 40
4.0
 40
5.0
 40
5.0
 40
5.0
 40
6.0
 40
6.0
 40
6.0
 40
7.0
 40
7.0
 40
7.0
 40
8.0
 40
8.0
 40
8.0
 40
9.0
 40
9.0
 40
9.0
 40
10.0
 40
10.0
 40
10.0
 40
11.0
 40
11.0
 40
11.0
 40
12.0
 40
12.0
 40
12.0
 40
13.0
 40
13.0
 40
13.0
 40
14.0
 40
14.0
 40
14.0
 40
15.0
 40
15.0
 40
15.0
 40
16.0
 40
16.0
 40
16.0
 40
17.0
 40
17.0
 40
17.0
 40
18.0
 40
18.0
 40
18.0
 40
19.0
 40
19.0
 40
19.0
 40
20.0
 40
20.0
 40
20.0
 40
21.0
 40
21.0
 40
21.0
 40
22.0
 40
22.0
 40
22.0
 40
23.0
 40
23.0
 40
23.0
 40
24.0
 40
24.0
 40
24.0
 40
25.0
 40
25.0
 40
25.0
 40
26.0
 40
26.0
 40
26.0
 40
26.0
 10
238.4074371664636
 20
-288.0571907378536
 30
0.0
 10
238.3627660976872
 20
-288.0476956090681
 30
0.0
 10
238.3199341375681
 20
-288.0545067078946
 30
0.0
 10
238.2794483494073
 20
-288.0677819917281
 30
0.0
 10
238.2794483494073
 20
-288.0677819917281
 30
0.0
 10
237.5394215577061
 20
-285.7902257516331
 30
0.0
 10
237.5394215577061
 20
-285.7902257516331
 30
0.0
 10
237.6213340748973
 20
-285.7633909037379
 30
0.0
 10
237.6887453867007
 20
-285.6986273387842
 30
0.0
 10
237.7079550036822
 20
-285.6082531963409
 30
0.0
 10
237.7366642261716
 20
-285.4731869237983
 30
0.0
 10
237.6504364057361
 20
-285.3404356790755
 30
0.0
 10
237.5153911945171
 20
-285.3117309333089
 30
0.0
 10
237.3803249219738
 20
-285.2830217108195
 30
0.0
 10
237.2475781539742
 20
-285.3692284699311
 30
0.0
 10
237.2188689314847
 20
-285.504294742474
 30
0.0
 10
237.2188689314847
 20
-285.504294742474
 30
0.0
 10
234.8842843201308
 20
-285.008063464557
 30
0.0
 10
234.8842843201308
 20
-285.008063464557
 30
0.0
 10
234.9129935426206
 20
-284.8729971920141
 30
0.0
 10
234.8267657221851
 20
-284.7402459472913
 30
0.0
 10
234.6917205109657
 20
-284.7115412015248
 30
0.0
 10
234.5566752997466
 20
-284.6828364557581
 30
0.0
 10
234.4239074704229
 20
-284.7690387381472
 30
0.0
 10
234.3951982479334
 20
-284.9041050106899
 30
0.0
 10
234.3759886309519
 20
-284.9944791531332
 30
0.0
 10
234.4112346903637
 20
-285.0810412030601
 30
0.0
 10
234.4751507824176
 20
-285.1388728787297
 30
0.0
 10
234.4751507824176
 20
-285.1388728787297
 30
0.0
 10
232.8727370888115
 20
-286.9185280233542
 30
0.0
 10
232.8727370888115
 20
-286.9185280233542
 30
0.0
 10
232.8411254872741
 20
-286.8899499791401
 30
0.0
 10
232.8047668681378
 20
-286.8663064030709
 30
0.0
 10
232.760095799361
 20
-286.8568112742853
 30
0.0
 10
232.6250505881422
 20
-286.8281065285186
 30
0.0
 10
232.4923038201423
 20
-286.9143132876309
 30
0.0
 10
232.4635945976532
 20
-287.0493795601738
 30
0.0
 10
232.4348898518863
 20
-287.1844247713948
 30
0.0
 10
232.5210966109976
 20
-287.3171715393919
 30
0.0
 10
232.656141822217
 20
-287.3458762851584
 30
0.0
 10
232.7008128909934
 20
-287.3553714139435
 30
0.0
 10
232.7436448511122
 20
-287.3485603151175
 30
0.0
 10
232.7841261625501
 20
-287.3353060926095
 30
0.0
 10
232.7841261625501
 20
-287.3353060926095
 30
0.0
 10
233.5241740155761
 20
-289.6128668094273
 30
0.0
 10
233.5241740155761
 20
-289.6128668094273
 30
0.0
 10
233.4422614983849
 20
-289.6397016573221
 30
0.0
 10
233.3748501865812
 20
-289.7044652222762
 30
0.0
 10
233.3556405695998
 20
-289.7948393647192
 30
0.0
 10
233.3269358238335
 20
-289.9298845759363
 30
0.0
 10
233.4131591675461
 20
-290.0626568819845
 30
0.0
 10
233.5482043787649
 20
-290.0913616277514
 30
0.0
 10
233.683249589984
 20
-290.1200663735181
 30
0.0
 10
233.8160218960306
 20
-290.0338430298032
 30
0.0
 10
233.8447266417972
 20
-289.8987978185861
 30
0.0
 10
233.8447266417972
 20
-289.8987978185861
 30
0.0
 10
236.1793112531511
 20
-290.3950290965034
 30
0.0
 10
236.1793112531511
 20
-290.3950290965034
 30
0.0
 10
236.1506065073848
 20
-290.5300743077205
 30
0.0
 10
236.236808789773
 20
-290.6628421370458
 30
0.0
 10
236.3718750623162
 20
-290.6915513595353
 30
0.0
 10
236.5069202735353
 20
-290.7202561053022
 30
0.0
 10
236.6396925795819
 20
-290.6340327615874
 30
0.0
 10
236.6683973253485
 20
-290.4989875503702
 30
0.0
 10
236.6876069423303
 20
-290.4086134079273
 30
0.0
 10
236.6523653596417
 20
-290.3220302966746
 30
0.0
 10
236.5884492675871
 20
-290.2641986210056
 30
0.0
 10
236.5884492675871
 20
-290.2641986210056
 30
0.0
 10
238.1908629611927
 20
-288.4845434763837
 30
0.0
 10
238.1908629611927
 20
-288.4845434763837
 30
0.0
 10
238.2224745627313
 20
-288.5131215205946
 30
0.0
 10
238.2588121205429
 20
-288.5367606199415
 30
0.0
 10
238.3034831893193
 20
-288.5462557487265
 30
0.0
 10
238.4385284005384
 20
-288.5749604944934
 30
0.0
 10
238.5712962298618
 20
-288.4887582121073
 30
0.0
 10
238.6000009756287
 20
-288.3537130008862
 30
0.0
 10
238.6287101981178
 20
-288.2186467283436
 30
0.0
 10
238.542482377683
 20
-288.0858954836205
 30
0.0
 10
238.4074371664636
 20
-288.0571907378536
 30
0.0
  0
SPLINE
  5
97
330
70
100
AcDbEntity
  8
Top 3
 62
    18
420
        0
370
    25
100
AcDbSpline
210
0.0
220
0.0
230
1.0
 70
     9
 71
     3
 72
    83
 73
    79
 74
     0
 42
0.0000000001
 43
0.0000000001
 40
0.0
 40
0.0
 40
0.0
 40
0.0
 40
1.0
 40
1.0
 40
1.0
 40
2.0
 40
2.0
 40
2.0
 40
3.0
 40
3.0
 40
3.0
 40
4.0
 40
4.0
 40
4.0
 40
5.0
 40
5.0
 40
5.0
 40
6.0
 40
6.0
 40
6.0
 40
7.0
 40
7.0
 40
7.0
 40
8.0
 40
8.0
 40
8.0
 40
9.0
 40
9.0
 40
9.0
 40
10.0
 40
10.0
 40
10.0
 40
11.0
 40
11.0
 40
11.0
 40
12.0
 40
12.0
 40
12.0
 40
13.0
 40
13.0
 40
13.0
 40
14.0
 40
14.0
 40
14.0
 40
15.0
 40
15.0
 40
15.0
 40
16.0
 40
16.0
 40
16.0
 40
17.0
 40
17.0
 40
17.0
 40
18.0
 40
18.0
 40
18.0
 40
19.0
 40
19.0
 40
19.0
 40
20.0
 40
20.0
 40
20.0
 40
21.0
 40
21.0
 40
21.0
 40
22.0
 40
22.0
 40
22.0
 40
23.0
 40
23.0
 40
23.0
 40
24.0
 40
24.0
 40
24.0
 40
25.0
 40
25.0
 40
25.0
 40
26.0
 40
26.0
 40
26.0
 40
26.0
 10
368.3034786800992
 20
-286.8645450170616
 30
0.0
 10
368.2588076113197
 20
-286.8740401458467
 30
0.0
 10
368.2224489921839
 20
-286.8976837219161
 30
0.0
 10
368.1908629286952
 20
-286.9262783507299
 30
0.0
 10
368.1908629286952
 20
-286.9262783507299
 30
0.0
 10
366.588449235089
 20
-285.1466232061083
 30
0.0
 10
366.588449235089
 20
-285.1466232061083
 30
0.0
 10
366.6523653271417
 20
-285.0887915304393
 30
0.0
 10
366.6876069098296
 20
-285.0022084191866
 30
0.0
 10
366.668397292851
 20
-284.9118342767433
 30
0.0
 10
366.6396880703609
 20
-284.7767680042007
 30
0.0
 10
366.5069202410368
 20
-284.6905657218116
 30
0.0
 10
366.3718750298162
 20
-284.7192704675782
 30
0.0
 10
366.2368087572726
 20
-284.7479796900677
 30
0.0
 10
366.1506019981606
 20
-284.8807264580675
 30
0.0
 10
366.1793112206507
 20
-285.0157927306102
 30
0.0
 10
366.1793112206507
 20
-285.0157927306102
 30
0.0
 10
363.8447266092978
 20
-285.5120240085275
 30
0.0
 10
363.8447266092978
 20
-285.5120240085275
 30
0.0
 10
363.8160173868077
 20
-285.3769577359846
 30
0.0
 10
363.6832495574836
 20
-285.2907554535955
 30
0.0
 10
363.5482043462668
 20
-285.3194601993624
 30
0.0
 10
363.4131591350461
 20
-285.348164945129
 30
0.0
 10
363.3269313146112
 20
-285.4809161898518
 30
0.0
 10
363.3556405371014
 20
-285.6159824623944
 30
0.0
 10
363.3748501540832
 20
-285.7063566048374
 30
0.0
 10
363.4422569891639
 20
-285.771099108466
 30
0.0
 10
363.5241695063529
 20
-285.7979339563609
 30
0.0
 10
363.5241695063529
 20
-285.7979339563609
 30
0.0
 10
362.784142714652
 20
-288.0754901964593
 30
0.0
 10
362.784142714652
 20
-288.0754901964593
 30
0.0
 10
362.7436403418918
 20
-288.0622404506706
 30
0.0
 10
362.7008083817724
 20
-288.0554293518443
 30
0.0
 10
362.656137312996
 20
-288.0649244806297
 30
0.0
 10
362.521092101776
 20
-288.0936292263966
 30
0.0
 10
362.434885342664
 20
-288.2263759943974
 30
0.0
 10
362.4635945651541
 20
-288.3614422669397
 30
0.0
 10
362.492299310922
 20
-288.496487478161
 30
0.0
 10
362.6250460789193
 20
-288.5826942372694
 30
0.0
 10
362.76009129014
 20
-288.5539894915025
 30
0.0
 10
362.8047623589158
 20
-288.5444943627174
 30
0.0
 10
362.8411209780515
 20
-288.520850786648
 30
0.0
 10
362.872711518265
 20
-288.4922772191597
 30
0.0
 10
362.872711518265
 20
-288.4922772191597
 30
0.0
 10
364.4751462731954
 20
-290.2719278870587
 30
0.0
 10
364.4751462731954
 20
-290.2719278870587
 30
0.0
 10
364.4112301811428
 20
-290.3297595627281
 30
0.0
 10
364.3759885984516
 20
-290.4163426739804
 30
0.0
 10
364.3951982154334
 20
-290.506716816424
 30
0.0
 10
364.4239029612013
 20
-290.6417620276409
 30
0.0
 10
364.5566752672475
 20
-290.7279853713554
 30
0.0
 10
364.6917204784683
 20
-290.6992806255888
 30
0.0
 10
364.8267656896851
 20
-290.6705758798225
 30
0.0
 10
364.9129890333983
 20
-290.537803573774
 30
0.0
 10
364.8842842876337
 20
-290.4027583625565
 30
0.0
 10
364.8842842876337
 20
-290.4027583625565
 30
0.0
 10
367.2188688989866
 20
-289.9065270846395
 30
0.0
 10
367.2188688989866
 20
-289.9065270846395
 30
0.0
 10
367.2475736447513
 20
-290.0415722958566
 30
0.0
 10
367.380324889474
 20
-290.1278001162944
 30
0.0
 10
367.5153911620177
 20
-290.0990908938046
 30
0.0
 10
367.6504363732383
 20
-290.070386148038
 30
0.0
 10
367.7366597169477
 20
-289.9376138419895
 30
0.0
 10
367.7079549711837
 20
-289.8025686307729
 30
0.0
 10
367.6887453542019
 20
-289.7121944883297
 30
0.0
 10
367.6213340423989
 20
-289.6474309233756
 30
0.0
 10
367.5394215252061
 20
-289.6205960754807
 30
0.0
 10
367.5394215252061
 20
-289.6205960754807
 30
0.0
 10
368.2794483169076
 20
-287.3430398353855
 30
0.0
 10
368.2794483169076
 20
-287.3430398353855
 30
0.0
 10
368.319950689671
 20
-287.356289581171
 30
0.0
 10
368.3627615884669
 20
-287.3631051567199
 30
0.0
 10
368.4074326572426
 20
-287.3536100279345
 30
0.0
 10
368.5424778684595
 20
-287.3249052821679
 30
0.0
 10
368.6287056888982
 20
-287.1921540374483
 30
0.0
 10
368.6000009431303
 20
-287.0571088262273
 30
0.0
 10
368.5712917206402
 20
-286.9220425536844
 30
0.0
 10
368.4385238913161
 20
-286.8358402712947
 30
0.0
 10
368.3034786800992
 20
-286.8645450170616
 30
0.0
  0
SPLINE
  5
99
330
70
100
AcDbEntity
  8
Top 2
 62
    18
420
        0
370
    25
100
AcDbSpline
210
0.0
220
0.0
230
1.0
 70
     9
 71
     3
 72
    41
 73
    37
 74
     0
 42
0.0000000001
 43
0.0000000001
 40
0.0
 40
0.0
 40
0.0
 40
0.0
 40
1.0
 40
1.0
 40
1.0
 40
2.0
 40
2.0
 40
2.0
 40
3.0
 40
3.0
 40
3.0
 40
4.0
 40
4.0
 40
4.0
 40
5.0
 40
5.0
 40
5.0
 40
6.0
 40
6.0
 40
6.0
 40
7.0
 40
7.0
 40
7.0
 40
8.0
 40
8.0
 40
8.0
 40
9.0
 40
9.0
 40
9.0
 40
10.0
 40
10.0
 40
10.0
 40
11.0
 40
11.0
 40
11.0
 40
12.0
 40
12.0
 40
12.0
 40
12.0
 10
499.5218151098439
 20
-271.7977262606406
 30
0.0
 10
499.5218151098439
 20
-271.7977262606406
 30
0.0
 10
393.1973594404977
 20
-271.7977262606406
 30
0.0
 10
393.1973594404977
 20
-271.7977262606406
 30
0.0
 10
393.1973594404977
 20
-271.7977262606406
 30
0.0
 10
310.7358984151074
 20
-288.799616989897
 30
0.0
 10
310.7358984151074
 20
-288.799616989897
 30
0.0
 10
310.7358984151074
 20
-288.799616989897
 30
0.0
 10
290.3276695248102
 20
-288.799616989897
 30
0.0
 10
290.3276695248102
 20
-288.799616989897
 30
0.0
 10
290.3276695248102
 20
-288.799616989897
 30
0.0
 10
207.8662084994186
 20
-271.7977262606406
 30
0.0
 10
207.8662084994186
 20
-271.7977262606406
 30
0.0
 10
207.8662084994186
 20
-271.7977262606406
 30
0.0
 10
140.4344169248791
 20
-271.7977262606406
 30
0.0
 10
140.4344169248791
 20
-271.7977262606406
 30
0.0
 10
139.3298474254937
 20
-271.7977262606406
 30
0.0
 10
138.4344169253792
 20
-272.6931567607554
 30
0.0
 10
138.4344169253792
 20
-273.7977262601404
 30
0.0
 10
138.4344169253792
 20
-273.7977262601404
 30
0.0
 10
138.4344169253792
 20
-356.7978607354228
 30
0.0
 10
138.4344169253792
 20
-356.7978607354228
 30
0.0
 10
138.4344169253792
 20
-359.0069600327334
 30
0.0
 10
140.2252457412167
 20
-360.7977888485721
 30
0.0
 10
142.4343450385285
 20
-360.7977888485721
 30
0.0
 10
142.4343450385285
 20
-360.7977888485721
 30
0.0
 10
497.521714741423
 20
-360.7977888485721
 30
0.0
 10
497.521714741423
 20
-360.7977888485721
 30
0.0
 10
499.7309091724187
 20
-360.7977888485721
 30
0.0
 10
501.5218151093466
 20
-359.0068829116443
 30
0.0
 10
501.5218151093466
 20
-356.7976884806486
 30
0.0
 10
501.5218151093466
 20
-356.7976884806486
 30
0.0
 10
501.5218151093466
 20
-273.7977262601404
 30
0.0
 10
501.5218151093466
 20
-273.7977262601404
 30
0.0
 10
501.5218151093466
 20
-272.6931567607554
 30
0.0
 10
500.6263846092306
 20
-271.7977262606406
 30
0.0
 10
499.5218151098439
 20
-271.7977262606406
 30
0.0
  0
SPLINE
  5
9A
330
70
100
AcDbEntity
  8
Top 2
 62
    18
420
        0
370
    25
100
AcDbSpline
210
0.0
220
0.0
230
1.0
 70
     9
 71
     3
 72
    83
 73
    79
 74
     0
 42
0.0000000001
 43
0.0000000001
 40
0.0
 40
0.0
 40
0.0
 40
0.0
 40
1.0
 40
1.0
 40
1.0
 40
2.0
 40
2.0
 40
2.0
 40
3.0
 40
3.0
 40
3.0
 40
4.0
 40
4.0
 40
4.0
 40
5.0
 40
5.0
 40
5.0
 40
6.0
 40
6.0
 40
6.0
 40
7.0
 40
7.0
 40
7.0
 40
8.0
 40
8.0
 40
8.0
 40
9.0
 40
9.0
 40
9.0
 40
10.0
 40
10.0
 40
10.0
 40
11.0
 40
11.0
 40
11.0
 40
12.0
 40
12.0
 40
12.0
 40
13.0
 40
13.0
 40
13.0
 40
14.0
 40
14.0
 40
14.0
 40
15.0
 40
15.0
 40
15.0
 40
16.0
 40
16.0
 40
16.0
 40
17.0
 40
17.0
 40
17.0
 40
18.0
 40
18.0
 40
18.0
 40
19.0
 40
19.0
 40
19.0
 40
20.0
 40
20.0
 40
20.0
 40
21.0
 40
21.0
 40
21.0
 40
22.0
 40
22.0
 40
22.0
 40
23.0
 40
23.0
 40
23.0
 40
24.0
 40
24.0
 40
24.0
 40
25.0
 40
25.0
 40
25.0
 40
26.0
 40
26.0
 40
26.0
 40
26.0
 10
148.3211975578137
 20
-353.5479381210457
 30
0.0
 10
148.2755285107873
 20
-353.5479381210457
 30
0.0
 10
148.2350486388356
 20
-353.5635056462703
 30
0.0
 10
148.1982076489903
 20
-353.5849083019712
 30
0.0
 10
148.1982076489903
 20
-353.5849083019712
 30
0.0
 10
147.0008216493981
 20
-351.5109823516981
 30
0.0
 10
147.0008216493981
 20
-351.5109823516981
 30
0.0
 10
147.0753649029602
 20
-351.4677033396653
 30
0.0
 10
147.1278380135699
 20
-351.3903394141734
 30
0.0
 10
147.1278380135699
 20
-351.2979462596277
 30
0.0
 10
147.1278380135699
 20
-351.1598625262102
 30
0.0
 10
147.0158939421461
 20
-351.0479399866325
 30
0.0
 10
146.8778317405747
 20
-351.0479399866325
 30
0.0
 10
146.7397480071565
 20
-351.0479399866325
 30
0.0
 10
146.6278254675795
 20
-351.1598625262102
 30
0.0
 10
146.6278254675795
 20
-351.2979462596277
 30
0.0
 10
146.6278254675795
 20
-351.2979462596277
 30
0.0
 10
144.2410848472452
 20
-351.2979462596277
 30
0.0
 10
144.2410848472452
 20
-351.2979462596277
 30
0.0
 10
144.2410848472452
 20
-351.1598625262102
 30
0.0
 10
144.1291407758213
 20
-351.0479399866325
 30
0.0
 10
143.9910785742499
 20
-351.0479399866325
 30
0.0
 10
143.8530163726785
 20
-351.0479399866325
 30
0.0
 10
143.7410723012547
 20
-351.1598625262102
 30
0.0
 10
143.7410723012547
 20
-351.2979462596277
 30
0.0
 10
143.7410723012547
 20
-351.3903394141734
 30
0.0
 10
143.7935454118644
 20
-351.4676818078172
 30
0.0
 10
143.8680886654265
 20
-351.5109608198501
 30
0.0
 10
143.8680886654265
 20
-351.5109608198501
 30
0.0
 10
142.6707026658344
 20
-353.5848867701269
 30
0.0
 10
142.6707026658344
 20
-353.5848867701269
 30
0.0
 10
142.6338401441422
 20
-353.5635056462703
 30
0.0
 10
142.5933602721905
 20
-353.5479381210457
 30
0.0
 10
142.5476912251642
 20
-353.5479381210457
 30
0.0
 10
142.4096290235928
 20
-353.5479381210457
 30
0.0
 10
142.2977064840157
 20
-353.6598606606234
 30
0.0
 10
142.2977064840157
 20
-353.7979443940415
 30
0.0
 10
142.2977064840157
 20
-353.9360065956142
 30
0.0
 10
142.4096290235928
 20
-354.0479291351887
 30
0.0
 10
142.5476912251642
 20
-354.0479291351887
 30
0.0
 10
142.5933602721905
 20
-354.0479291351887
 30
0.0
 10
142.6338401441422
 20
-354.0323616099647
 30
0.0
 10
142.6706811339876
 20
-354.0109804861113
 30
0.0
 10
142.6706811339876
 20
-354.0109804861113
 30
0.0
 10
143.8680886654265
 20
-356.0849064363837
 30
0.0
 10
143.8680886654265
 20
-356.0849064363837
 30
0.0
 10
143.7935454118644
 20
-356.1281854484164
 30
0.0
 10
143.7410723012547
 20
-356.2055493739084
 30
0.0
 10
143.7410723012547
 20
-356.2979425284535
 30
0.0
 10
143.7410723012547
 20
-356.4360047300236
 30
0.0
 10
143.8530163726785
 20
-356.5479488014493
 30
0.0
 10
143.9910785742499
 20
-356.5479488014493
 30
0.0
 10
144.1291407758213
 20
-356.5479488014493
 30
0.0
 10
144.2410848472452
 20
-356.4360047300236
 30
0.0
 10
144.2410848472452
 20
-356.2979425284535
 30
0.0
 10
144.2410848472452
 20
-356.2979425284535
 30
0.0
 10
146.6278254675795
 20
-356.2979425284535
 30
0.0
 10
146.6278254675795
 20
-356.2979425284535
 30
0.0
 10
146.6278254675795
 20
-356.4360047300236
 30
0.0
 10
146.7397480071565
 20
-356.5479488014493
 30
0.0
 10
146.8778317405747
 20
-356.5479488014493
 30
0.0
 10
147.0158939421461
 20
-356.5479488014493
 30
0.0
 10
147.1278380135699
 20
-356.4360047300236
 30
0.0
 10
147.1278380135699
 20
-356.2979425284535
 30
0.0
 10
147.1278380135699
 20
-356.2055493739084
 30
0.0
 10
147.0753649029602
 20
-356.1281854484164
 30
0.0
 10
147.0008216493981
 20
-356.0849064363837
 30
0.0
 10
147.0008216493981
 20
-356.0849064363837
 30
0.0
 10
148.1982076489903
 20
-354.0109804861113
 30
0.0
 10
148.1982076489903
 20
-354.0109804861113
 30
0.0
 10
148.2350701706824
 20
-354.0323616099647
 30
0.0
 10
148.2755285107873
 20
-354.0479291351887
 30
0.0
 10
148.3211975578137
 20
-354.0479291351887
 30
0.0
 10
148.459259759385
 20
-354.0479291351887
 30
0.0
 10
148.5712038308089
 20
-353.9360065956142
 30
0.0
 10
148.5712038308089
 20
-353.7979443940415
 30
0.0
 10
148.5712038308089
 20
-353.6598606606234
 30
0.0
 10
148.459259759385
 20
-353.5479381210457
 30
0.0
 10
148.3211975578137
 20
-353.5479381210457
 30
0.0
  0
SPLINE
  5
9B
330
70
100
AcDbEntity
  8
Top 2
 62
    18
420
        0
370
    25
100
AcDbSpline
210
0.0
220
0.0
230
1.0
 70
     9
 71
     3
 72
    83
 73
    79
 74
     0
 42
0.0000000001
 43
0.0000000001
 40
0.0
 40
0.0
 40
0.0
 40
0.0
 40
1.0
 40
1.0
 40
1.0
 40
2.0
 40
2.0
 40
2.0
 40
3.0
 40
3.0
 40
3.0
 40
4.0
 40
4.0
 40
4.0
 40
5.0
 40
5.0
 40
5.0
 40
6.0
 40
6.0
 40
6.0
 40
7.0
 40
7.0
 40
7.0
 40
8.0
 40
8.0
 40
8.0
 40
9.0
 40
9.0
 40
9.0
 40
10.0
 40
10.0
 40
10.0
 40
11.0
 40
11.0
 40
11.0
 40
12.0
 40
12.0
 40
12.0
 40
13.0
 40
13.0
 40
13.0
 40
14.0
 40
14.0
 40
14.0
 40
15.0
 40
15.0
 40
15.0
 40
16.0
 40
16.0
 40
16.0
 40
17.0
 40
17.0
 40
17.0
 40
18.0
 40
18.0
 40
18.0
 40
19.0
 40
19.0
 40
19.0
 40
20.0
 40
20.0
 40
20.0
 40
21.0
 40
21.0
 40
21.0
 40
22.0
 40
22.0
 40
22.0
 40
23.0
 40
23.0
 40
23.0
 40
24.0
 40
24.0
 40
24.0
 40
25.0
 40
25.0
 40
25.0
 40
26.0
 40
26.0
 40
26.0
 40
26.0
 10
238.4185401870426
 20
-353.5479381210425
 30
0.0
 10
238.372871140016
 20
-353.5479381210425
 30
0.0
 10
238.3323912680643
 20
-353.5635056462664
 30
0.0
 10
238.2955502782192
 20
-353.5849083019712
 30
0.0
 10
238.2955502782192
 20
-353.5849083019712
 30
0.0
 10
237.0981642786267
 20
-351.5109823516975
 30
0.0
 10
237.0981642786267
 20
-351.5109823516975
 30
0.0
 10
237.1727075321892
 20
-351.4677033396641
 30
0.0
 10
237.2251806427986
 20
-351.3903394141721
 30
0.0
 10
237.2251806427986
 20
-351.2979462596271
 30
0.0
 10
237.2251806427986
 20
-351.1598625262089
 30
0.0
 10
237.1132365713747
 20
-351.0479399866319
 30
0.0
 10
236.9751743698033
 20
-351.0479399866319
 30
0.0
 10
236.8370906363852
 20
-351.0479399866319
 30
0.0
 10
236.7251680968081
 20
-351.1598625262089
 30
0.0
 10
236.7251680968081
 20
-351.2979462596271
 30
0.0
 10
236.7251680968081
 20
-351.2979462596271
 30
0.0
 10
234.3384274764741
 20
-351.2979462596271
 30
0.0
 10
234.3384274764741
 20
-351.2979462596271
 30
0.0
 10
234.3384274764741
 20
-351.1598625262089
 30
0.0
 10
234.22648340505
 20
-351.0479399866319
 30
0.0
 10
234.0884212034786
 20
-351.0479399866319
 30
0.0
 10
233.9503590019072
 20
-351.0479399866319
 30
0.0
 10
233.8384149304834
 20
-351.1598625262089
 30
0.0
 10
233.8384149304834
 20
-351.2979462596271
 30
0.0
 10
233.8384149304834
 20
-351.3903394141721
 30
0.0
 10
233.8908880410931
 20
-351.467681807816
 30
0.0
 10
233.9654312946552
 20
-351.5109608198494
 30
0.0
 10
233.9654312946552
 20
-351.5109608198494
 30
0.0
 10
232.768045295063
 20
-353.584886770123
 30
0.0
 10
232.768045295063
 20
-353.584886770123
 30
0.0
 10
232.7311827733709
 20
-353.5635056462664
 30
0.0
 10
232.6907029014191
 20
-353.5479381210425
 30
0.0
 10
232.6450338543928
 20
-353.5479381210425
 30
0.0
 10
232.5069716528214
 20
-353.5479381210425
 30
0.0
 10
232.3950491132447
 20
-353.6598606606234
 30
0.0
 10
232.3950491132447
 20
-353.7979443940377
 30
0.0
 10
232.3950491132447
 20
-353.9360065956142
 30
0.0
 10
232.5069716528214
 20
-354.0479291351887
 30
0.0
 10
232.6450338543928
 20
-354.0479291351887
 30
0.0
 10
232.6907029014191
 20
-354.0479291351887
 30
0.0
 10
232.7311827733709
 20
-354.0323616099609
 30
0.0
 10
232.7680237632162
 20
-354.0109804861081
 30
0.0
 10
232.7680237632162
 20
-354.0109804861081
 30
0.0
 10
233.9654312946552
 20
-356.0849064363804
 30
0.0
 10
233.9654312946552
 20
-356.0849064363804
 30
0.0
 10
233.8908880410931
 20
-356.1281854484126
 30
0.0
 10
233.8384149304834
 20
-356.2055493739046
 30
0.0
 10
233.8384149304834
 20
-356.2979425284535
 30
0.0
 10
233.8384149304834
 20
-356.4360047300197
 30
0.0
 10
233.9503590019072
 20
-356.5479488014461
 30
0.0
 10
234.0884212034786
 20
-356.5479488014461
 30
0.0
 10
234.22648340505
 20
-356.5479488014461
 30
0.0
 10
234.3384274764741
 20
-356.4360047300197
 30
0.0
 10
234.3384274764741
 20
-356.2979425284535
 30
0.0
 10
234.3384274764741
 20
-356.2979425284535
 30
0.0
 10
236.7251680968081
 20
-356.2979425284535
 30
0.0
 10
236.7251680968081
 20
-356.2979425284535
 30
0.0
 10
236.7251680968081
 20
-356.4360047300197
 30
0.0
 10
236.8370906363852
 20
-356.5479488014461
 30
0.0
 10
236.9751743698033
 20
-356.5479488014461
 30
0.0
 10
237.1132365713747
 20
-356.5479488014461
 30
0.0
 10
237.2251806427986
 20
-356.4360047300197
 30
0.0
 10
237.2251806427986
 20
-356.2979425284535
 30
0.0
 10
237.2251806427986
 20
-356.2055493739046
 30
0.0
 10
237.1727075321892
 20
-356.1281854484126
 30
0.0
 10
237.0981642786267
 20
-356.0849064363804
 30
0.0
 10
237.0981642786267
 20
-356.0849064363804
 30
0.0
 10
238.2955502782192
 20
-354.0109804861081
 30
0.0
 10
238.2955502782192
 20
-354.0109804861081
 30
0.0
 10
238.3324127999114
 20
-354.0323616099609
 30
0.0
 10
238.372871140016
 20
-354.0479291351887
 30
0.0
 10
238.4185401870426
 20
-354.0479291351887
 30
0.0
 10
238.556602388614
 20
-354.0479291351887
 30
0.0
 10
238.6685464600375
 20
-353.9360065956142
 30
0.0
 10
238.6685464600375
 20
-353.7979443940377
 30
0.0
 10
238.6685464600375
 20
-353.6598606606234
 30
0.0
 10
238.556602388614
 20
-353.5479381210425
 30
0.0
 10
238.4185401870426
 20
-353.5479381210425
 30
0.0
  0
SPLINE
  5
9C
330
70
100
AcDbEntity
  8
Top 2
 62
    18
420
        0
370
    25
100
AcDbSpline
210
0.0
220
0.0
230
1.0
 70
     9
 71
     3
 72
    83
 73
    79
 74
     0
 42
0.0000000001
 43
0.0000000001
 40
0.0
 40
0.0
 40
0.0
 40
0.0
 40
1.0
 40
1.0
 40
1.0
 40
2.0
 40
2.0
 40
2.0
 40
3.0
 40
3.0
 40
3.0
 40
4.0
 40
4.0
 40
4.0
 40
5.0
 40
5.0
 40
5.0
 40
6.0
 40
6.0
 40
6.0
 40
7.0
 40
7.0
 40
7.0
 40
8.0
 40
8.0
 40
8.0
 40
9.0
 40
9.0
 40
9.0
 40
10.0
 40
10.0
 40
10.0
 40
11.0
 40
11.0
 40
11.0
 40
12.0
 40
12.0
 40
12.0
 40
13.0
 40
13.0
 40
13.0
 40
14.0
 40
14.0
 40
14.0
 40
15.0
 40
15.0
 40
15.0
 40
16.0
 40
16.0
 40
16.0
 40
17.0
 40
17.0
 40
17.0
 40
18.0
 40
18.0
 40
18.0
 40
19.0
 40
19.0
 40
19.0
 40
20.0
 40
20.0
 40
20.0
 40
21.0
 40
21.0
 40
21.0
 40
22.0
 40
22.0
 40
22.0
 40
23.0
 40
23.0
 40
23.0
 40
24.0
 40
24.0
 40
24.0
 40
25.0
 40
25.0
 40
25.0
 40
26.0
 40
26.0
 40
26.0
 40
26.0
 10
368.4185401545442
 20
-353.5479381210425
 30
0.0
 10
368.3728711075166
 20
-353.5479381210425
 30
0.0
 10
368.3323912355649
 20
-353.5635056462703
 30
0.0
 10
368.2955502457208
 20
-353.5849083019712
 30
0.0
 10
368.2955502457208
 20
-353.5849083019712
 30
0.0
 10
367.0981642461293
 20
-351.5109823516975
 30
0.0
 10
367.0981642461293
 20
-351.5109823516975
 30
0.0
 10
367.1727074996888
 20
-351.4677033396647
 30
0.0
 10
367.2251806102985
 20
-351.3903394141728
 30
0.0
 10
367.2251806102985
 20
-351.2979462596271
 30
0.0
 10
367.2251806102985
 20
-351.1598625262096
 30
0.0
 10
367.113236538876
 20
-351.0479399866319
 30
0.0
 10
366.9751743373059
 20
-351.0479399866319
 30
0.0
 10
366.8370906038851
 20
-351.0479399866319
 30
0.0
 10
366.7251680643107
 20
-351.1598625262096
 30
0.0
 10
366.7251680643107
 20
-351.2979462596271
 30
0.0
 10
366.7251680643107
 20
-351.2979462596271
 30
0.0
 10
364.3384274439738
 20
-351.2979462596271
 30
0.0
 10
364.3384274439738
 20
-351.2979462596271
 30
0.0
 10
364.3384274439738
 20
-351.1598625262096
 30
0.0
 10
364.2264833725513
 20
-351.0479399866319
 30
0.0
 10
364.0884211709785
 20
-351.0479399866319
 30
0.0
 10
363.9503589694085
 20
-351.0479399866319
 30
0.0
 10
363.8384148979859
 20
-351.1598625262096
 30
0.0
 10
363.8384148979859
 20
-351.2979462596271
 30
0.0
 10
363.8384148979859
 20
-351.3903394141728
 30
0.0
 10
363.8908880085956
 20
-351.4676818078166
 30
0.0
 10
363.9654312621551
 20
-351.5109608198494
 30
0.0
 10
363.9654312621551
 20
-351.5109608198494
 30
0.0
 10
362.7680452625636
 20
-353.5848867701269
 30
0.0
 10
362.7680452625636
 20
-353.5848867701269
 30
0.0
 10
362.7311827408714
 20
-353.5635056462703
 30
0.0
 10
362.6907028689197
 20
-353.5479381210425
 30
0.0
 10
362.6450338218954
 20
-353.5479381210425
 30
0.0
 10
362.5069716203226
 20
-353.5479381210425
 30
0.0
 10
362.3950490807443
 20
-353.6598606606234
 30
0.0
 10
362.3950490807443
 20
-353.7979443940415
 30
0.0
 10
362.3950490807443
 20
-353.9360065956142
 30
0.0
 10
362.5069716203226
 20
-354.0479291351887
 30
0.0
 10
362.6450338218954
 20
-354.0479291351887
 30
0.0
 10
362.6907028689197
 20
-354.0479291351887
 30
0.0
 10
362.7311827408714
 20
-354.0323616099647
 30
0.0
 10
362.7680237307188
 20
-354.0109804861081
 30
0.0
 10
362.7680237307188
 20
-354.0109804861081
 30
0.0
 10
363.9654312621551
 20
-356.0849064363804
 30
0.0
 10
363.9654312621551
 20
-356.0849064363804
 30
0.0
 10
363.8908880085956
 20
-356.1281854484164
 30
0.0
 10
363.8384148979859
 20
-356.2055493739084
 30
0.0
 10
363.8384148979859
 20
-356.2979425284535
 30
0.0
 10
363.8384148979859
 20
-356.4360047300236
 30
0.0
 10
363.9503589694085
 20
-356.5479488014461
 30
0.0
 10
364.0884211709785
 20
-356.5479488014461
 30
0.0
 10
364.2264833725513
 20
-356.5479488014461
 30
0.0
 10
364.3384274439738
 20
-356.4360047300236
 30
0.0
 10
364.3384274439738
 20
-356.2979425284535
 30
0.0
 10
364.3384274439738
 20
-356.2979425284535
 30
0.0
 10
366.7251680643107
 20
-356.2979425284535
 30
0.0
 10
366.7251680643107
 20
-356.2979425284535
 30
0.0
 10
366.7251680643107
 20
-356.4360047300236
 30
0.0
 10
366.8370906038851
 20
-356.5479488014461
 30
0.0
 10
366.9751743373059
 20
-356.5479488014461
 30
0.0
 10
367.113236538876
 20
-356.5479488014461
 30
0.0
 10
367.2251806102985
 20
-356.4360047300236
 30
0.0
 10
367.2251806102985
 20
-356.2979425284535
 30
0.0
 10
367.2251806102985
 20
-356.2055493739084
 30
0.0
 10
367.1727074996888
 20
-356.1281854484164
 30
0.0
 10
367.0981642461293
 20
-356.0849064363804
 30
0.0
 10
367.0981642461293
 20
-356.0849064363804
 30
0.0
 10
368.2955502457208
 20
-354.0109804861081
 30
0.0
 10
368.2955502457208
 20
-354.0109804861081
 30
0.0
 10
368.332412767413
 20
-354.0323616099647
 30
0.0
 10
368.3728711075166
 20
-354.0479291351887
 30
0.0
 10
368.4185401545442
 20
-354.0479291351887
 30
0.0
 10
368.5566023561137
 20
-354.0479291351887
 30
0.0
 10
368.6685464275401
 20
-353.9360065956142
 30
0.0
 10
368.6685464275401
 20
-353.7979443940415
 30
0.0
 10
368.6685464275401
 20
-353.6598606606234
 30
0.0
 10
368.5566023561137
 20
-353.5479381210425
 30
0.0
 10
368.4185401545442
 20
-353.5479381210425
 30
0.0
  0
SPLINE
  5
9D
330
70
100
AcDbEntity
  8
Top 2
 62
    18
420
        0
370
    25
100
AcDbSpline
210
0.0
220
0.0
230
1.0
 70
     9
 71
     3
 72
    83
 73
    79
 74
     0
 42
0.0000000001
 43
0.0000000001
 40
0.0
 40
0.0
 40
0.0
 40
0.0
 40
1.0
 40
1.0
 40
1.0
 40
2.0
 40
2.0
 40
2.0
 40
3.0
 40
3.0
 40
3.0
 40
4.0
 40
4.0
 40
4.0
 40
5.0
 40
5.0
 40
5.0
 40
6.0
 40
6.0
 40
6.0
 40
7.0
 40
7.0
 40
7.0
 40
8.0
 40
8.0
 40
8.0
 40
9.0
 40
9.0
 40
9.0
 40
10.0
 40
10.0
 40
10.0
 40
11.0
 40
11.0
 40
11.0
 40
12.0
 40
12.0
 40
12.0
 40
13.0
 40
13.0
 40
13.0
 40
14.0
 40
14.0
 40
14.0
 40
15.0
 40
15.0
 40
15.0
 40
16.0
 40
16.0
 40
16.0
 40
17.0
 40
17.0
 40
17.0
 40
18.0
 40
18.0
 40
18.0
 40
19.0
 40
19.0
 40
19.0
 40
20.0
 40
20.0
 40
20.0
 40
21.0
 40
21.0
 40
21.0
 40
22.0
 40
22.0
 40
22.0
 40
23.0
 40
23.0
 40
23.0
 40
24.0
 40
24.0
 40
24.0
 40
25.0
 40
25.0
 40
25.0
 40
26.0
 40
26.0
 40
26.0
 40
26.0
 10
497.4086462038514
 20
-353.5479381210425
 30
0.0
 10
497.3629771568239
 20
-353.5479381210425
 30
0.0
 10
497.3224972848722
 20
-353.5635056462703
 30
0.0
 10
497.2856562950281
 20
-353.5849083019712
 30
0.0
 10
497.2856562950281
 20
-353.5849083019712
 30
0.0
 10
496.0882702954371
 20
-351.5109823516975
 30
0.0
 10
496.0882702954371
 20
-351.5109823516975
 30
0.0
 10
496.162813548996
 20
-351.4677033396653
 30
0.0
 10
496.215286659609
 20
-351.3903394141734
 30
0.0
 10
496.215286659609
 20
-351.2979462596271
 30
0.0
 10
496.215286659609
 20
-351.1598625262102
 30
0.0
 10
496.1033425881833
 20
-351.0479399866319
 30
0.0
 10
495.9652803866138
 20
-351.0479399866319
 30
0.0
 10
495.8271966531956
 20
-351.0479399866319
 30
0.0
 10
495.7152741136179
 20
-351.1598625262102
 30
0.0
 10
495.7152741136179
 20
-351.2979462596271
 30
0.0
 10
495.7152741136179
 20
-351.2979462596271
 30
0.0
 10
493.328533493281
 20
-351.2979462596271
 30
0.0
 10
493.328533493281
 20
-351.2979462596271
 30
0.0
 10
493.328533493281
 20
-351.1598625262102
 30
0.0
 10
493.2165894218585
 20
-351.0479399866319
 30
0.0
 10
493.078527220289
 20
-351.0479399866319
 30
0.0
 10
492.9404650187158
 20
-351.0479399866319
 30
0.0
 10
492.8285209472938
 20
-351.1598625262102
 30
0.0
 10
492.8285209472938
 20
-351.2979462596271
 30
0.0
 10
492.8285209472938
 20
-351.3903394141734
 30
0.0
 10
492.8809940579029
 20
-351.4676818078172
 30
0.0
 10
492.9555373114657
 20
-351.5109608198494
 30
0.0
 10
492.9555373114657
 20
-351.5109608198494
 30
0.0
 10
491.7581513118709
 20
-353.5848867701269
 30
0.0
 10
491.7581513118709
 20
-353.5848867701269
 30
0.0
 10
491.7212887901787
 20
-353.5635056462703
 30
0.0
 10
491.680808918227
 20
-353.5479381210425
 30
0.0
 10
491.6351398712032
 20
-353.5479381210425
 30
0.0
 10
491.4970776696299
 20
-353.5479381210425
 30
0.0
 10
491.3851551300516
 20
-353.6598606606234
 30
0.0
 10
491.3851551300516
 20
-353.7979443940415
 30
0.0
 10
491.3851551300516
 20
-353.9360065956142
 30
0.0
 10
491.4970776696299
 20
-354.0479291351887
 30
0.0
 10
491.6351398712032
 20
-354.0479291351887
 30
0.0
 10
491.680808918227
 20
-354.0479291351887
 30
0.0
 10
491.7212887901787
 20
-354.0323616099647
 30
0.0
 10
491.7581297800267
 20
-354.0109804861081
 30
0.0
 10
491.7581297800267
 20
-354.0109804861081
 30
0.0
 10
492.9555373114657
 20
-356.0849064363804
 30
0.0
 10
492.9555373114657
 20
-356.0849064363804
 30
0.0
 10
492.8809940579029
 20
-356.1281854484164
 30
0.0
 10
492.8285209472938
 20
-356.2055493739084
 30
0.0
 10
492.8285209472938
 20
-356.2979425284535
 30
0.0
 10
492.8285209472938
 20
-356.4360047300236
 30
0.0
 10
492.9404650187158
 20
-356.5479488014461
 30
0.0
 10
493.078527220289
 20
-356.5479488014461
 30
0.0
 10
493.2165894218585
 20
-356.5479488014461
 30
0.0
 10
493.328533493281
 20
-356.4360047300236
 30
0.0
 10
493.328533493281
 20
-356.2979425284535
 30
0.0
 10
493.328533493281
 20
-356.2979425284535
 30
0.0
 10
495.7152741136179
 20
-356.2979425284535
 30
0.0
 10
495.7152741136179
 20
-356.2979425284535
 30
0.0
 10
495.7152741136179
 20
-356.4360047300236
 30
0.0
 10
495.8271966531956
 20
-356.5479488014461
 30
0.0
 10
495.9652803866138
 20
-356.5479488014461
 30
0.0
 10
496.1033425881833
 20
-356.5479488014461
 30
0.0
 10
496.215286659609
 20
-356.4360047300236
 30
0.0
 10
496.215286659609
 20
-356.2979425284535
 30
0.0
 10
496.215286659609
 20
-356.2055493739084
 30
0.0
 10
496.162813548996
 20
-356.1281854484164
 30
0.0
 10
496.0882702954371
 20
-356.0849064363804
 30
0.0
 10
496.0882702954371
 20
-356.0849064363804
 30
0.0
 10
497.2856562950281
 20
-354.0109804861081
 30
0.0
 10
497.2856562950281
 20
-354.0109804861081
 30
0.0
 10
497.3225188167202
 20
-354.0323616099647
 30
0.0
 10
497.3629771568239
 20
-354.0479291351887
 30
0.0
 10
497.4086462038514
 20
-354.0479291351887
 30
0.0
 10
497.5467084054209
 20
-354.0479291351887
 30
0.0
 10
497.6586524768473
 20
-353.9360065956142
 30
0.0
 10
497.6586524768473
 20
-353.7979443940415
 30
0.0
 10
497.6586524768473
 20
-353.6598606606234
 30
0.0
 10
497.5467084054209
 20
-353.5479381210425
 30
0.0
 10
497.4086462038514
 20
-353.5479381210425
 30
0.0
  0
SPLINE
  5
9E
330
70
100
AcDbEntity
  8
Top 2
 62
    18
420
        0
370
    25
100
AcDbSpline
210
0.0
220
0.0
230
1.0
 70
     9
 71
     3
 72
    83
 73
    79
 74
     0
 42
0.0000000001
 43
0.0000000001
 40
0.0
 40
0.0
 40
0.0
 40
0.0
 40
1.0
 40
1.0
 40
1.0
 40
2.0
 40
2.0
 40
2.0
 40
3.0
 40
3.0
 40
3.0
 40
4.0
 40
4.0
 40
4.0
 40
5.0
 40
5.0
 40
5.0
 40
6.0
 40
6.0
 40
6.0
 40
7.0
 40
7.0
 40
7.0
 40
8.0
 40
8.0
 40
8.0
 40
9.0
 40
9.0
 40
9.0
 40
10.0
 40
10.0
 40
10.0
 40
11.0
 40
11.0
 40
11.0
 40
12.0
 40
12.0
 40
12.0
 40
13.0
 40
13.0
 40
13.0
 40
14.0
 40
14.0
 40
14.0
 40
15.0
 40
15.0
 40
15.0
 40
16.0
 40
16.0
 40
16.0
 40
17.0
 40
17.0
 40
17.0
 40
18.0
 40
18.0
 40
18.0
 40
19.0
 40
19.0
 40
19.0
 40
20.0
 40
20.0
 40
20.0
 40
21.0
 40
21.0
 40
21.0
 40
22.0
 40
22.0
 40
22.0
 40
23.0
 40
23.0
 40
23.0
 40
24.0
 40
24.0
 40
24.0
 40
25.0
 40
25.0
 40
25.0
 40
26.0
 40
26.0
 40
26.0
 40
26.0
 10
148.3211864615674
 20
-280.5477747327515
 30
0.0
 10
148.275517414541
 20
-280.5477747327515
 30
0.0
 10
148.2350375425894
 20
-280.5633422579764
 30
0.0
 10
148.1981965527439
 20
-280.5847449136779
 30
0.0
 10
148.1981965527439
 20
-280.5847449136779
 30
0.0
 10
147.0008105531518
 20
-278.5108189634059
 30
0.0
 10
147.0008105531518
 20
-278.5108189634059
 30
0.0
 10
147.0753538067139
 20
-278.4675399513728
 30
0.0
 10
147.1278269173236
 20
-278.3901760258808
 30
0.0
 10
147.1278269173236
 20
-278.2977828713348
 30
0.0
 10
147.1278269173236
 20
-278.1596991379176
 30
0.0
 10
147.0158828458998
 20
-278.04777659834
 30
0.0
 10
146.8778206443284
 20
-278.04777659834
 30
0.0
 10
146.7397369109102
 20
-278.04777659834
 30
0.0
 10
146.6278143713332
 20
-278.1596991379176
 30
0.0
 10
146.6278143713332
 20
-278.2977828713348
 30
0.0
 10
146.6278143713332
 20
-278.2977828713348
 30
0.0
 10
144.2410737509989
 20
-278.2977828713348
 30
0.0
 10
144.2410737509989
 20
-278.2977828713348
 30
0.0
 10
144.2410737509989
 20
-278.1596991379176
 30
0.0
 10
144.129129679575
 20
-278.04777659834
 30
0.0
 10
143.9910674780036
 20
-278.04777659834
 30
0.0
 10
143.8530052764322
 20
-278.04777659834
 30
0.0
 10
143.7410612050084
 20
-278.1596991379176
 30
0.0
 10
143.7410612050084
 20
-278.2977828713348
 30
0.0
 10
143.7410612050084
 20
-278.3901760258808
 30
0.0
 10
143.7935343156181
 20
-278.4675184195247
 30
0.0
 10
143.8680775691802
 20
-278.5107974315575
 30
0.0
 10
143.8680775691802
 20
-278.5107974315575
 30
0.0
 10
142.6706915695881
 20
-280.5847233818331
 30
0.0
 10
142.6706915695881
 20
-280.5847233818331
 30
0.0
 10
142.6338290478959
 20
-280.5633422579764
 30
0.0
 10
142.5933491759442
 20
-280.5477747327515
 30
0.0
 10
142.5476801289178
 20
-280.5477747327515
 30
0.0
 10
142.4096179273465
 20
-280.5477747327515
 30
0.0
 10
142.2976953877694
 20
-280.6596972723305
 30
0.0
 10
142.2976953877694
 20
-280.7977810057477
 30
0.0
 10
142.2976953877694
 20
-280.9358432073207
 30
0.0
 10
142.4096179273465
 20
-281.0477657468955
 30
0.0
 10
142.5476801289178
 20
-281.0477657468955
 30
0.0
 10
142.5933491759442
 20
-281.0477657468955
 30
0.0
 10
142.6338290478959
 20
-281.0321982216709
 30
0.0
 10
142.6706700377413
 20
-281.0108170978175
 30
0.0
 10
142.6706700377413
 20
-281.0108170978175
 30
0.0
 10
143.8680775691802
 20
-283.0847430480895
 30
0.0
 10
143.8680775691802
 20
-283.0847430480895
 30
0.0
 10
143.7935343156181
 20
-283.1280220601227
 30
0.0
 10
143.7410612050084
 20
-283.2053859856145
 30
0.0
 10
143.7410612050084
 20
-283.2977791401606
 30
0.0
 10
143.7410612050084
 20
-283.4358413417297
 30
0.0
 10
143.8530052764322
 20
-283.5477854131554
 30
0.0
 10
143.9910674780036
 20
-283.5477854131554
 30
0.0
 10
144.129129679575
 20
-283.5477854131554
 30
0.0
 10
144.2410737509989
 20
-283.4358413417297
 30
0.0
 10
144.2410737509989
 20
-283.2977791401606
 30
0.0
 10
144.2410737509989
 20
-283.2977791401606
 30
0.0
 10
146.6278143713332
 20
-283.2977791401606
 30
0.0
 10
146.6278143713332
 20
-283.2977791401606
 30
0.0
 10
146.6278143713332
 20
-283.4358413417297
 30
0.0
 10
146.7397369109102
 20
-283.5477854131554
 30
0.0
 10
146.8778206443284
 20
-283.5477854131554
 30
0.0
 10
147.0158828458998
 20
-283.5477854131554
 30
0.0
 10
147.1278269173236
 20
-283.4358413417297
 30
0.0
 10
147.1278269173236
 20
-283.2977791401606
 30
0.0
 10
147.1278269173236
 20
-283.2053859856145
 30
0.0
 10
147.0753538067139
 20
-283.1280220601227
 30
0.0
 10
147.0008105531518
 20
-283.0847430480895
 30
0.0
 10
147.0008105531518
 20
-283.0847430480895
 30
0.0
 10
148.1981965527439
 20
-281.0108170978175
 30
0.0
 10
148.1981965527439
 20
-281.0108170978175
 30
0.0
 10
148.2350590744361
 20
-281.0321982216709
 30
0.0
 10
148.275517414541
 20
-281.0477657468955
 30
0.0
 10
148.3211864615674
 20
-281.0477657468955
 30
0.0
 10
148.4592486631387
 20
-281.0477657468955
 30
0.0
 10
148.5711927345626
 20
-280.9358432073207
 30
0.0
 10
148.5711927345626
 20
-280.7977810057477
 30
0.0
 10
148.5711927345626
 20
-280.6596972723305
 30
0.0
 10
148.4592486631387
 20
-280.5477747327515
 30
0.0
 10
148.3211864615674
 20
-280.5477747327515
 30
0.0
  0
SPLINE
  5
9F
330
70
100
AcDbEntity
  8
Top 2
 62
    18
420
        0
370
    25
100
AcDbSpline
210
0.0
220
0.0
230
1.0
 70
     9
 71
     3
 72
    83
 73
    79
 74
     0
 42
0.0000000001
 43
0.0000000001
 40
0.0
 40
0.0
 40
0.0
 40
0.0
 40
1.0
 40
1.0
 40
1.0
 40
2.0
 40
2.0
 40
2.0
 40
3.0
 40
3.0
 40
3.0
 40
4.0
 40
4.0
 40
4.0
 40
5.0
 40
5.0
 40
5.0
 40
6.0
 40
6.0
 40
6.0
 40
7.0
 40
7.0
 40
7.0
 40
8.0
 40
8.0
 40
8.0
 40
9.0
 40
9.0
 40
9.0
 40
10.0
 40
10.0
 40
10.0
 40
11.0
 40
11.0
 40
11.0
 40
12.0
 40
12.0
 40
12.0
 40
13.0
 40
13.0
 40
13.0
 40
14.0
 40
14.0
 40
14.0
 40
15.0
 40
15.0
 40
15.0
 40
16.0
 40
16.0
 40
16.0
 40
17.0
 40
17.0
 40
17.0
 40
18.0
 40
18.0
 40
18.0
 40
19.0
 40
19.0
 40
19.0
 40
20.0
 40
20.0
 40
20.0
 40
21.0
 40
21.0
 40
21.0
 40
22.0
 40
22.0
 40
22.0
 40
23.0
 40
23.0
 40
23.0
 40
24.0
 40
24.0
 40
24.0
 40
25.0
 40
25.0
 40
25.0
 40
26.0
 40
26.0
 40
26.0
 40
26.0
 10
497.4086351076039
 20
-280.5477747327538
 30
0.0
 10
497.3629660605801
 20
-280.5477747327538
 30
0.0
 10
497.3224861886284
 20
-280.5633422579781
 30
0.0
 10
497.2856451987805
 20
-280.5847449136798
 30
0.0
 10
497.2856451987805
 20
-280.5847449136798
 30
0.0
 10
496.0882591991896
 20
-278.5108189634075
 30
0.0
 10
496.0882591991896
 20
-278.5108189634075
 30
0.0
 10
496.1628024527524
 20
-278.4675399513747
 30
0.0
 10
496.2152755633614
 20
-278.3901760258824
 30
0.0
 10
496.2152755633614
 20
-278.2977828713371
 30
0.0
 10
496.2152755633614
 20
-278.1596991379192
 30
0.0
 10
496.1033314919388
 20
-278.0477765983419
 30
0.0
 10
495.9652692903662
 20
-278.0477765983419
 30
0.0
 10
495.827185556948
 20
-278.0477765983419
 30
0.0
 10
495.7152630173704
 20
-278.1596991379192
 30
0.0
 10
495.7152630173704
 20
-278.2977828713371
 30
0.0
 10
495.7152630173704
 20
-278.2977828713371
 30
0.0
 10
493.3285223970373
 20
-278.2977828713371
 30
0.0
 10
493.3285223970373
 20
-278.2977828713371
 30
0.0
 10
493.3285223970373
 20
-278.1596991379192
 30
0.0
 10
493.2165783256116
 20
-278.0477765983419
 30
0.0
 10
493.0785161240414
 20
-278.0477765983419
 30
0.0
 10
492.9404539224687
 20
-278.0477765983419
 30
0.0
 10
492.8285098510462
 20
-278.1596991379192
 30
0.0
 10
492.8285098510462
 20
-278.2977828713371
 30
0.0
 10
492.8285098510462
 20
-278.3901760258824
 30
0.0
 10
492.8809829616553
 20
-278.4675184195263
 30
0.0
 10
492.955526215218
 20
-278.5107974315595
 30
0.0
 10
492.955526215218
 20
-278.5107974315595
 30
0.0
 10
491.7581402156272
 20
-280.584723381835
 30
0.0
 10
491.7581402156272
 20
-280.584723381835
 30
0.0
 10
491.721277693935
 20
-280.5633422579781
 30
0.0
 10
491.6807978219833
 20
-280.5477747327538
 30
0.0
 10
491.6351287749557
 20
-280.5477747327538
 30
0.0
 10
491.4970665733855
 20
-280.5477747327538
 30
0.0
 10
491.3851440338079
 20
-280.6596972723321
 30
0.0
 10
491.3851440338079
 20
-280.7977810057493
 30
0.0
 10
491.3851440338079
 20
-280.9358432073229
 30
0.0
 10
491.4970665733855
 20
-281.0477657468974
 30
0.0
 10
491.6351287749557
 20
-281.0477657468974
 30
0.0
 10
491.6807978219833
 20
-281.0477657468974
 30
0.0
 10
491.721277693935
 20
-281.0321982216731
 30
0.0
 10
491.7581186837791
 20
-281.0108170978194
 30
0.0
 10
491.7581186837791
 20
-281.0108170978194
 30
0.0
 10
492.955526215218
 20
-283.0847430480917
 30
0.0
 10
492.955526215218
 20
-283.0847430480917
 30
0.0
 10
492.8809829616553
 20
-283.1280220601249
 30
0.0
 10
492.8285098510462
 20
-283.2053859856161
 30
0.0
 10
492.8285098510462
 20
-283.2977791401622
 30
0.0
 10
492.8285098510462
 20
-283.4358413417319
 30
0.0
 10
492.9404539224687
 20
-283.5477854131574
 30
0.0
 10
493.0785161240414
 20
-283.5477854131574
 30
0.0
 10
493.2165783256116
 20
-283.5477854131574
 30
0.0
 10
493.3285223970373
 20
-283.4358413417319
 30
0.0
 10
493.3285223970373
 20
-283.2977791401622
 30
0.0
 10
493.3285223970373
 20
-283.2977791401622
 30
0.0
 10
495.7152630173704
 20
-283.2977791401622
 30
0.0
 10
495.7152630173704
 20
-283.2977791401622
 30
0.0
 10
495.7152630173704
 20
-283.4358413417319
 30
0.0
 10
495.827185556948
 20
-283.5477854131574
 30
0.0
 10
495.9652692903662
 20
-283.5477854131574
 30
0.0
 10
496.1033314919388
 20
-283.5477854131574
 30
0.0
 10
496.2152755633614
 20
-283.4358413417319
 30
0.0
 10
496.2152755633614
 20
-283.2977791401622
 30
0.0
 10
496.2152755633614
 20
-283.2053859856161
 30
0.0
 10
496.1628024527524
 20
-283.1280220601249
 30
0.0
 10
496.0882591991896
 20
-283.0847430480917
 30
0.0
 10
496.0882591991896
 20
-283.0847430480917
 30
0.0
 10
497.2856451987805
 20
-281.0108170978194
 30
0.0
 10
497.2856451987805
 20
-281.0108170978194
 30
0.0
 10
497.3225077204727
 20
-281.0321982216731
 30
0.0
 10
497.3629660605801
 20
-281.0477657468974
 30
0.0
 10
497.4086351076039
 20
-281.0477657468974
 30
0.0
 10
497.5466973091772
 20
-281.0477657468974
 30
0.0
 10
497.6586413805997
 20
-280.9358432073229
 30
0.0
 10
497.6586413805997
 20
-280.7977810057493
 30
0.0
 10
497.6586413805997
 20
-280.6596972723321
 30
0.0
 10
497.5466973091772
 20
-280.5477747327538
 30
0.0
 10
497.4086351076039
 20
-280.5477747327538
 30
0.0
  0
SPLINE
  5
A0
330
70
100
AcDbEntity
  8
Top 2
 62
    18
420
        0
370
    25
100
AcDbSpline
210
0.0
220
0.0
230
1.0
 70
     9
 71
     3
 72
    83
 73
    79
 74
     0
 42
0.0000000001
 43
0.0000000001
 40
0.0
 40
0.0
 40
0.0
 40
0.0
 40
1.0
 40
1.0
 40
1.0
 40
2.0
 40
2.0
 40
2.0
 40
3.0
 40
3.0
 40
3.0
 40
4.0
 40
4.0
 40
4.0
 40
5.0
 40
5.0
 40
5.0
 40
6.0
 40
6.0
 40
6.0
 40
7.0
 40
7.0
 40
7.0
 40
8.0
 40
8.0
 40
8.0
 40
9.0
 40
9.0
 40
9.0
 40
10.0
 40
10.0
 40
10.0
 40
11.0
 40
11.0
 40
11.0
 40
12.0
 40
12.0
 40
12.0
 40
13.0
 40
13.0
 40
13.0
 40
14.0
 40
14.0
 40
14.0
 40
15.0
 40
15.0
 40
15.0
 40
16.0
 40
16.0
 40
16.0
 40
17.0
 40
17.0
 40
17.0
 40
18.0
 40
18.0
 40
18.0
 40
19.0
 40
19.0
 40
19.0
 40
20.0
 40
20.0
 40
20.0
 40
21.0
 40
21.0
 40
21.0
 40
22.0
 40
22.0
 40
22.0
 40
23.0
 40
23.0
 40
23.0
 40
24.0
 40
24.0
 40
24.0
 40
25.0
 40
25.0
 40
25.0
 40
26.0
 40
26.0
 40
26.0
 40
26.0
 10
238.4074371664636
 20
-288.0571907378536
 30
0.0
 10
238.3627660976872
 20
-288.0476956090681
 30
0.0
 10
238.3199341375681
 20
-288.0545067078946
 30
0.0
 10
238.2794483494073
 20
-288.0677819917281
 30
0.0
 10
238.2794483494073
 20
-288.0677819917281
 30
0.0
 10
237.5394215577061
 20
-285.7902257516331
 30
0.0
 10
237.5394215577061
 20
-285.7902257516331
 30
0.0
 10
237.6213340748973
 20
-285.7633909037379
 30
0.0
 10
237.6887453867007
 20
-285.6986273387842
 30
0.0
 10
237.7079550036822
 20
-285.6082531963409
 30
0.0
 10
237.7366642261716
 20
-285.4731869237983
 30
0.0
 10
237.6504364057361
 20
-285.3404356790755
 30
0.0
 10
237.5153911945171
 20
-285.3117309333089
 30
0.0
 10
237.3803249219738
 20
-285.2830217108195
 30
0.0
 10
237.2475781539742
 20
-285.3692284699311
 30
0.0
 10
237.2188689314847
 20
-285.504294742474
 30
0.0
 10
237.2188689314847
 20
-285.504294742474
 30
0.0
 10
234.8842843201308
 20
-285.008063464557
 30
0.0
 10
234.8842843201308
 20
-285.008063464557
 30
0.0
 10
234.9129935426206
 20
-284.8729971920141
 30
0.0
 10
234.8267657221851
 20
-284.7402459472913
 30
0.0
 10
234.6917205109657
 20
-284.7115412015248
 30
0.0
 10
234.5566752997466
 20
-284.6828364557581
 30
0.0
 10
234.4239074704229
 20
-284.7690387381472
 30
0.0
 10
234.3951982479334
 20
-284.9041050106899
 30
0.0
 10
234.3759886309519
 20
-284.9944791531332
 30
0.0
 10
234.4112346903637
 20
-285.0810412030601
 30
0.0
 10
234.4751507824176
 20
-285.1388728787297
 30
0.0
 10
234.4751507824176
 20
-285.1388728787297
 30
0.0
 10
232.8727370888115
 20
-286.9185280233542
 30
0.0
 10
232.8727370888115
 20
-286.9185280233542
 30
0.0
 10
232.8411254872741
 20
-286.8899499791401
 30
0.0
 10
232.8047668681378
 20
-286.8663064030709
 30
0.0
 10
232.760095799361
 20
-286.8568112742853
 30
0.0
 10
232.6250505881422
 20
-286.8281065285186
 30
0.0
 10
232.4923038201423
 20
-286.9143132876309
 30
0.0
 10
232.4635945976532
 20
-287.0493795601738
 30
0.0
 10
232.4348898518863
 20
-287.1844247713948
 30
0.0
 10
232.5210966109976
 20
-287.3171715393919
 30
0.0
 10
232.656141822217
 20
-287.3458762851584
 30
0.0
 10
232.7008128909934
 20
-287.3553714139435
 30
0.0
 10
232.7436448511122
 20
-287.3485603151175
 30
0.0
 10
232.7841261625501
 20
-287.3353060926095
 30
0.0
 10
232.7841261625501
 20
-287.3353060926095
 30
0.0
 10
233.5241740155761
 20
-289.6128668094273
 30
0.0
 10
233.5241740155761
 20
-289.6128668094273
 30
0.0
 10
233.4422614983849
 20
-289.6397016573221
 30
0.0
 10
233.3748501865812
 20
-289.7044652222762
 30
0.0
 10
233.3556405695998
 20
-289.7948393647192
 30
0.0
 10
233.3269358238335
 20
-289.9298845759363
 30
0.0
 10
233.4131591675461
 20
-290.0626568819845
 30
0.0
 10
233.5482043787649
 20
-290.0913616277514
 30
0.0
 10
233.683249589984
 20
-290.1200663735181
 30
0.0
 10
233.8160218960306
 20
-290.0338430298032
 30
0.0
 10
233.8447266417972
 20
-289.8987978185861
 30
0.0
 10
233.8447266417972
 20
-289.8987978185861
 30
0.0
 10
236.1793112531511
 20
-290.3950290965034
 30
0.0
 10
236.1793112531511
 20
-290.3950290965034
 30
0.0
 10
236.1506065073848
 20
-290.5300743077205
 30
0.0
 10
236.236808789773
 20
-290.6628421370458
 30
0.0
 10
236.3718750623162
 20
-290.6915513595353
 30
0.0
 10
236.5069202735353
 20
-290.7202561053022
 30
0.0
 10
236.6396925795819
 20
-290.6340327615874
 30
0.0
 10
236.6683973253485
 20
-290.4989875503702
 30
0.0
 10
236.6876069423303
 20
-290.4086134079273
 30
0.0
 10
236.6523653596417
 20
-290.3220302966746
 30
0.0
 10
236.5884492675871
 20
-290.2641986210056
 30
0.0
 10
236.5884492675871
 20
-290.2641986210056
 30
0.0
 10
238.1908629611927
 20
-288.4845434763837
 30
0.0
 10
238.1908629611927
 20
-288.4845434763837
 30
0.0
 10
238.2224745627313
 20
-288.5131215205946
 30
0.0
 10
238.2588121205429
 20
-288.5367606199415
 30
0.0
 10
238.3034831893193
 20
-288.5462557487265
 30
0.0
 10
238.4385284005384
 20
-288.5749604944934
 30
0.0
 10
238.5712962298618
 20
-288.4887582121073
 30
0.0
 10
238.6000009756287
 20
-288.3537130008862
 30
0.0
 10
238.6287101981178
 20
-288.2186467283436
 30
0.0
 10
238.542482377683
 20
-288.0858954836205
 30
0.0
 10
238.4074371664636
 20
-288.0571907378536
 30
0.0
  0
SPLINE
  5
A1
330
70
100
AcDbEntity
  8
Top 2
 62
    18
420
        0
370
    25
100
AcDbSpline
210
0.0
220
0.0
230
1.0
 70
     9
 71
     3
 72
    83
 73
    79
 74
     0
 42
0.0000000001
 43
0.0000000001
 40
0.0
 40
0.0
 40
0.0
 40
0.0
 40
1.0
 40
1.0
 40
1.0
 40
2.0
 40
2.0
 40
2.0
 40
3.0
 40
3.0
 40
3.0
 40
4.0
 40
4.0
 40
4.0
 40
5.0
 40
5.0
 40
5.0
 40
6.0
 40
6.0
 40
6.0
 40
7.0
 40
7.0
 40
7.0
 40
8.0
 40
8.0
 40
8.0
 40
9.0
 40
9.0
 40
9.0
 40
10.0
 40
10.0
 40
10.0
 40
11.0
 40
11.0
 40
11.0
 40
12.0
 40
12.0
 40
12.0
 40
13.0
 40
13.0
 40
13.0
 40
14.0
 40
14.0
 40
14.0
 40
15.0
 40
15.0
 40
15.0
 40
16.0
 40
16.0
 40
16.0
 40
17.0
 40
17.0
 40
17.0
 40
18.0
 40
18.0
 40
18.0
 40
19.0
 40
19.0
 40
19.0
 40
20.0
 40
20.0
 40
20.0
 40
21.0
 40
21.0
 40
21.0
 40
22.0
 40
22.0
 40
22.0
 40
23.0
 40
23.0
 40
23.0
 40
24.0
 40
24.0
 40
24.0
 40
25.0
 40
25.0
 40
25.0
 40
26.0
 40
26.0
 40
26.0
 40
26.0
 10
368.3034786800992
 20
-286.8645450170616
 30
0.0
 10
368.2588076113197
 20
-286.8740401458467
 30
0.0
 10
368.2224489921839
 20
-286.8976837219161
 30
0.0
 10
368.1908629286952
 20
-286.9262783507299
 30
0.0
 10
368.1908629286952
 20
-286.9262783507299
 30
0.0
 10
366.588449235089
 20
-285.1466232061083
 30
0.0
 10
366.588449235089
 20
-285.1466232061083
 30
0.0
 10
366.6523653271417
 20
-285.0887915304393
 30
0.0
 10
366.6876069098296
 20
-285.0022084191866
 30
0.0
 10
366.668397292851
 20
-284.9118342767433
 30
0.0
 10
366.6396880703609
 20
-284.7767680042007
 30
0.0
 10
366.5069202410368
 20
-284.6905657218116
 30
0.0
 10
366.3718750298162
 20
-284.7192704675782
 30
0.0
 10
366.2368087572726
 20
-284.7479796900677
 30
0.0
 10
366.1506019981606
 20
-284.8807264580675
 30
0.0
 10
366.1793112206507
 20
-285.0157927306102
 30
0.0
 10
366.1793112206507
 20
-285.0157927306102
 30
0.0
 10
363.8447266092978
 20
-285.5120240085275
 30
0.0
 10
363.8447266092978
 20
-285.5120240085275
 30
0.0
 10
363.8160173868077
 20
-285.3769577359846
 30
0.0
 10
363.6832495574836
 20
-285.2907554535955
 30
0.0
 10
363.5482043462668
 20
-285.3194601993624
 30
0.0
 10
363.4131591350461
 20
-285.348164945129
 30
0.0
 10
363.3269313146112
 20
-285.4809161898518
 30
0.0
 10
363.3556405371014
 20
-285.6159824623944
 30
0.0
 10
363.3748501540832
 20
-285.7063566048374
 30
0.0
 10
363.4422569891639
 20
-285.771099108466
 30
0.0
 10
363.5241695063529
 20
-285.7979339563609
 30
0.0
 10
363.5241695063529
 20
-285.7979339563609
 30
0.0
 10
362.784142714652
 20
-288.0754901964593
 30
0.0
 10
362.784142714652
 20
-288.0754901964593
 30
0.0
 10
362.7436403418918
 20
-288.0622404506706
 30
0.0
 10
362.7008083817724
 20
-288.0554293518443
 30
0.0
 10
362.656137312996
 20
-288.0649244806297
 30
0.0
 10
362.521092101776
 20
-288.0936292263966
 30
0.0
 10
362.434885342664
 20
-288.2263759943974
 30
0.0
 10
362.4635945651541
 20
-288.3614422669397
 30
0.0
 10
362.492299310922
 20
-288.496487478161
 30
0.0
 10
362.6250460789193
 20
-288.5826942372694
 30
0.0
 10
362.76009129014
 20
-288.5539894915025
 30
0.0
 10
362.8047623589158
 20
-288.5444943627174
 30
0.0
 10
362.8411209780515
 20
-288.520850786648
 30
0.0
 10
362.872711518265
 20
-288.4922772191597
 30
0.0
 10
362.872711518265
 20
-288.4922772191597
 30
0.0
 10
364.4751462731954
 20
-290.2719278870587
 30
0.0
 10
364.4751462731954
 20
-290.2719278870587
 30
0.0
 10
364.4112301811428
 20
-290.3297595627281
 30
0.0
 10
364.3759885984516
 20
-290.4163426739804
 30
0.0
 10
364.3951982154334
 20
-290.506716816424
 30
0.0
 10
364.4239029612013
 20
-290.6417620276409
 30
0.0
 10
364.5566752672475
 20
-290.7279853713554
 30
0.0
 10
364.6917204784683
 20
-290.6992806255888
 30
0.0
 10
364.8267656896851
 20
-290.6705758798225
 30
0.0
 10
364.9129890333983
 20
-290.537803573774
 30
0.0
 10
364.8842842876337
 20
-290.4027583625565
 30
0.0
 10
364.8842842876337
 20
-290.4027583625565
 30
0.0
 10
367.2188688989866
 20
-289.9065270846395
 30
0.0
 10
367.2188688989866
 20
-289.9065270846395
 30
0.0
 10
367.2475736447513
 20
-290.0415722958566
 30
0.0
 10
367.380324889474
 20
-290.1278001162944
 30
0.0
 10
367.5153911620177
 20
-290.0990908938046
 30
0.0
 10
367.6504363732383
 20
-290.070386148038
 30
0.0
 10
367.7366597169477
 20
-289.9376138419895
 30
0.0
 10
367.7079549711837
 20
-289.8025686307729
 30
0.0
 10
367.6887453542019
 20
-289.7121944883297
 30
0.0
 10
367.6213340423989
 20
-289.6474309233756
 30
0.0
 10
367.5394215252061
 20
-289.6205960754807
 30
0.0
 10
367.5394215252061
 20
-289.6205960754807
 30
0.0
 10
368.2794483169076
 20
-287.3430398353855
 30
0.0
 10
368.2794483169076
 20
-287.3430398353855
 30
0.0
 10
368.319950689671
 20
-287.356289581171
 30
0.0
 10
368.3627615884669
 20
-287.3631051567199
 30
0.0
 10
368.4074326572426
 20
-287.3536100279345
 30
0.0
 10
368.5424778684595
 20
-287.3249052821679
 30
0.0
 10
368.6287056888982
 20
-287.1921540374483
 30
0.0
 10
368.6000009431303
 20
-287.0571088262273
 30
0.0
 10
368.5712917206402
 20
-286.9220425536844
 30
0.0
 10
368.4385238913161
 20
-286.8358402712947
 30
0.0
 10
368.3034786800992
 20
-286.8645450170616
 30
0.0
  0
SPLINE
  5
A3
330
70
100
AcDbEntity
  8
Top 1
 62
    18
420
        0
370
    25
100
AcDbSpline
210
0.0
220
0.0
230
1.0
 70
     9
 71
     3
 72
    41
 73
    37
 74
     0
 42
0.0000000001
 43
0.0000000001
 40
0.0
 40
0.0
 40
0.0
 40
0.0
 40
1.0
 40
1.0
 40
1.0
 40
2.0
 40
2.0
 40
2.0
 40
3.0
 40
3.0
 40
3.0
 40
4.0
 40
4.0
 40
4.0
 40
5.0
 40
5.0
 40
5.0
 40
6.0
 40
6.0
 40
6.0
 40
7.0
 40
7.0
 40
7.0
 40
8.0
 40
8.0
 40
8.0
 40
9.0
 40
9.0
 40
9.0
 40
10.0
 40
10.0
 40
10.0
 40
11.0
 40
11.0
 40
11.0
 40
12.0
 40
12.0
 40
12.0
 40
12.0
 10
497.5218665230461
 20
-269.797781008453
 30
0.0
 10
497.5218665230461
 20
-269.797781008453
 30
0.0
 10
392.9934878961717
 20
-269.797781008453
 30
0.0
 10
392.9934878961717
 20
-269.797781008453
 30
0.0
 10
392.9934878961717
 20
-269.797781008453
 30
0.0
 10
310.5317977678912
 20
-286.7997750088142
 30
0.0
 10
310.5317977678912
 20
-286.7997750088142
 30
0.0
 10
310.5317977678912
 20
-286.7997750088142
 30
0.0
 10
290.5317977728913
 20
-286.7997750088142
 30
0.0
 10
290.5317977728913
 20
-286.7997750088142
 30
0.0
 10
290.5317977728913
 20
-286.7997750088142
 30
0.0
 10
208.0700990385976
 20
-269.797781008453
 30
0.0
 10
208.0700990385976
 20
-269.797781008453
 30
0.0
 10
208.0700990385976
 20
-269.797781008453
 30
0.0
 10
142.4344178785049
 20
-269.797781008453
 30
0.0
 10
142.4344178785049
 20
-269.797781008453
 30
0.0
 10
141.3298483791196
 20
-269.797781008453
 30
0.0
 10
140.434417879005
 20
-270.6932115085676
 30
0.0
 10
140.434417879005
 20
-271.7977810079529
 30
0.0
 10
140.434417879005
 20
-271.7977810079529
 30
0.0
 10
140.4344178790041
 20
-356.7978238442901
 30
0.0
 10
140.4344178790041
 20
-356.7978238442901
 30
0.0
 10
140.4344178790041
 20
-357.9023933436734
 30
0.0
 10
141.3298483791189
 20
-358.7978238437896
 30
0.0
 10
142.4344178785046
 20
-358.7978238437896
 30
0.0
 10
142.4344178785046
 20
-358.7978238437896
 30
0.0
 10
497.5218665230423
 20
-358.7978238437896
 30
0.0
 10
497.5218665230423
 20
-358.7978238437896
 30
0.0
 10
498.6264360224289
 20
-358.7978238437896
 30
0.0
 10
499.5218665225451
 20
-357.9023933436734
 30
0.0
 10
499.5218665225451
 20
-356.7978238442868
 30
0.0
 10
499.5218665225451
 20
-356.7978238442868
 30
0.0
 10
499.5218665225451
 20
-271.7977810079532
 30
0.0
 10
499.5218665225451
 20
-271.7977810079532
 30
0.0
 10
499.5218665225451
 20
-270.6932115085676
 30
0.0
 10
498.6264360224289
 20
-269.797781008453
 30
0.0
 10
497.5218665230461
 20
-269.797781008453
 30
0.0
  0
CIRCLE
  5
A4
330
70
100
AcDbEntity
  8
Top 1
 62
    18
420
        0
370
    25
100
AcDbCircle
 10
365.5317977623752
 20
-353.7979450772728
 30
0.0
 40
1.350000335156397
  0
CIRCLE
  5
A5
330
70
100
AcDbEntity
  8
Top 1
 62
    18
420
        0
370
    25
100
AcDbCircle
 10
235.5317971116408
 20
-353.7979450772726
 30
0.0
 40
1.350000001773157
  0
CIRCLE
  5
A6
330
70
100
AcDbEntity
  8
Top 1
 62
    18
420
        0
370
    25
100
AcDbCircle
 10
145.4344558422285
 20
-353.7979450772738
 30
0.0
 40
1.349999998449
  0
CIRCLE
  5
A7
330
70
100
AcDbEntity
  8
Top 1
 62
    18
420
        0
370
    25
100
AcDbCircle
 10
494.5219044882671
 20
-353.7979437174567
 30
0.0
 40
1.349999993538684
  0
CIRCLE
  5
A8
330
70
100
AcDbEntity
  8
Top 1
 62
    18
420
        0
370
    25
100
AcDbCircle
 10
235.5317971116409
 20
-287.7015455972974
 30
0.0
 40
1.350000001773197
  0
CIRCLE
  5
A9
330
70
100
AcDbEntity
  8
Top 1
 62
    18
420
        0
370
    25
100
AcDbCircle
 10
365.5317970791415
 20
-287.7092748633508
 30
0.0
 40
1.350000001773197
  0
CIRCLE
  5
AA
330
70
100
AcDbEntity
  8
Top 1
 62
    18
420
        0
370
    25
100
AcDbCircle
 10
494.5218920322033
 20
-280.7977803225161
 30
0.0
 40
1.35000000177079
  0
CIRCLE
  5
AB
330
70
100
AcDbEntity
  8
Top 1
 62
    18
420
        0
370
    25
100
AcDbCircle
 10
145.434443386166
 20
-280.7977803225152
 30
0.0
 40
1.350000001772315
  0
ENDSEC
  0
SECTION
  2
OBJECTS
  0
DICTIONARY
  5
C
330
0
100
AcDbDictionary
281
     1
  3
ACAD_COLOR
350
63
  3
ACAD_DETAILVIEWSTYLE
350
6A
  3
ACAD_GROUP
350
D
  3
ACAD_LAYOUT
350
62
  3
ACAD_MATERIAL
350
10
  3
ACAD_MLEADERSTYLE
350
66
  3
ACAD_MLINESTYLE
350
5F
  3
ACAD_PLOTSETTINGS
350
61
  3
ACAD_PLOTSTYLENAME
350
E
  3
ACAD_SCALELIST
350
42
  3
ACAD_SECTIONVIEWSTYLE
350
68
  3
ACAD_TABLESTYLE
350
64
  3
ACAD_VISUALSTYLE
350
29
  3
ACDB_RECOMPOSE_DATA
350
B4
  3
AcDbVariableDictionary
350
AC
  0
DICTIONARY
  5
63
102
{ACAD_REACTORS
330
C
102
}
330
C
100
AcDbDictionary
281
     1
  0
DICTIONARY
  5
6A
102
{ACAD_REACTORS
330
C
102
}
330
C
100
AcDbDictionary
281
     1
  3
Imperial24
350
6B
  0
DICTIONARY
  5
D
102
{ACAD_REACTORS
330
C
102
}
330
C
100
AcDbDictionary
281
     1
  0
DICTIONARY
  5
62
102
{ACAD_REACTORS
330
C
102
}
330
C
100
AcDbDictionary
281
     1
  3
Layout1
350
6F
  3
Layout2
350
77
  3
Model
350
73
  0
DICTIONARY
  5
10
102
{ACAD_REACTORS
330
C
102
}
330
C
100
AcDbDictionary
281
     1
  3
ByBlock
350
19
  3
ByLayer
350
11
  3
Global
350
21
  0
DICTIONARY
  5
66
102
{ACAD_REACTORS
330
C
102
}
330
C
100
AcDbDictionary
281
     1
  3
Standard
350
67
  0
DICTIONARY
  5
5F
102
{ACAD_REACTORS
330
C
102
}
330
C
100
AcDbDictionary
281
     1
  3
Standard
350
60
  0
DICTIONARY
  5
61
102
{ACAD_REACTORS
330
C
102
}
330
C
100
AcDbDictionary
281
     1
  0
ACDBDICTIONARYWDFLT
  5
E
102
{ACAD_REACTORS
330
C
102
}
330
C
100
AcDbDictionary
281
     1
  3
Normal
350
F
100
AcDbDictionaryWithDefault
340
F
  0
DICTIONARY
  5
42
102
{ACAD_REACTORS
330
C
102
}
330
C
100
AcDbDictionary
281
     1
  3
A0
350
43
  3
A1
350
44
  3
A2
350
45
  3
A3
350
46
  3
A4
350
47
  3
A5
350
48
  3
A6
350
49
  3
A7
350
4A
  3
A8
350
4B
  3
A9
350
4C
  3
B0
350
4D
  3
B1
350
4E
  3
B2
350
4F
  3
B3
350
50
  3
B4
350
51
  3
B5
350
52
  3
B6
350
53
  0
DICTIONARY
  5
68
102
{ACAD_REACTORS
330
C
102
}
330
C
100
AcDbDictionary
281
     1
  3
Imperial24
350
69
  0
DICTIONARY
  5
64
102
{ACAD_REACTORS
330
C
102
}
330
C
100
AcDbDictionary
281
     1
  3
Standard
350
65
  0
DICTIONARY
  5
29
102
{ACAD_REACTORS
330
C
102
}
330
C
100
AcDbDictionary
281
     1
  3
2dWireframe
350
2F
  3
Basic
350
2E
  3
Brighten
350
35
  3
ColorChange
350
39
  3
Conceptual
350
32
  3
Dim
350
34
  3
EdgeColorOff
350
41
  3
Facepattern
350
38
  3
Flat
350
2A
  3
FlatWithEdges
350
2B
  3
Gouraud
350
2C
  3
GouraudWithEdges
350
2D
  3
Hidden
350
31
  3
JitterOff
350
3F
  3
Linepattern
350
37
  3
OverhangOff
350
40
  3
Realistic
350
33
  3
Shaded
350
3E
  3
Shaded with edges
350
3D
  3
Shades of Gray
350
3A
  3
Sketchy
350
3B
  3
Thicken
350
36
  3
Wireframe
350
30
  3
X-Ray
350
3C
  0
XRECORD
  5
B4
102
{ACAD_REACTORS
330
C
102
}
330
C
100
AcDbXrecord
280
     1
 90
        1
330
65
  0
DICTIONARY
  5
AC
102
{ACAD_REACTORS
330
C
102
}
330
C
100
AcDbDictionary
281
     1
  3
CANNOSCALE
350
B1
  3
CMLEADERSTYLE
350
AE
  3
CTABLESTYLE
350
AD
  3
CVIEWDETAILSTYLE
350
AF
  3
CVIEWSECTIONSTYLE
350
B0
  0
ACDBDETAILVIEWSTYLE
  5
6B
102
{ACAD_REACTORS
330
6A
102
}
330
6A
100
AcDbModelDocViewStyle
 70
     0
  3
Imperial24
290
     1
300
Imperial24
 90
        0
100
AcDbDetailViewStyle
 70
     0
 71
     0
 90
        3
 71
     1
340
55
 62
   256
 40
0.24
340
0
 62
   256
 40
0.24
300

 40
0.36
280
     3
 71
     2
340
5D
 90
       25
 62
   256
 71
     3
340
55
 62
   256
 40
0.24
 90
        1
 40
0.75
 90
        1
300
%<\AcVar ViewType \f "%tc1">% %<\AcVar ViewDetailId>%\PSCALE %<\AcVar ViewScale \f "%sn">%
 71
     4
340
5D
 90
       25
 62
   256
340
5D
 90
       25
 62
   256
280
     0
  0
LAYOUT
  5
6F
102
{ACAD_REACTORS
330
62
102
}
330
62
100
AcDbPlotSettings
  1

  2

  4

  6

 40
0.0
 41
0.0
 42
0.0
 43
0.0
 44
0.0
 45
0.0
 46
0.0
 47
0.0
 48
0.0
 49
0.0
140
0.0
141
0.0
142
1.0
143
1.0
 70
   688
 72
     0
 73
     0
 74
     5
  7

 75
    16
147
1.0
 76
     0
 77
     2
 78
   300
148
0.0
149
0.0
100
AcDbLayout
  1
Layout1
 70
     1
 71
     1
 10
0.0
 20
0.0
 11
12.0
 21
9.0
 12
0.0
 22
0.0
 32
0.0
 14
0.0
 24
0.0
 34
0.0
 15
0.0
 25
0.0
 35
0.0
146
0.0
 13
0.0
 23
0.0
 33
0.0
 16
1.0
 26
0.0
 36
0.0
 17
0.0
 27
1.0
 37
0.0
 76
     0
330
6C
  0
LAYOUT
  5
77
102
{ACAD_REACTORS
330
62
102
}
330
62
100
AcDbPlotSettings
  1

  2

  4

  6

 40
0.0
 41
0.0
 42
0.0
 43
0.0
 44
0.0
 45
0.0
 46
0.0
 47
0.0
 48
0.0
 49
0.0
140
0.0
141
0.0
142
1.0
143
1.0
 70
   688
 72
     0
 73
     0
 74
     5
  7

 75
    16
147
1.0
 76
     0
 77
     2
 78
   300
148
0.0
149
0.0
100
AcDbLayout
  1
Layout2
 70
     1
 71
     2
 10
0.0
 20
0.0
 11
12.0
 21
9.0
 12
0.0
 22
0.0
 32
0.0
 14
0.0
 24
0.0
 34
0.0
 15
0.0
 25
0.0
 35
0.0
146
0.0
 13
0.0
 23
0.0
 33
0.0
 16
1.0
 26
0.0
 36
0.0
 17
0.0
 27
1.0
 37
0.0
 76
     0
330
74
  0
LAYOUT
  5
73
102
{ACAD_REACTORS
330
62
102
}
330
62
100
AcDbPlotSettings
  1

  2

  4

  6

 40
0.0
 41
0.0
 42
0.0
 43
0.0
 44
0.0
 45
0.0
 46
0.0
 47
0.0
 48
0.0
 49
0.0
140
0.0
141
0.0
142
1.0
143
1.0
 70
  1712
 72
     0
 73
     0
 74
     0
  7

 75
     0
147
1.0
 76
     0
 77
     2
 78
   300
148
0.0
149
0.0
100
AcDbLayout
  1
Model
 70
     1
 71
     0
 10
0.0
 20
0.0
 11
12.0
 21
9.0
 12
0.0
 22
0.0
 32
0.0
 14
0.0
 24
0.0
 34
0.0
 15
0.0
 25
0.0
 35
0.0
146
0.0
 13
0.0
 23
0.0
 33
0.0
 16
1.0
 26
0.0
 36
0.0
 17
0.0
 27
1.0
 37
0.0
 76
     0
330
70
  0
MATERIAL
  5
19
102
{ACAD_XDICTIONARY
360
1A
102
}
102
{ACAD_REACTORS
330
10
102
}
330
10
100
AcDbMaterial
  1
ByBlock
 72
     0
 43
0.0208333333333333
 43
0.0
 43
0.0
 43
0.0
 43
0.0
 43
0.0208333333333333
 43
0.0
 43
0.0
 43
0.0
 43
0.0
 43
1.0
 43
0.0
 43
0.0
 43
0.0
 43
0.0
 43
1.0
 77
     0
 47
0.0208333333333333
 47
0.0
 47
0.0
 47
0.0
 47
0.0
 47
0.0208333333333333
 47
0.0
 47
0.0
 47
0.0
 47
0.0
 47
1.0
 47
0.0
 47
0.0
 47
0.0
 47
0.0
 47
1.0
171
     0
 49
0.0208333333333333
 49
0.0
 49
0.0
 49
0.0
 49
0.0
 49
0.0208333333333333
 49
0.0
 49
0.0
 49
0.0
 49
0.0
 49
1.0
 49
0.0
 49
0.0
 49
0.0
 49
0.0
 49
1.0
175
     0
142
0.0208333333333333
142
0.0
142
0.0
142
0.0
142
0.0
142
0.0208333333333333
142
0.0
142
0.0
142
0.0
142
0.0
142
1.0
142
0.0
142
0.0
142
0.0
142
0.0
142
1.0
179
     0
144
0.0208333333333333
144
0.0
144
0.0
144
0.0
144
0.0
144
0.0208333333333333
144
0.0
144
0.0
144
0.0
144
0.0
144
1.0
144
0.0
144
0.0
144
0.0
144
0.0
144
1.0
147
0.0208333333333333
147
0.0
147
0.0
147
0.0
147
0.0
147
0.0208333333333333
147
0.0
147
0.0
147
0.0
147
0.0
147
1.0
147
0.0
147
0.0
147
0.0
147
0.0
147
1.0
  0
MATERIAL
  5
11
102
{ACAD_XDICTIONARY
360
12
102
}
102
{ACAD_REACTORS
330
10
102
}
330
10
100
AcDbMaterial
  1
ByLayer
 72
     0
 43
0.0208333333333333
 43
0.0
 43
0.0
 43
0.0
 43
0.0
 43
0.0208333333333333
 43
0.0
 43
0.0
 43
0.0
 43
0.0
 43
1.0
 43
0.0
 43
0.0
 43
0.0
 43
0.0
 43
1.0
 77
     0
 47
0.0208333333333333
 47
0.0
 47
0.0
 47
0.0
 47
0.0
 47
0.0208333333333333
 47
0.0
 47
0.0
 47
0.0
 47
0.0
 47
1.0
 47
0.0
 47
0.0
 47
0.0
 47
0.0
 47
1.0
171
     0
 49
0.0208333333333333
 49
0.0
 49
0.0
 49
0.0
 49
0.0
 49
0.0208333333333333
 49
0.0
 49
0.0
 49
0.0
 49
0.0
 49
1.0
 49
0.0
 49
0.0
 49
0.0
 49
0.0
 49
1.0
175
     0
142
0.0208333333333333
142
0.0
142
0.0
142
0.0
142
0.0
142
0.0208333333333333
142
0.0
142
0.0
142
0.0
142
0.0
142
1.0
142
0.0
142
0.0
142
0.0
142
0.0
142
1.0
179
     0
144
0.0208333333333333
144
0.0
144
0.0
144
0.0
144
0.0
144
0.0208333333333333
144
0.0
144
0.0
144
0.0
144
0.0
144
1.0
144
0.0
144
0.0
144
0.0
144
0.0
144
1.0
147
0.0208333333333333
147
0.0
147
0.0
147
0.0
147
0.0
147
0.0208333333333333
147
0.0
147
0.0
147
0.0
147
0.0
147
1.0
147
0.0
147
0.0
147
0.0
147
0.0
147
1.0
  0
MATERIAL
  5
21
102
{ACAD_XDICTIONARY
360
22
102
}
102
{ACAD_REACTORS
330
10
102
}
330
10
100
AcDbMaterial
  1
Global
 72
     0
 43
0.0208333333333333
 43
0.0
 43
0.0
 43
0.0
 43
0.0
 43
0.0208333333333333
 43
0.0
 43
0.0
 43
0.0
 43
0.0
 43
1.0
 43
0.0
 43
0.0
 43
0.0
 43
0.0
 43
1.0
 77
     0
 47
0.0208333333333333
 47
0.0
 47
0.0
 47
0.0
 47
0.0
 47
0.0208333333333333
 47
0.0
 47
0.0
 47
0.0
 47
0.0
 47
1.0
 47
0.0
 47
0.0
 47
0.0
 47
0.0
 47
1.0
171
     0
 49
0.0208333333333333
 49
0.0
 49
0.0
 49
0.0
 49
0.0
 49
0.0208333333333333
 49
0.0
 49
0.0
 49
0.0
 49
0.0
 49
1.0
 49
0.0
 49
0.0
 49
0.0
 49
0.0
 49
1.0
175
     0
142
0.0208333333333333
142
0.0
142
0.0
142
0.0
142
0.0
142
0.0208333333333333
142
0.0
142
0.0
142
0.0
142
0.0
142
1.0
142
0.0
142
0.0
142
0.0
142
0.0
142
1.0
179
     0
144
0.0208333333333333
144
0.0
144
0.0
144
0.0
144
0.0
144
0.0208333333333333
144
0.0
144
0.0
144
0.0
144
0.0
144
1.0
144
0.0
144
0.0
144
0.0
144
0.0
144
1.0
147
0.0208333333333333
147
0.0
147
0.0
147
0.0
147
0.0
147
0.0208333333333333
147
0.0
147
0.0
147
0.0
147
0.0
147
1.0
147
0.0
147
0.0
147
0.0
147
0.0
147
1.0
  0
MLEADERSTYLE
  5
67
102
{ACAD_REACTORS
330
66
102
}
330
66
100
AcDbMLeaderStyle
179
     2
170
     2
171
     1
172
     0
 90
        2
 40
0.0
 41
0.0
173
     1
 91
-1056964608
340
5B
 92
       -2
290
     1
 42
0.09
291
     1
 43
0.36
  3
Standard
 44
0.18
300

342
55
174
     1
178
     6
175
     1
176
     0
 93
-1056964608
 45
0.18
292
     0
297
     0
 46
0.18
 94
-1056964608
 47
1.0
 49
1.0
140
1.0
293
     1
141
0.0
294
     1
177
     0
142
1.0
295
     1
296
     0
143
0.125
271
     0
272
     9
273
     9
298
     1
  0
MLINESTYLE
  5
60
102
{ACAD_REACTORS
330
5F
102
}
330
5F
100
AcDbMlineStyle
  2
STANDARD
 70
     0
  3

 62
   256
 51
90.0
 52
90.0
 71
     2
 49
0.5
 62
   256
  6
BYLAYER
 49
-0.5
 62
   256
  6
BYLAYER
  0
ACDBPLACEHOLDER
  5
F
102
{ACAD_REACTORS
330
E
102
}
330
E
  0
SCALE
  5
43
102
{ACAD_REACTORS
330
42
102
}
330
42
100
AcDbScale
 70
     0
300
1:1
140
1.0
141
1.0
290
     1
  0
SCALE
  5
44
102
{ACAD_REACTORS
330
42
102
}
330
42
100
AcDbScale
 70
     0
300
1/128" = 1'-0"
140
0.0078125
141
12.0
290
     0
  0
SCALE
  5
45
102
{ACAD_REACTORS
330
42
102
}
330
42
100
AcDbScale
 70
     0
300
1/64" = 1'-0"
140
0.015625
141
12.0
290
     0
  0
SCALE
  5
46
102
{ACAD_REACTORS
330
42
102
}
330
42
100
AcDbScale
 70
     0
300
1/32" = 1'-0"
140
0.03125
141
12.0
290
     0
  0
SCALE
  5
47
102
{ACAD_REACTORS
330
42
102
}
330
42
100
AcDbScale
 70
     0
300
1/16" = 1'-0"
140
0.0625
141
12.0
290
     0
  0
SCALE
  5
48
102
{ACAD_REACTORS
330
42
102
}
330
42
100
AcDbScale
 70
     0
300
3/32" = 1'-0"
140
0.09375
141
12.0
290
     0
  0
SCALE
  5
49
102
{ACAD_REACTORS
330
42
102
}
330
42
100
AcDbScale
 70
     0
300
1/8" = 1'-0"
140
0.125
141
12.0
290
     0
  0
SCALE
  5
4A
102
{ACAD_REACTORS
330
42
102
}
330
42
100
AcDbScale
 70
     0
300
3/16" = 1'-0"
140
0.1875
141
12.0
290
     0
  0
SCALE
  5
4B
102
{ACAD_REACTORS
330
42
102
}
330
42
100
AcDbScale
 70
     0
300
1/4" = 1'-0"
140
0.25
141
12.0
290
     0
  0
SCALE
  5
4C
102
{ACAD_REACTORS
330
42
102
}
330
42
100
AcDbScale
 70
     0
300
3/8" = 1'-0"
140
0.375
141
12.0
290
     0
  0
SCALE
  5
4D
102
{ACAD_REACTORS
330
42
102
}
330
42
100
AcDbScale
 70
     0
300
1/2" = 1'-0"
140
0.5
141
12.0
290
     0
  0
SCALE
  5
4E
102
{ACAD_REACTORS
330
42
102
}
330
42
100
AcDbScale
 70
     0
300
3/4" = 1'-0"
140
0.75
141
12.0
290
     0
  0
SCALE
  5
4F
102
{ACAD_REACTORS
330
42
102
}
330
42
100
AcDbScale
 70
     0
300
1" = 1'-0"
140
1.0
141
12.0
290
     0
  0
SCALE
  5
50
102
{ACAD_REACTORS
330
42
102
}
330
42
100
AcDbScale
 70
     0
300
1-1/2" = 1'-0"
140
1.5
141
12.0
290
     0
  0
SCALE
  5
51
102
{ACAD_REACTORS
330
42
102
}
330
42
100
AcDbScale
 70
     0
300
3" = 1'-0"
140
3.0
141
12.0
290
     0
  0
SCALE
  5
52
102
{ACAD_REACTORS
330
42
102
}
330
42
100
AcDbScale
 70
     0
300
6" = 1'-0"
140
6.0
141
12.0
290
     0
  0
SCALE
  5
53
102
{ACAD_REACTORS
330
42
102
}
330
42
100
AcDbScale
 70
     0
300
1'-0" = 1'-0"
140
12.0
141
12.0
290
     0
  0
ACDBSECTIONVIEWSTYLE
  5
69
102
{ACAD_REACTORS
330
68
102
}
330
68
100
AcDbModelDocViewStyle
 70
     0
  3
Imperial24
290
     1
300
Imperial24
 90
        0
100
AcDbSectionViewStyle
 70
     0
 71
     0
 90
       78
 71
     1
340
55
 62
   256
 40
0.24
340
0
340
0
 62
   256
 40
0.24
300
I, O, Q, S, X, Z
 40
0.48
 90
        3
 40
0.18
 90
        1
 71
     2
340
5D
 90
       25
 62
   256
340
5D
 90
       50
 62
   256
 40
0.24
 40
0.0
 40
0.24
 71
     3
340
55
 62
   256
 40
0.24
 90
        1
 40
0.75
 90
        1
300
%<\AcVar ViewType \f "%tc1">% %<\AcVar ViewSectionStartId>%-%<\AcVar ViewSectionEndId>%\PSCALE %<\AcVar ViewScale \f "%sn">%
 71
     4
 62
   256
 62
   257
300
ANSI31
 40
1.0
 90
        0
290
     0
290
     0
 90
        6
 40
0.0
 40
1.570796326794896
 40
0.2617993877991494
 40
1.308996938995747
 40
-0.2617993877991494
 40
1.832595714594046
  0
TABLESTYLE
  5
65
102
{ACAD_XDICTIONARY
360
B2
102
}
102
{ACAD_REACTORS
330
64
102
}
330
64
100
AcDbTableStyle
280
     0
  3
Standard
 70
     0
 71
     0
 40
0.06
 41
0.06
280
     0
281
     0
  7
Standard
140
0.18
170
     2
 62
     0
 63
     7
283
     0
 90
      512
 91
        0
  1

274
    -2
284
     1
 64
     0
275
    -2
285
     1
 65
     0
276
    -2
286
     1
 66
     0
277
    -2
287
     1
 67
     0
278
    -2
288
     1
 68
     0
279
    -2
289
     1
 69
     0
  7
Standard
140
0.25
170
     5
 62
     0
 63
     7
283
     0
 90
      512
 91
        0
  1

274
    -2
284
     1
 64
     0
275
    -2
285
     1
 65
     0
276
    -2
286
     1
 66
     0
277
    -2
287
     1
 67
     0
278
    -2
288
     1
 68
     0
279
    -2
289
     1
 69
     0
  7
Standard
140
0.18
170
     5
 62
     0
 63
     7
283
     0
 90
      512
 91
        0
  1

274
    -2
284
     1
 64
     0
275
    -2
285
     1
 65
     0
276
    -2
286
     1
 66
     0
277
    -2
287
     1
 67
     0
278
    -2
288
     1
 68
     0
279
    -2
289
     1
 69
     0
  0
VISUALSTYLE
  5
2F
102
{ACAD_REACTORS
330
29
102
}
330
29
100
AcDbVisualStyle
  2
2dWireframe
 70
     4
177
     3
291
     0
 70
    58
 90
        0
176
     1
 90
        2
176
     1
 90
        0
176
     1
 90
        0
176
     1
 40
0.6
176
     1
 40
30.0
176
     1
 62
     7
420
 16777215
176
     1
 90
        1
176
     1
 90
        4
176
     1
 62
     7
176
     1
 62
   257
176
     1
 90
        1
176
     1
 90
        1
176
     1
 40
1.0
176
     1
 90
        0
176
     1
 62
   257
176
     1
 40
1.0
176
     1
 90
        1
176
     1
 90
        6
176
     1
 90
        2
176
     1
 62
     7
176
     1
 90
        5
176
     1
 90
        0
176
     1
 90
        0
176
     1
290
     0
176
     1
 90
        1
176
     1
 40
0.0
176
     1
 90
        0
176
     1
290
     1
176
     1
290
     1
176
     1
290
     0
176
     1
290
     0
176
     1
290
     0
176
     1
290
     0
176
     1
290
     0
176
     1
290
     0
176
     1
290
     0
176
     1
 90
       50
176
     1
 40
0.0
176
     1
 40
1.0
176
     1
 90
        0
176
     1
 62
    18
420
        0
176
     1
 90
       50
176
     1
 90
        3
176
     1
 62
     5
420
      255
176
     1
290
     0
176
     1
 90
       50
176
     1
 90
       50
176
     1
 90
       50
176
     1
290
     0
176
     1
 90
       50
176
     1
 62
   256
176
     0
 40
1.0
176
     0
 90
        2
176
     1
  1
strokes_ogs.tif
176
     1
290
     0
176
     1
 40
1.0
176
     1
 40
1.0
176
     1
  0
VISUALSTYLE
  5
2E
102
{ACAD_REACTORS
330
29
102
}
330
29
100
AcDbVisualStyle
  2
Basic
 70
     7
177
     3
291
     1
 70
    58
 90
        1
176
     1
 90
        0
176
     1
 90
        1
176
     1
 90
        0
176
     1
 40
0.6
176
     1
 40
30.0
176
     1
 62
     7
420
 16777215
176
     1
 90
        0
176
     1
 90
        4
176
     1
 62
     7
176
     1
 62
   257
176
     1
 90
        1
176
     1
 90
        1
176
     1
 40
1.0
176
     1
 90
        8
176
     1
 62
     7
176
     1
 40
1.0
176
     1
 90
        1
176
     1
 90
        6
176
     1
 90
        2
176
     1
 62
     7
176
     1
 90
        5
176
     1
 90
        0
176
     1
 90
        0
176
     1
290
     0
176
     1
 90
        1
176
     1
 40
0.0
176
     1
 90
        0
176
     1
290
     0
176
     1
290
     1
176
     1
290
     1
176
     1
290
     0
176
     1
290
     0
176
     1
290
     0
176
     1
290
     0
176
     1
290
     0
176
     1
290
     0
176
     1
 90
       50
176
     1
 40
0.0
176
     1
 40
1.0
176
     1
 90
        0
176
     1
 62
    18
420
        0
176
     1
 90
       50
176
     1
 90
        3
176
     1
 62
     5
420
      255
176
     1
290
     0
176
     1
 90
       50
176
     1
 90
       50
176
     1
 90
       50
176
     1
290
     0
176
     1
 90
       50
176
     1
 62
   256
176
     0
 40
1.0
176
     0
 90
        2
176
     1
  1
strokes_ogs.tif
176
     1
290
     0
176
     1
 40
1.0
176
     1
 40
1.0
176
     1
  0
VISUALSTYLE
  5
35
102
{ACAD_REACTORS
330
29
102
}
330
29
100
AcDbVisualStyle
  2
Brighten
 70
    12
177
     3
291
     1
 70
    58
 90
        2
176
     1
 90
        2
176
     1
 90
        0
176
     1
 90
        0
176
     1
 40
0.6
176
     1
 40
30.0
176
     1
 62
     7
420
 16777215
176
     1
 90
        1
176
     1
 90
        4
176
     1
 62
     7
176
     1
 62
   257
176
     1
 90
        1
176
     1
 90
        1
176
     1
 40
1.0
176
     1
 90
        8
176
     1
 62
     7
176
     1
 40
1.0
176
     1
 90
        1
176
     1
 90
        6
176
     1
 90
        2
176
     1
 62
     7
176
     1
 90
        5
176
     1
 90
        0
176
     1
 90
        0
176
     1
290
     0
176
     1
 90
        1
176
     1
 40
50.0
176
     1
 90
        0
176
     1
290
     0
176
     1
290
     1
176
     1
290
     1
176
     1
290
     0
176
     1
290
     0
176
     1
290
     0
176
     1
290
     0
176
     1
290
     0
176
     1
290
     0
176
     1
 90
       50
176
     1
 40
0.0
176
     1
 40
1.0
176
     1
 90
        0
176
     1
 62
    18
420
        0
176
     1
 90
       50
176
     1
 90
        3
176
     1
 62
     5
420
      255
176
     1
290
     0
176
     1
 90
       50
176
     1
 90
       50
176
     1
 90
       50
176
     1
290
     0
176
     1
 90
       50
176
     1
 62
   256
176
     0
 40
1.0
176
     0
 90
        2
176
     1
  1
strokes_ogs.tif
176
     1
290
     0
176
     1
 40
1.0
176
     1
 40
1.0
176
     1
  0
VISUALSTYLE
  5
39
102
{ACAD_REACTORS
330
29
102
}
330
29
100
AcDbVisualStyle
  2
ColorChange
 70
    16
177
     3
291
     1
 70
    58
 90
        2
176
     1
 90
        2
176
     1
 90
        3
176
     1
 90
        0
176
     1
 40
0.6
176
     1
 40
30.0
176
     1
 62
     8
420
  8421504
176
     1
 90
        1
176
     1
 90
        4
176
     1
 62
     7
176
     1
 62
   257
176
     1
 90
        1
176
     1
 90
        1
176
     1
 40
1.0
176
     1
 90
        8
176
     1
 62
     8
420
  8421504
176
     1
 40
1.0
176
     1
 90
        1
176
     1
 90
        6
176
     1
 90
        2
176
     1
 62
     7
176
     1
 90
        5
176
     1
 90
        0
176
     1
 90
        0
176
     1
290
     0
176
     1
 90
        1
176
     1
 40
0.0
176
     1
 90
        0
176
     1
290
     0
176
     1
290
     1
176
     1
290
     1
176
     1
290
     0
176
     1
290
     0
176
     1
290
     0
176
     1
290
     0
176
     1
290
     0
176
     1
290
     0
176
     1
 90
       50
176
     1
 40
0.0
176
     1
 40
1.0
176
     1
 90
        0
176
     1
 62
    18
420
        0
176
     1
 90
       50
176
     1
 90
        3
176
     1
 62
     5
420
      255
176
     1
290
     0
176
     1
 90
       50
176
     1
 90
       50
176
     1
 90
       50
176
     1
290
     0
176
     1
 90
       50
176
     1
 62
   256
176
     0
 40
1.0
176
     0
 90
        2
176
     1
  1
strokes_ogs.tif
176
     1
290
     0
176
     1
 40
1.0
176
     1
 40
1.0
176
     1
  0
VISUALSTYLE
  5
32
102
{ACAD_REACTORS
330
29
102
}
330
29
100
AcDbVisualStyle
  2
Conceptual
 70
     9
177
     3
291
     0
 70
    58
 90
        3
176
     1
 90
        2
176
     1
 90
        0
176
     1
 90
        0
176
     1
 40
0.6
176
     1
 40
30.0
176
     1
 62
     7
420
 16777215
176
     1
 90
        2
176
     1
 90
        2
176
     1
 62
     7
176
     1
 62
   257
176
     1
 90
        1
176
     1
 90
        1
176
     1
 40
179.0
176
     1
 90
        8
176
     1
 62
     7
176
     1
 40
1.0
176
     1
 90
        1
176
     1
 90
        6
176
     1
 90
        2
176
     1
 62
     7
176
     1
 90
        3
176
     1
 90
        0
176
     1
 90
        0
176
     1
290
     0
176
     1
 90
        1
176
     1
 40
0.0
176
     1
 90
        0
176
     1
290
     0
176
     1
290
     1
176
     1
290
     1
176
     1
290
     0
176
     1
290
     0
176
     1
290
     0
176
     1
290
     0
176
     1
290
     0
176
     1
290
     0
176
     1
 90
       50
176
     1
 40
0.0
176
     1
 40
1.0
176
     1
 90
        0
176
     1
 62
    18
420
        0
176
     1
 90
       50
176
     1
 90
        3
176
     1
 62
     5
420
      255
176
     1
290
     0
176
     1
 90
       50
176
     1
 90
       50
176
     1
 90
       50
176
     1
290
     0
176
     1
 90
       50
176
     1
 62
   256
176
     0
 40
1.0
176
     0
 90
        2
176
     1
  1
strokes_ogs.tif
176
     1
290
     0
176
     1
 40
1.0
176
     1
 40
1.0
176
     1
  0
VISUALSTYLE
  5
34
102
{ACAD_REACTORS
330
29
102
}
330
29
100
AcDbVisualStyle
  2
Dim
 70
    11
177
     3
291
     1
 70
    58
 90
        2
176
     1
 90
        2
176
     1
 90
        0
176
     1
 90
        0
176
     1
 40
0.6
176
     1
 40
30.0
176
     1
 62
     7
420
 16777215
176
     1
 90
        1
176
     1
 90
        4
176
     1
 62
     7
176
     1
 62
   257
176
     1
 90
        1
176
     1
 90
        1
176
     1
 40
1.0
176
     1
 90
        8
176
     1
 62
     7
176
     1
 40
1.0
176
     1
 90
        1
176
     1
 90
        6
176
     1
 90
        2
176
     1
 62
     7
176
     1
 90
        5
176
     1
 90
        0
176
     1
 90
        0
176
     1
290
     0
176
     1
 90
        1
176
     1
 40
-50.0
176
     1
 90
        0
176
     1
290
     0
176
     1
290
     1
176
     1
290
     1
176
     1
290
     0
176
     1
290
     0
176
     1
290
     0
176
     1
290
     0
176
     1
290
     0
176
     1
290
     0
176
     1
 90
       50
176
     1
 40
0.0
176
     1
 40
1.0
176
     1
 90
        0
176
     1
 62
    18
420
        0
176
     1
 90
       50
176
     1
 90
        3
176
     1
 62
     5
420
      255
176
     1
290
     0
176
     1
 90
       50
176
     1
 90
       50
176
     1
 90
       50
176
     1
290
     0
176
     1
 90
       50
176
     1
 62
   256
176
     0
 40
1.0
176
     0
 90
        2
176
     1
  1
strokes_ogs.tif
176
     1
290
     0
176
     1
 40
1.0
176
     1
 40
1.0
176
     1
  0
VISUALSTYLE
  5
41
102
{ACAD_REACTORS
330
29
102
}
330
29
100
AcDbVisualStyle
  2
EdgeColorOff
 70
    22
177
     3
291
     1
 70
    58
 90
        2
176
     0
 90
        2
176
     0
 90
        0
176
     0
 90
        0
176
     0
 40
0.6
176
     0
 40
30.0
176
     0
 62
     7
420
 16777215
176
     0
 90
        1
176
     0
 90
        4
176
     0
 62
     7
176
     0
 62
   257
176
     0
 90
        1
176
     0
 90
        1
176
     0
 40
1.0
176
     0
 90
        8
176
     2
 62
     7
176
     0
 40
1.0
176
     0
 90
        1
176
     0
 90
        6
176
     0
 90
        2
176
     0
 62
     7
176
     0
 90
        5
176
     0
 90
        0
176
     0
 90
        0
176
     0
290
     0
176
     0
 90
        1
176
     0
 40
0.0
176
     0
 90
        0
176
     0
290
     0
176
     0
290
     1
176
     0
290
     1
176
     0
290
     0
176
     0
290
     0
176
     0
290
     0
176
     0
290
     0
176
     0
290
     0
176
     0
290
     0
176
     0
 90
       50
176
     0
 40
0.0
176
     0
 40
1.0
176
     0
 90
        0
176
     0
 62
    18
420
        0
176
     0
 90
       50
176
     0
 90
        3
176
     0
 62
     5
420
      255
176
     0
290
     0
176
     0
 90
       50
176
     0
 90
       50
176
     0
 90
       50
176
     0
290
     0
176
     0
 90
       50
176
     0
 62
   256
176
     0
 40
1.0
176
     0
 90
        2
176
     0
  1
strokes_ogs.tif
176
     0
290
     0
176
     0
 40
1.0
176
     0
 40
1.0
176
     0
  0
VISUALSTYLE
  5
38
102
{ACAD_REACTORS
330
29
102
}
330
29
100
AcDbVisualStyle
  2
Facepattern
 70
    15
177
     3
291
     1
 70
    58
 90
        2
176
     1
 90
        2
176
     1
 90
        0
176
     1
 90
        0
176
     1
 40
0.6
176
     1
 40
30.0
176
     1
 62
     7
420
 16777215
176
     1
 90
        1
176
     1
 90
        4
176
     1
 62
     7
176
     1
 62
   257
176
     1
 90
        1
176
     1
 90
        1
176
     1
 40
1.0
176
     1
 90
        8
176
     1
 62
     7
176
     1
 40
1.0
176
     1
 90
        1
176
     1
 90
        6
176
     1
 90
        2
176
     1
 62
     7
176
     1
 90
        5
176
     1
 90
        0
176
     1
 90
        0
176
     1
290
     0
176
     1
 90
        1
176
     1
 40
0.0
176
     1
 90
        0
176
     1
290
     0
176
     1
290
     1
176
     1
290
     1
176
     1
290
     0
176
     1
290
     0
176
     1
290
     0
176
     1
290
     0
176
     1
290
     0
176
     1
290
     0
176
     1
 90
       50
176
     1
 40
0.0
176
     1
 40
1.0
176
     1
 90
        0
176
     1
 62
    18
420
        0
176
     1
 90
       50
176
     1
 90
        3
176
     1
 62
     5
420
      255
176
     1
290
     0
176
     1
 90
       50
176
     1
 90
       50
176
     1
 90
       50
176
     1
290
     0
176
     1
 90
       50
176
     1
 62
   256
176
     0
 40
1.0
176
     0
 90
        2
176
     1
  1
strokes_ogs.tif
176
     1
290
     0
176
     1
 40
1.0
176
     1
 40
1.0
176
     1
  0
VISUALSTYLE
  5
2A
102
{ACAD_REACTORS
330
29
102
}
330
29
100
AcDbVisualStyle
  2
Flat
 70
     0
177
     3
291
     1
 70
    58
 90
        2
176
     1
 90
        1
176
     1
 90
        1
176
     1
 90
        2
176
     1
 40
0.6
176
     1
 40
30.0
176
     1
 62
     7
420
 16777215
176
     1
 90
        0
176
     1
 90
        0
176
     1
 62
     7
176
     1
 62
   257
176
     1
 90
        1
176
     1
 90
        1
176
     1
 40
1.0
176
     1
 90
        8
176
     1
 62
     7
176
     1
 40
1.0
176
     1
 90
        1
176
     1
 90
        6
176
     1
 90
        2
176
     1
 62
     7
176
     1
 90
        5
176
     1
 90
        0
176
     1
 90
        0
176
     1
290
     0
176
     1
 90
       13
176
     1
 40
0.0
176
     1
 90
        0
176
     1
290
     0
176
     1
290
     1
176
     1
290
     1
176
     1
290
     0
176
     1
290
     0
176
     1
290
     0
176
     1
290
     0
176
     1
290
     0
176
     1
290
     0
176
     1
 90
       50
176
     1
 40
0.0
176
     1
 40
1.0
176
     1
 90
        0
176
     1
 62
    18
420
        0
176
     1
 90
       50
176
     1
 90
        3
176
     1
 62
     5
420
      255
176
     1
290
     0
176
     1
 90
       50
176
     1
 90
       50
176
     1
 90
       50
176
     1
290
     0
176
     1
 90
       50
176
     1
 62
   256
176
     0
 40
1.0
176
     0
 90
        2
176
     1
  1
strokes_ogs.tif
176
     1
290
     0
176
     1
 40
1.0
176
     1
 40
1.0
176
     1
  0
VISUALSTYLE
  5
2B
102
{ACAD_REACTORS
330
29
102
}
330
29
100
AcDbVisualStyle
  2
FlatWithEdges
 70
     1
177
     3
291
     1
 70
    58
 90
        2
176
     1
 90
        1
176
     1
 90
        1
176
     1
 90
        2
176
     1
 40
0.6
176
     1
 40
30.0
176
     1
 62
     7
420
 16777215
176
     1
 90
        1
176
     1
 90
        0
176
     1
 62
     7
176
     1
 62
   257
176
     1
 90
        1
176
     1
 90
        1
176
     1
 40
1.0
176
     1
 90
        0
176
     1
 62
   257
176
     1
 40
1.0
176
     1
 90
        1
176
     1
 90
        6
176
     1
 90
        2
176
     1
 62
     7
176
     1
 90
        5
176
     1
 90
        0
176
     1
 90
        0
176
     1
290
     0
176
     1
 90
       13
176
     1
 40
0.0
176
     1
 90
        0
176
     1
290
     0
176
     1
290
     1
176
     1
290
     1
176
     1
290
     0
176
     1
290
     0
176
     1
290
     0
176
     1
290
     0
176
     1
290
     0
176
     1
290
     0
176
     1
 90
       50
176
     1
 40
0.0
176
     1
 40
1.0
176
     1
 90
        0
176
     1
 62
    18
420
        0
176
     1
 90
       50
176
     1
 90
        3
176
     1
 62
     5
420
      255
176
     1
290
     0
176
     1
 90
       50
176
     1
 90
       50
176
     1
 90
       50
176
     1
290
     0
176
     1
 90
       50
176
     1
 62
   256
176
     0
 40
1.0
176
     0
 90
        2
176
     1
  1
strokes_ogs.tif
176
     1
290
     0
176
     1
 40
1.0
176
     1
 40
1.0
176
     1
  0
VISUALSTYLE
  5
2C
102
{ACAD_REACTORS
330
29
102
}
330
29
100
AcDbVisualStyle
  2
Gouraud
 70
     2
177
     3
291
     1
 70
    58
 90
        2
176
     1
 90
        2
176
     1
 90
        1
176
     1
 90
        2
176
     1
 40
0.6
176
     1
 40
30.0
176
     1
 62
     7
420
 16777215
176
     1
 90
        0
176
     1
 90
        0
176
     1
 62
     7
176
     1
 62
   257
176
     1
 90
        1
176
     1
 90
        1
176
     1
 40
1.0
176
     1
 90
        0
176
     1
 62
     7
176
     1
 40
1.0
176
     1
 90
        1
176
     1
 90
        6
176
     1
 90
        2
176
     1
 62
     7
176
     1
 90
        5
176
     1
 90
        0
176
     1
 90
        0
176
     1
290
     0
176
     1
 90
       13
176
     1
 40
0.0
176
     1
 90
        0
176
     1
290
     0
176
     1
290
     1
176
     1
290
     1
176
     1
290
     0
176
     1
290
     0
176
     1
290
     0
176
     1
290
     0
176
     1
290
     0
176
     1
290
     0
176
     1
 90
       50
176
     1
 40
0.0
176
     1
 40
1.0
176
     1
 90
        0
176
     1
 62
    18
420
        0
176
     1
 90
       50
176
     1
 90
        3
176
     1
 62
     5
420
      255
176
     1
290
     0
176
     1
 90
       50
176
     1
 90
       50
176
     1
 90
       50
176
     1
290
     0
176
     1
 90
       50
176
     1
 62
   256
176
     0
 40
1.0
176
     0
 90
        2
176
     1
  1
strokes_ogs.tif
176
     1
290
     0
176
     1
 40
1.0
176
     1
 40
1.0
176
     1
  0
VISUALSTYLE
  5
2D
102
{ACAD_REACTORS
330
29
102
}
330
29
100
AcDbVisualStyle
  2
GouraudWithEdges
 70
     3
177
     3
291
     1
 70
    58
 90
        2
176
     1
 90
        2
176
     1
 90
        1
176
     1
 90
        2
176
     1
 40
0.6
176
     1
 40
30.0
176
     1
 62
     7
420
 16777215
176
     1
 90
        1
176
     1
 90
        0
176
     1
 62
     7
176
     1
 62
   257
176
     1
 90
        1
176
     1
 90
        1
176
     1
 40
1.0
176
     1
 90
        0
176
     1
 62
   257
176
     1
 40
1.0
176
     1
 90
        1
176
     1
 90
        6
176
     1
 90
        2
176
     1
 62
     7
176
     1
 90
        5
176
     1
 90
        0
176
     1
 90
        0
176
     1
290
     0
176
     1
 90
       13
176
     1
 40
0.0
176
     1
 90
        0
176
     1
290
     0
176
     1
290
     1
176
     1
290
     1
176
     1
290
     0
176
     1
290
     0
176
     1
290
     0
176
     1
290
     0
176
     1
290
     0
176
     1
290
     0
176
     1
 90
       50
176
     1
 40
0.0
176
     1
 40
1.0
176
     1
 90
        0
176
     1
 62
    18
420
        0
176
     1
 90
       50
176
     1
 90
        3
176
     1
 62
     5
420
      255
176
     1
290
     0
176
     1
 90
       50
176
     1
 90
       50
176
     1
 90
       50
176
     1
290
     0
176
     1
 90
       50
176
     1
 62
   256
176
     0
 40
1.0
176
     0
 90
        2
176
     1
  1
strokes_ogs.tif
176
     1
290
     0
176
     1
 40
1.0
176
     1
 40
1.0
176
     1
  0
VISUALSTYLE
  5
31
102
{ACAD_REACTORS
330
29
102
}
330
29
100
AcDbVisualStyle
  2
Hidden
 70
     6
177
     3
291
     0
 70
    58
 90
        1
176
     1
 90
        2
176
     1
 90
        2
176
     1
 90
        0
176
     1
 40
0.6
176
     1
 40
30.0
176
     1
 62
     7
420
 16777215
176
     1
 90
        2
176
     1
 90
        2
176
     1
 62
     7
176
     1
 62
   257
176
     1
 90
        2
176
     1
 90
        1
176
     1
 40
40.0
176
     1
 90
        0
176
     1
 62
   257
176
     1
 40
1.0
176
     1
 90
        1
176
     1
 90
        6
176
     1
 90
        2
176
     1
 62
     7
176
     1
 90
        3
176
     1
 90
        0
176
     1
 90
        0
176
     1
290
     0
176
     1
 90
        1
176
     1
 40
0.0
176
     1
 90
        0
176
     1
290
     0
176
     1
290
     1
176
     1
290
     1
176
     1
290
     0
176
     1
290
     0
176
     1
290
     0
176
     1
290
     0
176
     1
290
     0
176
     1
290
     0
176
     1
 90
       50
176
     1
 40
0.0
176
     1
 40
1.0
176
     1
 90
        0
176
     1
 62
    18
420
        0
176
     1
 90
       50
176
     1
 90
        3
176
     1
 62
     5
420
      255
176
     1
290
     0
176
     1
 90
       50
176
     1
 90
       50
176
     1
 90
       50
176
     1
290
     0
176
     1
 90
       50
176
     1
 62
   256
176
     0
 40
1.0
176
     0
 90
        2
176
     1
  1
strokes_ogs.tif
176
     1
290
     0
176
     1
 40
1.0
176
     1
 40
1.0
176
     1
  0
VISUALSTYLE
  5
3F
102
{ACAD_REACTORS
330
29
102
}
330
29
100
AcDbVisualStyle
  2
JitterOff
 70
    20
177
     3
291
     1
 70
    58
 90
        2
176
     0
 90
        2
176
     0
 90
        0
176
     0
 90
        0
176
     0
 40
0.6
176
     0
 40
30.0
176
     0
 62
     7
420
 16777215
176
     0
 90
        1
176
     0
 90
        4
176
     0
 62
     7
176
     0
 62
   257
176
     0
 90
        1
176
     0
 90
        1
176
     0
 40
1.0
176
     0
 90
       10
176
     2
 62
     7
176
     0
 40
1.0
176
     0
 90
        1
176
     0
 90
        6
176
     0
 90
        2
176
     0
 62
     7
176
     0
 90
        5
176
     0
 90
        0
176
     0
 90
        0
176
     0
290
     0
176
     0
 90
        1
176
     0
 40
0.0
176
     0
 90
        0
176
     0
290
     0
176
     0
290
     1
176
     0
290
     1
176
     0
290
     0
176
     0
290
     0
176
     0
290
     0
176
     0
290
     0
176
     0
290
     0
176
     0
290
     0
176
     0
 90
       50
176
     0
 40
0.0
176
     0
 40
1.0
176
     0
 90
        0
176
     0
 62
    18
420
        0
176
     0
 90
       50
176
     0
 90
        3
176
     0
 62
     5
420
      255
176
     0
290
     0
176
     0
 90
       50
176
     0
 90
       50
176
     0
 90
       50
176
     0
290
     0
176
     0
 90
       50
176
     0
 62
   256
176
     0
 40
1.0
176
     0
 90
        2
176
     0
  1
strokes_ogs.tif
176
     0
290
     0
176
     0
 40
1.0
176
     0
 40
1.0
176
     0
  0
VISUALSTYLE
  5
37
102
{ACAD_REACTORS
330
29
102
}
330
29
100
AcDbVisualStyle
  2
Linepattern
 70
    14
177
     3
291
     1
 70
    58
 90
        2
176
     1
 90
        2
176
     1
 90
        0
176
     1
 90
        0
176
     1
 40
0.6
176
     1
 40
30.0
176
     1
 62
     7
420
 16777215
176
     1
 90
        1
176
     1
 90
        4
176
     1
 62
     7
176
     1
 62
   257
176
     1
 90
        7
176
     1
 90
        7
176
     1
 40
1.0
176
     1
 90
        8
176
     1
 62
     7
176
     1
 40
1.0
176
     1
 90
        1
176
     1
 90
        6
176
     1
 90
        2
176
     1
 62
     7
176
     1
 90
        5
176
     1
 90
        0
176
     1
 90
        0
176
     1
290
     0
176
     1
 90
        1
176
     1
 40
0.0
176
     1
 90
        0
176
     1
290
     0
176
     1
290
     1
176
     1
290
     1
176
     1
290
     0
176
     1
290
     0
176
     1
290
     0
176
     1
290
     0
176
     1
290
     0
176
     1
290
     0
176
     1
 90
       50
176
     1
 40
0.0
176
     1
 40
1.0
176
     1
 90
        0
176
     1
 62
    18
420
        0
176
     1
 90
       50
176
     1
 90
        3
176
     1
 62
     5
420
      255
176
     1
290
     0
176
     1
 90
       50
176
     1
 90
       50
176
     1
 90
       50
176
     1
290
     0
176
     1
 90
       50
176
     1
 62
   256
176
     0
 40
1.0
176
     0
 90
        2
176
     1
  1
strokes_ogs.tif
176
     1
290
     0
176
     1
 40
1.0
176
     1
 40
1.0
176
     1
  0
VISUALSTYLE
  5
40
102
{ACAD_REACTORS
330
29
102
}
330
29
100
AcDbVisualStyle
  2
OverhangOff
 70
    21
177
     3
291
     1
 70
    58
 90
        2
176
     0
 90
        2
176
     0
 90
        0
176
     0
 90
        0
176
     0
 40
0.6
176
     0
 40
30.0
176
     0
 62
     7
420
 16777215
176
     0
 90
        1
176
     0
 90
        4
176
     0
 62
     7
176
     0
 62
   257
176
     0
 90
        1
176
     0
 90
        1
176
     0
 40
1.0
176
     0
 90
        9
176
     2
 62
     7
176
     0
 40
1.0
176
     0
 90
        1
176
     0
 90
        6
176
     0
 90
        2
176
     0
 62
     7
176
     0
 90
        5
176
     0
 90
        0
176
     0
 90
        0
176
     0
290
     0
176
     0
 90
        1
176
     0
 40
0.0
176
     0
 90
        0
176
     0
290
     0
176
     0
290
     1
176
     0
290
     1
176
     0
290
     0
176
     0
290
     0
176
     0
290
     0
176
     0
290
     0
176
     0
290
     0
176
     0
290
     0
176
     0
 90
       50
176
     0
 40
0.0
176
     0
 40
1.0
176
     0
 90
        0
176
     0
 62
    18
420
        0
176
     0
 90
       50
176
     0
 90
        3
176
     0
 62
     5
420
      255
176
     0
290
     0
176
     0
 90
       50
176
     0
 90
       50
176
     0
 90
       50
176
     0
290
     0
176
     0
 90
       50
176
     0
 62
   256
176
     0
 40
1.0
176
     0
 90
        2
176
     0
  1
strokes_ogs.tif
176
     0
290
     0
176
     0
 40
1.0
176
     0
 40
1.0
176
     0
  0
VISUALSTYLE
  5
33
102
{ACAD_REACTORS
330
29
102
}
330
29
100
AcDbVisualStyle
  2
Realistic
 70
     8
177
     3
291
     0
 70
    58
 90
        2
176
     1
 90
        3
176
     1
 90
        0
176
     1
 90
        2
176
     1
 40
0.6
176
     1
 40
30.0
176
     1
 62
     7
420
 16777215
176
     1
 90
        0
176
     1
 90
        0
176
     1
 62
     7
176
     1
 62
   257
176
     1
 90
        1
176
     1
 90
        1
176
     1
 40
1.0
176
     1
 90
        8
176
     1
 62
   257
176
     1
 40
1.0
176
     1
 90
        1
176
     1
 90
        6
176
     1
 90
        2
176
     1
 62
     7
176
     1
 90
        3
176
     1
 90
        0
176
     1
 90
        0
176
     1
290
     0
176
     1
 90
       13
176
     1
 40
0.0
176
     1
 90
        0
176
     1
290
     0
176
     1
290
     1
176
     1
290
     1
176
     1
290
     0
176
     1
290
     0
176
     1
290
     0
176
     1
290
     0
176
     1
290
     0
176
     1
290
     0
176
     1
 90
       50
176
     1
 40
0.0
176
     1
 40
1.0
176
     1
 90
        0
176
     1
 62
    18
420
        0
176
     1
 90
       50
176
     1
 90
        3
176
     1
 62
     5
420
      255
176
     1
290
     0
176
     1
 90
       50
176
     1
 90
       50
176
     1
 90
       50
176
     1
290
     0
176
     1
 90
       50
176
     1
 62
   256
176
     0
 40
1.0
176
     0
 90
        2
176
     1
  1
strokes_ogs.tif
176
     1
290
     0
176
     1
 40
1.0
176
     1
 40
1.0
176
     1
  0
VISUALSTYLE
  5
3E
102
{ACAD_REACTORS
330
29
102
}
330
29
100
AcDbVisualStyle
  2
Shaded
 70
    27
177
     3
291
     0
 70
    58
 90
        2
176
     1
 90
        2
176
     1
 90
        1
176
     1
 90
        2
176
     1
 40
0.6
176
     1
 40
30.0
176
     1
 62
     7
420
 16777215
176
     1
 90
        0
176
     1
 90
        4
176
     1
 62
     7
176
     1
 62
   257
176
     1
 90
        1
176
     1
 90
        1
176
     1
 40
1.0
176
     1
 90
        8
176
     1
 62
   257
176
     1
 40
1.0
176
     1
 90
        1
176
     1
 90
        6
176
     1
 90
        2
176
     1
 62
     8
420
  7895160
176
     1
 90
        3
176
     1
 90
        0
176
     1
 90
        0
176
     1
290
     0
176
     1
 90
        5
176
     1
 40
0.0
176
     1
 90
        0
176
     1
290
     0
176
     1
290
     1
176
     1
290
     1
176
     1
290
     0
176
     1
290
     0
176
     1
290
     0
176
     1
290
     0
176
     1
290
     0
176
     1
290
     0
176
     1
 90
       50
176
     1
 40
0.0
176
     1
 40
1.0
176
     1
 90
        0
176
     1
 62
    18
420
        0
176
     1
 90
       50
176
     1
 90
        3
176
     1
 62
     5
420
      255
176
     1
290
     0
176
     1
 90
       50
176
     1
 90
       50
176
     1
 90
       50
176
     1
290
     0
176
     1
 90
       50
176
     1
 62
   256
176
     0
 40
1.0
176
     0
 90
        2
176
     1
  1
strokes_ogs.tif
176
     1
290
     0
176
     1
 40
1.0
176
     1
 40
1.0
176
     1
  0
VISUALSTYLE
  5
3D
102
{ACAD_REACTORS
330
29
102
}
330
29
100
AcDbVisualStyle
  2
Shaded with edges
 70
    26
177
     3
291
     0
 70
    58
 90
        2
176
     1
 90
        2
176
     1
 90
        1
176
     1
 90
        2
176
     1
 40
0.6
176
     1
 40
30.0
176
     1
 62
     7
420
 16777215
176
     1
 90
        1
176
     1
 90
        2
176
     1
 62
     7
176
     1
 62
   257
176
     1
 90
        2
176
     1
 90
        1
176
     1
 40
1.0
176
     1
 90
        8
176
     1
 62
   257
176
     1
 40
1.0
176
     1
 90
        1
176
     1
 90
        6
176
     1
 90
        2
176
     1
 62
     7
176
     1
 90
        3
176
     1
 90
        0
176
     1
 90
        0
176
     1
290
     0
176
     1
 90
        5
176
     1
 40
0.0
176
     1
 90
        0
176
     1
290
     0
176
     1
290
     1
176
     1
290
     1
176
     1
290
     0
176
     1
290
     0
176
     1
290
     0
176
     1
290
     0
176
     1
290
     0
176
     1
290
     0
176
     1
 90
       50
176
     1
 40
0.0
176
     1
 40
1.0
176
     1
 90
        0
176
     1
 62
    18
420
        0
176
     1
 90
       50
176
     1
 90
        3
176
     1
 62
     5
420
      255
176
     1
290
     0
176
     1
 90
       50
176
     1
 90
       50
176
     1
 90
       50
176
     1
290
     0
176
     1
 90
       50
176
     1
 62
   256
176
     0
 40
1.0
176
     0
 90
        2
176
     1
  1
strokes_ogs.tif
176
     1
290
     0
176
     1
 40
1.0
176
     1
 40
1.0
176
     1
  0
VISUALSTYLE
  5
3A
102
{ACAD_REACTORS
330
29
102
}
330
29
100
AcDbVisualStyle
  2
Shades of Gray
 70
    23
177
     3
291
     0
 70
    58
 90
        2
176
     1
 90
        2
176
     1
 90
        3
176
     1
 90
        0
176
     1
 40
0.6
176
     1
 40
30.0
176
     1
 62
     7
420
 16777215
176
     1
 90
        2
176
     1
 90
        2
176
     1
 62
     7
176
     1
 62
     7
176
     1
 90
        1
176
     1
 90
        1
176
     1
 40
40.0
176
     1
 90
        8
176
     1
 62
     7
176
     1
 40
1.0
176
     1
 90
        1
176
     1
 90
        6
176
     1
 90
        2
176
     1
 62
     7
176
     1
 90
        3
176
     1
 90
        0
176
     1
 90
        0
176
     1
290
     0
176
     1
 90
        1
176
     1
 40
0.0
176
     1
 90
        0
176
     1
290
     0
176
     1
290
     1
176
     1
290
     1
176
     1
290
     0
176
     1
290
     0
176
     1
290
     0
176
     1
290
     0
176
     1
290
     0
176
     1
290
     0
176
     1
 90
       50
176
     1
 40
0.0
176
     1
 40
1.0
176
     1
 90
        0
176
     1
 62
    18
420
        0
176
     1
 90
       50
176
     1
 90
        3
176
     1
 62
     5
420
      255
176
     1
290
     0
176
     1
 90
       50
176
     1
 90
       50
176
     1
 90
       50
176
     1
290
     0
176
     1
 90
       50
176
     1
 62
   256
176
     0
 40
1.0
176
     0
 90
        2
176
     1
  1
strokes_ogs.tif
176
     1
290
     0
176
     1
 40
1.0
176
     1
 40
1.0
176
     1
  0
VISUALSTYLE
  5
3B
102
{ACAD_REACTORS
330
29
102
}
330
29
100
AcDbVisualStyle
  2
Sketchy
 70
    24
177
     3
291
     0
 70
    58
 90
        1
176
     1
 90
        2
176
     1
 90
        2
176
     1
 90
        0
176
     1
 40
0.6
176
     1
 40
30.0
176
     1
 62
     7
420
 16777215
176
     1
 90
        2
176
     1
 90
        2
176
     1
 62
     7
176
     1
 62
     7
176
     1
 90
        1
176
     1
 90
        1
176
     1
 40
40.0
176
     1
 90
       11
176
     1
 62
     7
176
     1
 40
1.0
176
     1
 90
        1
176
     1
 90
        6
176
     1
 90
        2
176
     1
 62
     7
176
     1
 90
        6
176
     1
 90
        0
176
     1
 90
        0
176
     1
290
     0
176
     1
 90
        1
176
     1
 40
0.0
176
     1
 90
        0
176
     1
290
     0
176
     1
290
     1
176
     1
290
     1
176
     1
290
     0
176
     1
290
     0
176
     1
290
     0
176
     1
290
     0
176
     1
290
     0
176
     1
290
     0
176
     1
 90
       50
176
     1
 40
0.0
176
     1
 40
1.0
176
     1
 90
        0
176
     1
 62
    18
420
        0
176
     1
 90
       50
176
     1
 90
        3
176
     1
 62
     5
420
      255
176
     1
290
     0
176
     1
 90
       50
176
     1
 90
       50
176
     1
 90
       50
176
     1
290
     0
176
     1
 90
       50
176
     1
 62
   256
176
     0
 40
1.0
176
     0
 90
        2
176
     1
  1
strokes_ogs.tif
176
     1
290
     0
176
     1
 40
1.0
176
     1
 40
1.0
176
     1
  0
VISUALSTYLE
  5
36
102
{ACAD_REACTORS
330
29
102
}
330
29
100
AcDbVisualStyle
  2
Thicken
 70
    13
177
     3
291
     1
 70
    58
 90
        2
176
     1
 90
        2
176
     1
 90
        0
176
     1
 90
        0
176
     1
 40
0.6
176
     1
 40
30.0
176
     1
 62
     7
420
 16777215
176
     1
 90
        1
176
     1
 90
        4
176
     1
 62
     7
176
     1
 62
   257
176
     1
 90
        1
176
     1
 90
        1
176
     1
 40
1.0
176
     1
 90
       12
176
     1
 62
     7
176
     1
 40
1.0
176
     1
 90
        1
176
     1
 90
        6
176
     1
 90
        2
176
     1
 62
     7
176
     1
 90
        5
176
     1
 90
        0
176
     1
 90
        0
176
     1
290
     0
176
     1
 90
        1
176
     1
 40
0.0
176
     1
 90
        0
176
     1
290
     0
176
     1
290
     1
176
     1
290
     1
176
     1
290
     0
176
     1
290
     0
176
     1
290
     0
176
     1
290
     0
176
     1
290
     0
176
     1
290
     0
176
     1
 90
       50
176
     1
 40
0.0
176
     1
 40
1.0
176
     1
 90
        0
176
     1
 62
    18
420
        0
176
     1
 90
       50
176
     1
 90
        3
176
     1
 62
     5
420
      255
176
     1
290
     0
176
     1
 90
       50
176
     1
 90
       50
176
     1
 90
       50
176
     1
290
     0
176
     1
 90
       50
176
     1
 62
   256
176
     0
 40
1.0
176
     0
 90
        2
176
     1
  1
strokes_ogs.tif
176
     1
290
     0
176
     1
 40
1.0
176
     1
 40
1.0
176
     1
  0
VISUALSTYLE
  5
30
102
{ACAD_REACTORS
330
29
102
}
330
29
100
AcDbVisualStyle
  2
Wireframe
 70
     5
177
     3
291
     0
 70
    58
 90
        0
176
     1
 90
        2
176
     1
 90
        0
176
     1
 90
        0
176
     1
 40
0.6
176
     1
 40
30.0
176
     1
 62
     7
420
 16777215
176
     1
 90
        1
176
     1
 90
        4
176
     1
 62
     7
176
     1
 62
   257
176
     1
 90
        1
176
     1
 90
        1
176
     1
 40
1.0
176
     1
 90
        0
176
     1
 62
   257
176
     1
 40
1.0
176
     1
 90
        1
176
     1
 90
        6
176
     1
 90
        2
176
     1
 62
     7
176
     1
 90
        3
176
     1
 90
        0
176
     1
 90
        0
176
     1
290
     0
176
     1
 90
        1
176
     1
 40
0.0
176
     1
 90
        0
176
     1
290
     0
176
     1
290
     1
176
     1
290
     1
176
     1
290
     0
176
     1
290
     0
176
     1
290
     0
176
     1
290
     0
176
     1
290
     0
176
     1
290
     0
176
     1
 90
       50
176
     1
 40
0.0
176
     1
 40
1.0
176
     1
 90
        0
176
     1
 62
    18
420
        0
176
     1
 90
       50
176
     1
 90
        3
176
     1
 62
     5
420
      255
176
     1
290
     0
176
     1
 90
       50
176
     1
 90
       50
176
     1
 90
       50
176
     1
290
     0
176
     1
 90
       50
176
     1
 62
   256
176
     0
 40
1.0
176
     0
 90
        2
176
     1
  1
strokes_ogs.tif
176
     1
290
     0
176
     1
 40
1.0
176
     1
 40
1.0
176
     1
  0
VISUALSTYLE
  5
3C
102
{ACAD_REACTORS
330
29
102
}
330
29
100
AcDbVisualStyle
  2
X-Ray
 70
    25
177
     3
291
     0
 70
    58
 90
        2
176
     1
 90
        2
176
     1
 90
        1
176
     1
 90
        1
176
     1
 40
0.5
176
     1
 40
30.0
176
     1
 62
     7
420
 16777215
176
     1
 90
        1
176
     1
 90
        0
176
     1
 62
     7
176
     1
 62
   257
176
     1
 90
        1
176
     1
 90
        1
176
     1
 40
1.0
176
     1
 90
        8
176
     1
 62
     7
176
     1
 40
1.0
176
     1
 90
        1
176
     1
 90
        6
176
     1
 90
        2
176
     1
 62
     7
176
     1
 90
        3
176
     1
 90
        0
176
     1
 90
        0
176
     1
290
     0
176
     1
 90
       13
176
     1
 40
0.0
176
     1
 90
        0
176
     1
290
     0
176
     1
290
     1
176
     1
290
     1
176
     1
290
     0
176
     1
290
     0
176
     1
290
     0
176
     1
290
     0
176
     1
290
     0
176
     1
290
     0
176
     1
 90
       50
176
     1
 40
0.0
176
     1
 40
1.0
176
     1
 90
        0
176
     1
 62
    18
420
        0
176
     1
 90
       50
176
     1
 90
        3
176
     1
 62
     5
420
      255
176
     1
290
     0
176
     1
 90
       50
176
     1
 90
       50
176
     1
 90
       50
176
     1
290
     0
176
     1
 90
       50
176
     1
 62
   256
176
     0
 40
1.0
176
     0
 90
        2
176
     1
  1
strokes_ogs.tif
176
     1
290
     0
176
     1
 40
1.0
176
     1
 40
1.0
176
     1
  0
DICTIONARYVAR
  5
B1
102
{ACAD_REACTORS
330
AC
102
}
330
AC
100
DictionaryVariables
280
     0
  1
1:1
  0
DICTIONARYVAR
  5
AE
102
{ACAD_REACTORS
330
AC
102
}
330
AC
100
DictionaryVariables
280
     0
  1
STANDARD
  0
DICTIONARYVAR
  5
AD
102
{ACAD_REACTORS
330
AC
102
}
330
AC
100
DictionaryVariables
280
     0
  1
STANDARD
  0
DICTIONARYVAR
  5
AF
102
{ACAD_REACTORS
330
AC
102
}
330
AC
100
DictionaryVariables
280
     0
  1
Imperial24
  0
DICTIONARYVAR
  5
B0
102
{ACAD_REACTORS
330
AC
102
}
330
AC
100
DictionaryVariables
280
     0
  1
Imperial24
  0
DICTIONARY
  5
1A
330
19
100
AcDbDictionary
280
     1
281
     1
  3
BUMPTILE
360
1C
  3
DIFFUSETILE
360
1B
  3
OPACITYTILE
360
1F
  3
REFLECTIONTILE
360
1E
  3
REFRACTIONTILE
360
20
  3
SPECULARTILE
360
1D
  0
DICTIONARY
  5
12
330
11
100
AcDbDictionary
280
     1
281
     1
  3
BUMPTILE
360
14
  3
DIFFUSETILE
360
13
  3
OPACITYTILE
360
17
  3
REFLECTIONTILE
360
16
  3
REFRACTIONTILE
360
18
  3
SPECULARTILE
360
15
  0
DICTIONARY
  5
22
330
21
100
AcDbDictionary
280
     1
281
     1
  3
BUMPTILE
360
24
  3
DIFFUSETILE
360
23
  3
OPACITYTILE
360
27
  3
REFLECTIONTILE
360
26
  3
REFRACTIONTILE
360
28
  3
SPECULARTILE
360
25
  0
DICTIONARY
  5
B2
330
65
100
AcDbDictionary
280
     1
281
     1
  3
ACAD_ROUNDTRIP_2008_TABLESTYLE_CELLSTYLEMAP
360
B3
  0
XRECORD
  5
1C
102
{ACAD_REACTORS
330
1A
102
}
330
1A
100
AcDbXrecord
280
     1
270
     1
271
     1
  0
XRECORD
  5
1B
102
{ACAD_REACTORS
330
1A
102
}
330
1A
100
AcDbXrecord
280
     1
270
     1
271
     1
  0
XRECORD
  5
1F
102
{ACAD_REACTORS
330
1A
102
}
330
1A
100
AcDbXrecord
280
     1
270
     1
271
     1
  0
XRECORD
  5
1E
102
{ACAD_REACTORS
330
1A
102
}
330
1A
100
AcDbXrecord
280
     1
270
     1
271
     1
  0
XRECORD
  5
20
102
{ACAD_REACTORS
330
1A
102
}
330
1A
100
AcDbXrecord
280
     1
270
     1
271
     1
  0
XRECORD
  5
1D
102
{ACAD_REACTORS
330
1A
102
}
330
1A
100
AcDbXrecord
280
     1
270
     1
271
     1
  0
XRECORD
  5
14
102
{ACAD_REACTORS
330
12
102
}
330
12
100
AcDbXrecord
280
     1
270
     1
271
     1
  0
XRECORD
  5
13
102
{ACAD_REACTORS
330
12
102
}
330
12
100
AcDbXrecord
280
     1
270
     1
271
     1
  0
XRECORD
  5
17
102
{ACAD_REACTORS
330
12
102
}
330
12
100
AcDbXrecord
280
     1
270
     1
271
     1
  0
XRECORD
  5
16
102
{ACAD_REACTORS
330
12
102
}
330
12
100
AcDbXrecord
280
     1
270
     1
271
     1
  0
XRECORD
  5
18
102
{ACAD_REACTORS
330
12
102
}
330
12
100
AcDbXrecord
280
     1
270
     1
271
     1
  0
XRECORD
  5
15
102
{ACAD_REACTORS
330
12
102
}
330
12
100
AcDbXrecord
280
     1
270
     1
271
     1
  0
XRECORD
  5
24
102
{ACAD_REACTORS
330
22
102
}
330
22
100
AcDbXrecord
280
     1
270
     1
271
     1
  0
XRECORD
  5
23
102
{ACAD_REACTORS
330
22
102
}
330
22
100
AcDbXrecord
280
     1
270
     1
271
     1
  0
XRECORD
  5
27
102
{ACAD_REACTORS
330
22
102
}
330
22
100
AcDbXrecord
280
     1
270
     1
271
     1
  0
XRECORD
  5
26
102
{ACAD_REACTORS
330
22
102
}
330
22
100
AcDbXrecord
280
     1
270
     1
271
     1
  0
XRECORD
  5
28
102
{ACAD_REACTORS
330
22
102
}
330
22
100
AcDbXrecord
280
     1
270
     1
271
     1
  0
XRECORD
  5
25
102
{ACAD_REACTORS
330
22
102
}
330
22
100
AcDbXrecord
280
     1
270
     1
271
     1
  0
CELLSTYLEMAP
  5
B3
102
{ACAD_REACTORS
330
B2
102
}
330
B2
100
AcDbCellStyleMap
 90
        3
300
CELLSTYLE
  1
TABLEFORMAT_BEGIN
 90
        5
170
     1
 91
        0
 92
    32768
 62
   257
 93
        1
300
CONTENTFORMAT
  1
CONTENTFORMAT_BEGIN
 90
        0
 91
        0
 92
      512
 93
        0
300

 40
0.0
140
1.0
 94
        5
 62
     0
340
55
144
0.25
309
CONTENTFORMAT_END
171
     0
 94
        0
309
TABLEFORMAT_END
  1
CELLSTYLE_BEGIN
 90
        1
 91
        1
300
_TITLE
309
CELLSTYLE_END
300
CELLSTYLE
  1
TABLEFORMAT_BEGIN
 90
        5
170
     1
 91
        0
 92
        0
 62
   257
 93
        1
300
CONTENTFORMAT
  1
CONTENTFORMAT_BEGIN
 90
        0
 91
        0
 92
      512
 93
        0
300

 40
0.0
140
1.0
 94
        5
 62
     0
340
55
144
0.18
309
CONTENTFORMAT_END
171
     0
 94
        0
309
TABLEFORMAT_END
  1
CELLSTYLE_BEGIN
 90
        2
 91
        1
300
_HEADER
309
CELLSTYLE_END
300
CELLSTYLE
  1
TABLEFORMAT_BEGIN
 90
        5
170
     1
 91
        0
 92
        0
 62
   257
 93
        1
300
CONTENTFORMAT
  1
CONTENTFORMAT_BEGIN
 90
        0
 91
        0
 92
      512
 93
        0
300

 40
0.0
140
1.0
 94
        2
 62
     0
340
55
144
0.18
309
CONTENTFORMAT_END
171
     0
 94
        0
309
TABLEFORMAT_END
  1
CELLSTYLE_BEGIN
 90
        3
 91
        2
300
_DATA
309
CELLSTYLE_END
  0
ENDSEC
  0
EOF
